<?xml version="1.0" encoding="UTF-8" standalone="no"?>
<!-- Created with Inkscape (http://www.inkscape.org/) -->

<svg
   width="500mm"
   height="442.24332mm"
   viewBox="0 0 500.00002 442.24329"
   version="1.1"
   id="svg986"
   inkscape:version="1.1 (c68e22c387, 2021-05-23)"
   sodipodi:docname="RedEyeLogo.svg"
   xmlns:inkscape="http://www.inkscape.org/namespaces/inkscape"
   xmlns:sodipodi="http://sodipodi.sourceforge.net/DTD/sodipodi-0.dtd"
   xmlns="http://www.w3.org/2000/svg"
   xmlns:svg="http://www.w3.org/2000/svg">
  <sodipodi:namedview
     id="namedview988"
     pagecolor="#ffffff"
     bordercolor="#666666"
     borderopacity="1.0"
     inkscape:pageshadow="2"
     inkscape:pageopacity="0.0"
     inkscape:pagecheckerboard="0"
     inkscape:document-units="mm"
     showgrid="false"
     fit-margin-top="0"
     fit-margin-left="0"
     fit-margin-right="0"
     fit-margin-bottom="0"
     inkscape:zoom="0.25"
     inkscape:cx="58"
     inkscape:cy="1038"
     inkscape:window-width="1920"
     inkscape:window-height="1017"
     inkscape:window-x="1912"
     inkscape:window-y="-8"
     inkscape:window-maximized="1"
     inkscape:current-layer="g6392"
     showguides="true"
     inkscape:guide-bbox="true"
     lock-margins="true" />
  <defs
     id="defs983" />
  <g
     inkscape:label="Layer 1"
     inkscape:groupmode="layer"
     id="layer1"
     transform="translate(140.36254,98.240263)">
    <g
       id="g6392"
       inkscape:export-filename="C:\Users\jmsla\Desktop\RedEyeLogo V4 PNG.png"
       inkscape:export-xdpi="329.56567"
       inkscape:export-ydpi="329.56567">
      <path
         style="font-size:25.2996px;line-height:0;font-family:Airstrike;-inkscape-font-specification:Airstrike;letter-spacing:0.0175614px;word-spacing:0.026342px;writing-mode:vertical-lr;fill:#ffffff;stroke:#000000;stroke-width:5.93387;stroke-linecap:butt;stroke-linejoin:miter"
         d="m -134.07348,-95.272675 55.206019,66.999364 -38.263049,15.288692 -0.17386,232.608459 92.52542,115.90684 V 168.21062 l 81.55675,59.86127 260.84858,-0.92708 37.52878,-88.42456 H 164.61851 L 141.9319,109.67677 H 246.06651 L 289.51169,19.863358 H 127.23052 c 3.27396,-7.440443 5.26309,-15.8435677 6.05557,-24.7959009 h 161.31824 l 42.38695,-90.3407791 z"
         id="path3994"
         sodipodi:nodetypes="cccccccccccccccccc" />
      <path
         id="path2959"
         style="font-size:25.2996px;line-height:0;font-family:Airstrike;-inkscape-font-specification:Airstrike;letter-spacing:0.0175614px;word-spacing:0.026342px;writing-mode:vertical-lr;fill:#ff0000;stroke-width:1.87718"
         d="m -64.20711,-18.832798 -40.29224,13.0889775 8.881716,11.3533523 13.823532,-4.5106873 0.981876,0.2806727 -1.713729,20.9665988 9.900478,12.655058 2.8276,-20.883787 c 1.352002,1.484506 2.879348,2.990847 4.582784,4.518374 1.773724,1.536128 3.606516,2.740643 5.497195,3.613753 1.960989,0.881743 3.97815,1.307079 6.051054,1.275632 2.072908,-0.03145 4.114216,-0.833768 6.126217,-2.405591 0.90737,-0.708857 1.816919,-1.57719 2.727852,-2.606449 0.941823,-0.989858 1.681271,-2.076109 2.218523,-3.258077 0.537284,-1.181937 0.763335,-2.437455 0.676612,-3.767084 -0.05577,-1.2902 -0.608312,-2.6060348 -1.656972,-3.9464655 z m -1.314823,14.6513056 9.299048,11.8869237 c 0.370098,0.4731082 0.483256,0.8605316 0.339033,1.1637209 -0.10474,0.2723637 -0.314943,0.5322967 -0.63056,0.778848 l -0.652043,0.5074958 c -0.394516,0.308204 -0.974727,0.540545 -1.742923,0.696072 -0.697915,0.164076 -1.27875,-0.04956 -1.741353,-0.640887 l -7.401191,-9.46139997 -9.338926,-1.09011082 z M -32.116885,22.189638 -72.407621,35.278582 -49.1393,65.024303 c 0.03087,0.03917 0.413851,0.12135 1.147608,0.246851 0.764576,0.16466 1.654657,0.327579 2.669588,0.487556 1.054354,0.129054 2.12803,0.242101 3.22188,0.340366 1.124673,0.137651 2.062846,0.199081 2.813808,0.183948 0.07032,0.0089 0.28601,-3.55e-4 0.645931,-0.0267 0.360065,-0.02668 0.738885,-0.0709 1.138381,-0.128779 0.399528,-0.05784 0.779918,-0.09999 1.139955,-0.127287 0.399526,-0.05815 0.654299,-0.09909 0.764044,-0.121041 l -17.718934,-22.648493 4.568951,-1.47341 9.205447,11.768872 14.604458,2.215497 -10.686001,-13.660884 -9.83909,-1.364551 11.927186,-3.888195 14.248515,18.214473 c 0.246553,0.315384 0.947907,0.561908 2.103437,0.739003 1.186358,0.216585 2.4908,0.340989 3.913859,0.372587 1.453916,0.0709 2.862376,0.08246 4.2237549,0.0353 1.4316935,-0.03857 2.5304355,-0.135574 3.2986349,-0.291352 z m 28.9465197,37.002361 -40.2922787,13.088947 11.519117,14.724912 c 2.405559,3.075114 4.789342,5.595438 7.152621,7.560217 2.394168,2.004229 4.915584,3.560353 7.562296,4.668613 2.716967,1.116842 5.625332,1.828962 8.7267272,2.137302 3.1717702,0.31597 6.7034885,0.32035 10.5939659,0.012 v 9.6e-4 c 2.612978,-0.0724 5.0730094,-0.5025 7.3812244,-1.28943 2.3476445,-0.81777 4.2915475,-1.827616 5.8301395,-3.029623 2.011968,-1.571811 3.252885,-3.398134 3.722048,-5.479663 0.469191,-2.081529 -0.222522,-4.305531 -2.072759,-6.670992 z m -1.2810908,14.81535 7.494767,9.579439 c 0.5859981,0.749084 0.7500107,1.445507 0.4925115,2.09131 -0.1875104,0.654417 -0.6165878,1.243852 -1.287263,1.76779 -0.5128348,0.40065 -1.157845,0.71408 -1.93467719,0.939843 -0.77677221,0.22578 -1.57256351,0.46709 -2.38879671,0.723688 -0.6670546,0.204417 -1.3225988,0.302276 -1.9638409,0.294314 -0.6103882,0.03243 -1.1654998,0.05457 -1.6661704,0.06435 -1.3305212,0.08648 -2.8453476,-0.06435 -4.5459632,-0.450772 -1.630361,-0.377793 -3.259829,-0.914738 -4.886568,-1.612911 -1.626739,-0.698224 -3.149636,-1.509116 -4.570501,-2.431662 -1.381432,-0.953381 -2.488929,-1.962101 -3.321628,-3.026536 l -1.202853,-1.537824 z"
         inkscape:export-filename="C:\Users\jmsla\Desktop\RedEyeLogo.jpg"
         inkscape:export-xdpi="329.56567"
         inkscape:export-ydpi="329.56567" />
      <path
         id="path2961"
         style="font-size:25.2996px;line-height:0;font-family:Airstrike;-inkscape-font-specification:Airstrike;letter-spacing:0.0175614px;word-spacing:0.026342px;writing-mode:vertical-lr;stroke-width:1.87718"
         d="m 27.301217,98.143044 -40.292276,13.088976 23.269829,29.74569 c 0.03083,0.0395 0.413946,0.12149 1.14761,0.24685 0.764637,0.16508 1.653145,0.32774 2.668072,0.48755 1.054358,0.12903 2.129604,0.24359 3.223452,0.34192 1.124647,0.13761 2.061248,0.19758 2.812267,0.18246 0.07032,0.009 0.286014,-3.5e-4 0.645902,-0.0266 0.360068,-0.0266 0.740428,-0.0693 1.139924,-0.12732 0.399498,-0.0582 0.778346,-0.10176 1.138412,-0.1287 0.399528,-0.0578 0.654299,-0.0973 0.764074,-0.11959 l -17.7174213,-22.65002 4.5674143,-1.47192 9.207014,11.76739 14.604429,2.21546 -10.687513,-13.66087 -9.83909,-1.36456 11.928727,-3.88663 14.248486,18.21293 c 0.24685,0.3154 0.947935,0.5619 2.103436,0.73899 1.186356,0.2166 2.490829,0.341 3.913859,0.37256 1.453887,0.0711 2.860864,0.0825 4.222212,0.0351 1.431693,-0.0386 2.53198,-0.13555 3.300148,-0.29136 z m 28.483174,36.410546 -11.224498,19.53458 -19.167303,6.20947 8.881749,11.35338 19.168788,-6.20947 31.022374,5.77557 -9.898958,-12.65507 -13.966183,-2.61872 5.082949,-8.73467 z m 30.841314,39.42484 -40.290726,13.08897 23.268301,29.7457 c 0.03083,0.0395 0.413915,0.12286 1.147609,0.24833 0.764608,0.16507 1.654658,0.32623 2.669587,0.48602 1.054359,0.1292 2.128091,0.24357 3.22194,0.3419 1.124643,0.13763 2.062813,0.19911 2.813788,0.18395 0.07035,0.009 0.284208,-9.7e-4 0.644345,-0.0266 0.360102,-0.0266 0.740435,-0.0693 1.13997,-0.12733 0.399534,-0.0578 0.779833,-0.1014 1.139919,-0.12869 0.399534,-0.0578 0.654314,-0.0973 0.76408,-0.11959 l -17.718976,-22.65005 4.568986,-1.47187 9.205455,11.76735 14.604454,2.21548 -10.686018,-13.66085 -9.839082,-1.36458 11.927184,-3.88664 14.248487,18.21445 c 0.246852,0.31543 0.947962,0.56039 2.103452,0.73749 1.18637,0.21659 2.49078,0.34097 3.91382,0.37255 1.45391,0.0711 2.86246,0.0823 4.22384,0.0355 1.43164,-0.0386 2.53039,-0.13556 3.29862,-0.29137 z"
         inkscape:export-filename="C:\Users\jmsla\Desktop\RedEyeLogo.jpg"
         inkscape:export-xdpi="329.56567"
         inkscape:export-ydpi="329.56567" />
      <path
         style="fill:#ff0000;stroke:none;stroke-width:1.63716px;stroke-linecap:butt;stroke-linejoin:miter;stroke-opacity:1"
         d="M -103.79795,6.9657473 V 214.94141 l 65.508304,83.0879 V 140.97729 l 97.598144,74.18563 z"
         id="path2963"
         sodipodi:nodetypes="cccccc"
         inkscape:export-filename="C:\Users\jmsla\Desktop\RedEyeLogo.jpg"
         inkscape:export-xdpi="329.56567"
         inkscape:export-ydpi="329.56567" />
      <path
         id="path2965"
         style="font-size:192px;line-height:1.25;font-family:'Franklin Gothic Medium';-inkscape-font-specification:'Franklin Gothic Medium, ';white-space:pre;fill:#000000;stroke:none;stroke-width:0.695454;stroke-miterlimit:4;stroke-dasharray:none"
         d="m 18.725062,-81.782995 -122.749912,0.01788 65.647236,82.8314016 -0.285125,-28.1726556 61.9108,-0.838662 C 93.061275,-28.889985 51.814694,16.441509 2.490008,54.581182 L 128.49185,214.99119 c 59.86397,0 119.72793,0 179.59191,0 l 26.4754,-62.76173 H 158.02746 L 81.359569,54.065998 c 0,0 39.142741,-27.66542 39.142741,-65.289981 0,-25.199255 -10.02155,-40.091772 -20.14635,-48.944472 C 83.067543,-75.284794 53.913948,-81.788044 18.725122,-81.783592 Z"
         inkscape:export-filename="C:\Users\jmsla\Desktop\RedEyeLogo.jpg"
         inkscape:export-xdpi="329.56567"
         inkscape:export-ydpi="329.56567"
         sodipodi:nodetypes="cccccccccccsscc" />
      <path
         id="path2967"
         style="fill:#000000;stroke:none;stroke-width:1.73824px;stroke-linecap:butt;stroke-linejoin:miter;stroke-opacity:1"
         d="m 86.363066,-81.765406 c 7.970392,3.44405 15.151674,7.777431 21.347454,13.194781 10.98278,9.602891 21.83005,25.981838 23.66565,50.132724 h 154.02557 l 30.12334,-63.327505 z M 116.98193,33.372157 c -6.67285,9.770902 -14.33873,17.356576 -20.126194,22.389384 l 31.560884,40.410664 h 108.1088 l 29.68142,-62.800048 z"
         inkscape:export-filename="C:\Users\jmsla\Desktop\RedEyeLogo.jpg"
         inkscape:export-xdpi="329.56567"
         inkscape:export-ydpi="329.56567" />
      <path
         id="path2969"
         style="font-size:15.5222px;line-height:1.25;font-family:Airstrike;-inkscape-font-specification:Airstrike;letter-spacing:-0.269952px;fill:#ff0000;stroke:#000000;stroke-width:8.90083;stroke-linecap:square;stroke-linejoin:miter;stroke-miterlimit:3;stroke-dasharray:none;paint-order:stroke fill markers"
         d="m -1.3570687,248.07545 c -0.4301463,0.42977 -0.8907039,0.90557 -1.3823232,1.42742 -0.4916809,0.49118 -0.9996184,1.01285 -1.5219765,1.5654 -0.4916517,0.55254 -0.967457,1.12017 -1.4283697,1.70339 -0.4302065,0.55252 -0.7989076,1.07425 -1.1061633,1.56542 H 11.548969 c 0.276813,0 0.414272,0.18364 0.414272,0.55194 0,0.52182 -0.152802,0.93644 -0.460288,1.24342 l -0.185436,0.23144 c 0,0.0305 -0.09168,0.10708 -0.276221,0.22991 -0.184246,0.0923 -0.337369,0.16851 -0.460288,0.22996 -0.2154,0.12285 -0.507318,0.27592 -0.8760482,0.45997 -0.3688194,0.1534 -0.5692346,0.22993 -0.5998829,0.22993 H 0.34761032 c -0.7989041,0 -1.71992832,0.24625 -2.76470462,0.73749 -1.0447455,0.46043 -2.0744199,1.05863 -3.0884281,1.79537 -1.014039,0.70604 -1.9671955,1.47409 -2.8582838,2.30289 -0.8911175,0.8288 -1.5811089,1.57999 -2.0727568,2.25533 -0.553127,0.79809 -0.984577,1.62733 -1.291833,2.48687 -0.307287,0.85948 -0.460261,1.67339 -0.460261,2.44084 0,0.82882 0.198786,1.53413 0.598341,2.11736 0.430205,0.55254 1.09112,0.82947 1.9822665,0.82947 H 11.364989 c 0.491651,-0.46047 1.028695,-1.04335 1.612497,-1.74938 0.614572,-0.70605 1.183719,-1.38231 1.706106,-2.02689 0.553066,-0.64466 1.013623,-1.19696 1.382323,-1.65741 l 0.552354,-0.73749 H -2.0488686 c -0.337993,0 -0.5063057,-0.10707 -0.5063057,-0.32196 l 0.8745023,-1.5194 c 0.1842467,-0.24567 0.4001213,-0.45982 0.64593,-0.64393 0.24566112,-0.21484 0.49215618,-0.32198 0.73799413,-0.32198 H 8.9209775 c 0.8911199,0 1.8748325,-0.23112 2.9503485,-0.69146 1.106191,-0.46048 2.181704,-1.04338 3.226478,-1.7494 1.075514,-0.73674 2.05923,-1.52006 2.950349,-2.34886 0.921855,-0.85956 1.659315,-1.67345 2.212382,-2.4409 0.49168,-0.70602 0.86035,-1.45721 1.106191,-2.25531 0.276814,-0.82885 0.414243,-1.64274 0.414243,-2.44088 0,-0.98228 -0.231125,-1.81152 -0.691949,-2.48687 -0.430175,-0.67535 -1.121708,-1.01191 -2.074301,-1.01191 z m 26.4380957,0 -5.715082,15.65556 h 15.718304 l 4.746973,-4.78974 -4.932613,13.5382 h 8.85104 l 8.895516,-24.40402 h -8.849468 l -3.458197,9.4384 h -9.955691 l 3.456654,-9.4384 z m 48.13066,0 c -0.430202,0.27623 -0.951909,0.73678 -1.56648,1.38143 -0.583832,0.61392 -1.168259,1.25801 -1.752092,1.93338 -0.553095,0.6753 -1.044242,1.28882 -1.474387,1.84136 -0.399467,0.55254 -0.615194,0.89064 -0.645932,1.01344 v 0.046 h 12.398173 l -17.514885,18.1884 h 9.311331 l 24.336137,-24.40405 z m 36.468903,0 -8.89552,24.40402 h 8.8495 l 3.22652,-8.84049 h 12.95205 c 1.04477,0 2.13564,-0.2157 3.27253,-0.64542 1.13695,-0.4298 2.18191,-1.02798 3.13447,-1.7954 0.95259,-0.79813 1.73591,-1.73447 2.35047,-2.80886 0.61457,-1.07437 0.92206,-2.25705 0.92206,-3.54629 0,-0.61395 -0.0765,-1.30396 -0.23024,-2.07135 -0.12286,-0.79814 -0.36924,-1.53558 -0.73799,-2.21086 -0.33796,-0.70605 -0.81377,-1.28896 -1.42837,-1.74942 -0.58383,-0.49117 -1.33813,-0.73593 -2.25994,-0.73593 z m 30.31048,0 -8.89554,24.40402 h 20.23357 c 0.43022,-0.33769 0.96877,-0.84407 1.61404,-1.51942 0.64531,-0.706 1.26035,-1.39754 1.84417,-2.07286 0.58382,-0.70607 1.05963,-1.31953 1.42835,-1.84138 0.39945,-0.52187 0.58302,-0.78348 0.55234,-0.78348 h -14.6106 l 6.63716,-18.18688 z m 25.00968,0 -3.64075,10.22188 c -0.2768,1.0437 -0.55348,1.96474 -0.83003,2.76283 -0.27681,0.76744 -0.49234,1.54919 -0.64592,2.34732 -0.0614,0.42978 -0.10742,0.81381 -0.13813,1.15146 -0.0309,0.33764 -0.046,0.67575 -0.046,1.01343 0,1.22793 0.18513,2.28662 0.55387,3.17681 0.36877,0.85954 0.98377,1.56634 1.84415,2.1189 0.86039,0.55257 2.01241,0.96717 3.45666,1.2434 1.44422,0.24567 3.25719,0.36799 5.4389,0.36799 h 5.39283 c 1.84369,0 3.42563,-0.27682 4.74696,-0.82945 1.3213,-0.58325 2.48866,-1.42777 3.50265,-2.53287 1.01407,-1.10506 1.92129,-2.45446 2.72024,-4.05074 0.79892,-1.62691 1.58223,-3.49955 2.35044,-5.61763 l 4.1486,-11.37333 h -8.75748 l -4.97858,13.67465 c -0.21541,0.42976 -0.50734,0.90555 -0.87606,1.42742 -0.36875,0.52186 -0.79864,1.01294 -1.2903,1.47342 -0.49166,0.46047 -1.05927,0.84447 -1.70452,1.15142 -0.61456,0.30696 -1.29082,0.45997 -2.02829,0.45997 h -2.25837 c -0.70677,0 -1.36769,-0.29077 -1.98225,-0.87396 -0.58384,-0.61389 -0.87607,-1.45844 -0.87607,-2.53283 0,-0.36837 0.0765,-0.85945 0.23024,-1.47341 0,-0.092 0.0305,-0.24505 0.092,-0.45995 0.0613,-0.24567 0.23112,-0.79786 0.50783,-1.6574 0.27682,-0.85952 0.70646,-2.14924 1.2903,-3.86828 0.58386,-1.74972 1.41306,-4.18994 2.48854,-7.32105 z m 30.63417,0 -8.89706,24.40402 h 8.85106 l 4.97707,-13.72217 2.53458,13.72217 h 3.18049 l 12.5378,-13.72217 -4.9786,13.72217 h 8.84949 l 8.89707,-24.40402 h -11.15544 l -11.29203,12.24723 -2.35047,-12.24723 z m 37.73166,0 -8.89708,24.40402 h 21.15717 c 1.62863,0 2.97955,-0.10707 4.055,-0.32197 1.10621,-0.24564 2.04404,-0.59898 2.81226,-1.05946 0.76822,-0.49115 1.39854,-1.11993 1.89017,-1.88734 0.52241,-0.76746 1.01349,-1.68846 1.47443,-2.76284 l 0.18395,-0.50751 c 0.15341,-0.39904 0.30815,-0.81364 0.46184,-1.24344 0.1534,-0.42972 0.23022,-0.85965 0.23022,-1.28943 -0.0305,-0.61395 -0.18513,-1.16625 -0.46179,-1.65738 -0.27682,-0.52187 -0.58253,-0.92118 -0.92055,-1.19742 0.36875,-0.18426 0.76805,-0.45952 1.19824,-0.82795 0.46092,-0.39902 0.87556,-0.84427 1.24427,-1.33543 0.39948,-0.52184 0.7223,-1.07413 0.96812,-1.65739 0.27681,-0.58322 0.41421,-1.18143 0.41421,-1.79537 v -0.092 c 0,-0.85955 -0.0765,-1.70406 -0.23021,-2.53288 -0.12286,-0.8288 -0.36923,-1.55091 -0.73802,-2.16485 -0.33795,-0.61396 -0.81377,-1.10504 -1.42833,-1.47341 -0.58384,-0.39909 -1.33657,-0.59796 -2.25842,-0.59796 z m 31.04688,0 -8.89554,24.40402 h 8.84953 l 8.89552,-24.40402 z m 10.72129,0 -8.89554,24.40402 h 8.84953 l 4.97858,-13.72217 2.58059,13.72217 h 11.15396 l 8.89708,-24.40402 h -8.75747 l -5.02464,13.72067 -2.62663,-13.72067 h -5.0245 z m 37.0412,0 c -1.62863,0 -3.16621,0.4146 -4.61041,1.24344 -1.44421,0.7981 -2.71862,1.84152 -3.82489,3.13081 -1.10621,1.28927 -1.98287,2.71664 -2.62812,4.28221 -0.64532,1.56555 -0.96658,3.08479 -0.96658,4.55822 0,2.21019 0.42989,4.0369 1.2903,5.47969 0.89112,1.44273 2.05846,2.59325 3.50268,3.45277 1.4442,0.82884 3.07204,1.41173 4.88503,1.7494 1.81291,0.33765 3.67335,0.50748 5.57848,0.50748 h 6.86724 l 5.76111,-15.19558 H 316.9689 c -0.4302,0.33765 -0.92131,0.82875 -1.47442,1.47341 -0.52237,0.61393 -1.03029,1.24431 -1.52195,1.88889 -0.49162,0.61396 -0.92156,1.18155 -1.2903,1.70341 -0.33808,0.49108 -0.52163,0.78175 -0.55233,0.8739 v 0.046 h 5.20721 l -1.06013,2.9928 h -2.71868 c -0.55315,0 -1.12227,-0.18366 -1.7061,-0.55196 -0.55307,-0.36837 -1.07479,-0.82883 -1.56645,-1.38139 -0.46094,-0.55257 -0.84496,-1.15077 -1.15223,-1.79539 -0.27654,-0.67534 -0.41578,-1.3041 -0.41578,-1.88738 0,-0.46044 0.12372,-1.09081 0.36975,-1.88891 0.18425,-0.52185 0.42918,-1.04355 0.73647,-1.56541 0.30727,-0.55254 0.64539,-1.04366 1.01412,-1.47339 0.39945,-0.42977 0.83092,-0.76789 1.29182,-1.01346 0.46095,-0.27621 0.93676,-0.41397 1.4284,-0.41397 h 11.98395 c 1.07548,-0.92091 2.05927,-1.88783 2.95035,-2.90081 0.92186,-1.04372 1.82757,-2.14829 2.71866,-3.31479 z m -195.95027,6.26163 h 9.44942 c 0.0614,0 0.19877,0.13778 0.4142,0.41394 0.24594,0.24565 0.4157,0.44598 0.50784,0.59949 v 0.092 c 0.0306,0.0613 0.0599,0.10707 0.0905,0.13795 l -0.0905,0.22994 c -0.0305,0.0923 -0.10844,0.22995 -0.23172,0.41397 -0.0923,0.15339 -0.19907,0.32329 -0.32216,0.50747 -0.12285,0.18426 -0.24537,0.35243 -0.36819,0.50596 -0.0923,0.12286 -0.15341,0.18393 -0.18397,0.18393 h -7.37507 l -4.42476,3.91428 z m 123.68595,0 h 9.44788 c 0.0613,0 0.20054,0.13778 0.41573,0.41394 0.24596,0.24565 0.41416,0.44598 0.50631,0.59949 v 0.092 c 0.0305,0.0613 0.0616,0.10707 0.092,0.13795 l -0.092,0.22994 c -0.0305,0.0923 -0.10708,0.22995 -0.22992,0.41397 -0.0923,0.15339 -0.19937,0.32329 -0.32222,0.50747 -0.12285,0.18426 -0.24656,0.35243 -0.36973,0.50596 -0.0923,0.12286 -0.1534,0.18393 -0.18396,0.18393 h -7.3751 l -4.42478,3.91428 z m -184.980415,2.94681 -6.591127,6.21713 H 58.98774 l 6.5911,-6.21713 z m 181.845935,5.84764 h 10.60011 c 0,0.21482 -0.0138,0.43058 -0.0458,0.64546 0,0.2148 -0.0305,0.36787 -0.092,0.45997 l -0.092,0.22994 c -0.0305,0.0305 -0.10707,0.16833 -0.23023,0.41392 l -0.18395,0.32353 c -0.0923,0.0923 -0.23023,0.19938 -0.41424,0.32198 -0.18455,0.0923 -0.36941,0.19936 -0.55387,0.32196 -0.18425,0.0923 -0.35257,0.18395 -0.50631,0.27594 l -0.23025,0.092 h -9.44937 z"
         inkscape:export-filename="C:\Users\jmsla\Desktop\RedEyeLogo.jpg"
         inkscape:export-xdpi="329.56567"
         inkscape:export-ydpi="329.56567"
         sodipodi:nodetypes="cccccsscccccssccscsscscccccscccsscccccsccccccccccccccccccccccccccccccsscsscccscccccccsccccccccscscsscscccccsscsscsccccccccccccccccccccccsccccccccccccsscccsccccccccccccccccccscsssccssccccccccccscccsccccscccscsccccccccsccccsccccccscsccccccccccccccccccccc" />
    </g>
  </g>
</svg>
