<?xml version="1.0" encoding="UTF-8" standalone="no"?>
<svg
   sodipodi:docname="redeyenj.svg"
   inkscape:version="1.1 (c68e22c387, 2021-05-23)"
   sodipodi:version="0.32"
   id="svg2"
   viewBox="-8038 -13966 5000.0002 9465.3629"
   height="946.53625"
   width="500"
   version="1.1"
   xmlns:inkscape="http://www.inkscape.org/namespaces/inkscape"
   xmlns:sodipodi="http://sodipodi.sourceforge.net/DTD/sodipodi-0.dtd"
   xmlns="http://www.w3.org/2000/svg"
   xmlns:svg="http://www.w3.org/2000/svg"
   xmlns:rdf="http://www.w3.org/1999/02/22-rdf-syntax-ns#"
   xmlns:cc="http://creativecommons.org/ns#"
   xmlns:dc="http://purl.org/dc/elements/1.1/">
  <metadata
     id="metadata73">
    <rdf:RDF>
      <cc:Work
         rdf:about="">
        <dc:format>image/svg+xml</dc:format>
        <dc:type
           rdf:resource="http://purl.org/dc/dcmitype/StillImage" />
      </cc:Work>
    </rdf:RDF>
  </metadata>
  <defs
     id="defs71">
    <filter
       id="mask-powermask-path-effect12944_inverse"
       inkscape:label="filtermask-powermask-path-effect12944"
       style="color-interpolation-filters:sRGB"
       height="100"
       width="100"
       x="-50"
       y="-50">
      <feColorMatrix
         id="mask-powermask-path-effect12944_primitive1"
         values="1"
         type="saturate"
         result="fbSourceGraphic" />
      <feColorMatrix
         id="mask-powermask-path-effect12944_primitive2"
         values="-1 0 0 0 1 0 -1 0 0 1 0 0 -1 0 1 0 0 0 1 0 "
         in="fbSourceGraphic" />
    </filter>
    <clipPath
       clipPathUnits="userSpaceOnUse"
       id="clipPath13373">
      <path
         id="path13375"
         style="fill:#999999;stroke:none;stroke-width:4.55379;stroke-miterlimit:4;stroke-dasharray:none"
         d="m 9.1068754,-163.40798 -0.8908153,1.41503 -1.0619632,1.16632 -2.0262681,1.75983 -2.516968,1.46266 -1.2716839,0.80877 -0.3078639,0.21819 -1.75774818,0.18459 -1.91606262,0.16058 -1.4372814,0.50988 -1.7965339,0.39451 -1.7068543,0.52105 -1.543665,0.81655 -1.1575096,0.7741 -0.823937,0.7227 -1.06782,0.24804 -0.831004,0.12903 -1.011574,0.8531 -0.675083,0.8022 -0.802354,1.2136 -0.631454,0.86377 -1.497256,2.76729 -0.811319,1.26619 -1.008656,0.8536 -1.01761,0.90621 -0.920176,0.65216 -0.539326,1.25843 -0.494487,0.99539 -0.142979,0.83878 -0.372535,1.2327 -0.823229,0.40103 -0.96382,0.59057 -1.235816,0.59835 -1.316523,1.07181 -1.534711,0.76393 -1.796017,1.04422 -1.235801,0.59835 -1.900045,0.70165 -0.983966,0.37363 -0.813776,0.34548 -3.022862,1.58994 -0.711967,0.36583 -3.825771,1.23654 -3.54702,0.854 -2.845742,0.21566 -0.68215,0.20853 -1.270491,0.48415 -1.996272,0.63113 -2.418312,0.884 -2.852983,0.59335 -3.46752,0.70515 -2.507502,1.40713 -2.182895,1.40832 -0.862012,0.61093 -2.680338,1.48593 -2.123043,1.03959 -1.514342,0.66214 -0.941046,0.75688 -0.352439,1.44968 -0.107606,0.63126 -0.168749,0.67198 -0.151945,0.89137 -0.212802,0.61335 -0.932756,1.02594 -1.106106,1.10768 -0.78269,1.43346 0.473304,1.96939 0.174563,0.24628 0.835668,1.11387 0.872247,0.58176 0.740634,0.71873 1.815538,1.06435 1.004357,0.44187 0.643186,0.97279 0.347208,1.138864 -0.0055,1.620085 -0.17885,1.049208 0.02796,1.406238 0.302369,1.401909 1.0884,3.42457 0.347208,1.138865 1.043005,2.120622 1.234157,4.474971 1.729185,5.046571 1.11941,2.942655 0.738235,1.367927 0.852409,1.333263 1.029374,0.930338 0.915874,0.643338 0.861395,1.28064 0.842236,1.710465 0.457771,1.425381 0.19597,1.708566 0.139731,2.020789 0.204228,1.977642 -0.189731,1.748082 0.254617,1.664423 0.214387,1.600439 0.788449,2.026092 0.659219,1.51386 0.121951,0.237318 0.996442,2.05856 0.875027,2.470924 1.598422,2.973171 0.716497,2.765708 0.313086,2.59168 -0.28709,2.002157 -0.835288,1.424511 -0.713386,1.009197 -1.366202,1.06334 -0.949997,0.809476 -1.063653,1.493849 -0.697143,1.231514 -0.631439,0.863778 -1.043337,0.739441 -1.137657,0.0226 -1.058187,-0.126179 -1.302044,-0.6009 -0.373094,-0.334269 -0.604376,-0.265428 -1.275657,-0.75579 -1.624927,-0.276988 -1.617167,-0.005 -1.708085,0.19305 -0.892566,0.172662 -0.973979,0.967779 -0.837724,1.421093 -0.17998,1.373811 0.302386,1.401896 0.615576,1.45228 0.861392,1.280654 0.834475,1.438472 0.816541,1.54368 0.06799,2.441621 -0.186533,0.777212 -0.20575,1.207013 -0.114944,0.356339 -0.889108,1.740148 -0.670225,1.073697 -1.365704,1.060423 -1.010881,0.531429 -0.735455,0.5212371 -0.849631,0.5559142 -1.025897,0.6371354 -0.254755,0.2242419 -0.793385,1.1609836 -0.887897,1.4155279 -0.441893,1.0043693 -1.107993,1.7539587 -1.669915,1.8747024 -2.2367,1.72396255 -0.911208,0.59954252 -1.779805,0.61388523 -1.740312,0.082294 -1.482115,0.7728953 -0.965013,0.9151818 -1.237009,0.9229571 -0.984142,1.3450124 -1.091781,1.3236307 -1.088172,1.0024683 -0.700778,0.6354131 -0.255267,0.2271572 -0.629539,0.2174985 -0.210431,-0.035871 -1.181303,-0.038962 -1.258412,-0.539323 -1.7462,-0.835999 -0.2451,-0.1500293 -1.53525,-0.8030438 -1.78982,-0.8975736 -1.82813,-0.6905629 -1.84313,-0.5848548 -1.30324,-0.2763551 -0.26909,0.00833 -1.39174,-0.074832 -1.2358,0.5983521 -0.95604,0.8625702 -0.68749,0.8572429 -0.49155,0.9958885 -0.53105,1.5274945 -0.75872,1.2751571 -1.05419,1.43832 -1.31771,1.396401 -1.62804,0.693896 -1.67339,0.307229 -2.73516,1.154781 -1.92763,1.181166 -0.79822,0.889488 -0.37135,0.908114 0.1751,1.813275 0.53971,1.279944 1.7407,2.456099 0.425,0.664909 0.78306,1.104896 0.47036,1.051594 0.55352,1.498844 0.202,1.65547 -0.53589,1.255998 -1.0535,1.11663 -0.66126,1.021101 -0.35341,0.802906 -0.38029,0.960713 -0.64939,0.968999 -0.159,0.297693 -0.98175,0.695797 -1.32549,1.124405 -1.40569,1.594949 -2.12974,2.98428 -1.58573,2.968732 -1.37652,3.329222 -0.86409,2.228595 -0.15081,0.566771 0.1206,2.450604 0.35498,1.410862 1.03422,1.201833 1.67736,1.257342 1.98352,0.714047 2.1498,0.691271 1.5801,0.540016 0.80997,0.947079 0.25684,1.98661 -0.53155,1.530428 -0.80305,1.535254 -1.46245,0.992792 -1.28961,0.913992 -1.58852,1.079584 -1.63166,1.015071 -1.63043,1.343094 -1.12575,0.887797 -1.09006,1.648735 -0.5352,0.934324 -0.44307,1.328965 -0.27635,1.303242 0.0842,1.094029 0.68802,0.709761 0.54575,1.22685 0.42742,0.668324 0.70286,1.57544 0.21028,1.924533 0.0304,1.409669 -0.0947,2.143222 -0.32492,2.858858 -0.23152,1.040214 -0.84719,1.476623 -0.63025,0.539171 -0.37839,0.314434 -0.86568,0.01484 -1.4014,0.299453 -0.92845,0.383076 -0.44187,1.004357 -0.22369,1.312236 0.19836,1.059352 0.0549,1.248433 0.0849,0.772356 0.78117,1.75118 0.3388,2.75847 0.12283,2.77277 0.1463,2.61738 -0.24945,1.14542 -0.16092,0.94399 -0.99572,2.36557 -0.66365,1.6703 -0.27586,1.30032 -0.14348,0.8417 0.72427,3.0377 1.88835,2.86021 1.90091,1.83378 1.70206,0.77734 1.77188,1.00278 2.35127,0.77974 2.25739,0.06 2.26829,-0.63889 1.54368,-0.81655 1.7165,-0.89536 1.53471,-0.76393 1.2884,-0.58938 1.70636,-0.51814 0.87756,-0.067 2.17497,0.20835 3.66349,1.00343 3.41769,1.17505 0.24216,0.14953 3.31904,1.75373 2.38112,1.53971 1.60614,1.67526 1.06282,1.36913 0.63422,1.02539 1.32055,2.06267 2.045464,3.20877 2.086186,3.26986 1.577529,2.16062 1.093892,1.80448 1.575111,2.15719 0.589901,1.93812 0.0423,2.27485 0.0028,1.88917 -0.709898,2.57668 -0.4115,2.41403 -0.629691,2.10616 -0.616751,3.61812 -0.0593,1.93572 0.0226,1.13768 -0.117993,1.32723 -0.603602,4.81133 -0.813534,4.77252 -0.329046,3.18296 -0.415209,1.81791 -0.990167,2.31539 -0.486711,1.26738 -1.641444,3.93067 -0.739737,1.81673 -0.85616,1.52922 -0.83599,1.74618 -0.3207,1.56335 -0.58416,1.52146 -0.1955,0.82981 -0.021,1.0761 -0.0588,1.9328 0.17441,2.13497 0.45607,1.7529 0.32738,1.89037 0.20251,1.65254 0.0514,0.33357 -0.13402,0.78617 0.0787,2.71411 -0.003,2.53788 0.19647,1.70565 0.23303,1.17354 1.01748,0.98245 1.124399,1.32549 0.995391,0.49447 1.432284,1.1073 1.244629,1.23772 1.001263,1.41276 0.915182,0.96501 1.404176,1.58971 1.683429,1.20424 1.47369,0.84669 1.356364,0.28233 2.231204,-0.10387 1.445539,-0.2408 2.483539,-0.33152 3.163765,-0.81105 1.318979,-0.1511 1.357057,-0.0393 1.286527,0.0569 0.368235,0.0628 1.115616,0.40671 1.696504,0.82752 1.542335,1.39673 1.012132,0.71387 0.960018,0.70199 1.761734,1.37999 0.810667,0.6254 1.318095,1.14196 1.203919,1.17664 0.171628,0.2458 0.896055,1.39483 0.486398,1.59266 0.649755,1.56938 0.587481,1.93471 0.604224,2.15409 0.716014,2.76863 0.698563,2.87091 0.669833,5.24493 0.217723,5.05659 -0.22401,4.17226 0.04627,3.8394 0.1601,1.919 0.788946,2.02317 1.46092,2.19186 35.956345,2.5112 -1.99325,-19.34096 30.4918134,-0.57665 0.2921237,-17.87475 27.8929049,0.11415 0.57074,1.71531 2.157341,10.13902 0.473304,1.96938 1.15812,6.1913 1.00214,3.94822 1.247791,5.66524 1.093392,1.80741 29.36457,-5.36121 3.297639,0.29145 11.093786,4.59177 0.39189,2.76452 0.290488,1.45399 -0.04982,1.88021 -0.357695,2.09839 -4.87532,12.77474 -1.691655,3.27248 -0.710395,2.57961 0.739112,3.90338 -0.285401,3.24453 0.168358,2.18807 3.297641,0.29144 2.414026,0.4115 1.619447,1.89709 2.221771,4.69746 3.16363,1.0776 2.061322,0.89274 0.59835,1.23581 1.4411,2.94335 7.709749,6.71264 1.43163,2.99888 1.97215,1.41585 2.6819,0.72784 3.37405,1.11348 0.79393,0.40601 0.83393,-0.12852 2.03095,-0.51693 1.7146,-0.24909 1.75347,1.11093 0.72736,2.06682 2.67207,2.0735 2.3242,2.82622 1.84314,0.58485 2.63223,0.71939 2.06182,0.88978 0.91518,0.96503 3.0262,1.8662 1.449,1.32668 -0.0498,1.8802 -3.24765,9.54248 4.16798,1.51949 0.48123,0.35272 3.46029,0.58985 1.31999,0.49568 0.69699,0.65714 1.05697,0.45085 12.19872,-5.0483 15.87324,-5.71514 1.75895,-0.50918 0.26302,0.0448 0.30786,-0.21819 1.55765,-2.48632 0.26852,-1.57525 0.30444,-0.21577 0.35271,-0.48124 0.0892,-0.52312 49.09271,-38.43685 14.50039,-10.64683 9.51768,-7.06919 2.5087,-1.73174 0.3522,-0.47828 0.26011,0.0443 0.59035,-3.46324 1.70278,-8.40133 0.67952,-3.98636 0.0367,-0.53209 4.88887,-4.29738 2.20432,0.0539 3.43162,-0.49471 1.32271,-3.01357 -3.33405,-1.64802 -5.38143,-4.21051 -4.64371,-3.49228 -3.46308,-2.47903 -1.89994,-6.58541 0.26576,-3.46443 -6.50981,-7.10055 -4.87225,-2.45157 -4.83959,0.8502 -3.62459,5.10236 -2.28772,3.92875 -2.25756,1.82867 -6.84762,-0.35523 -3.38132,-1.38841 -2.23225,-1.46019 3.6531,-2.12913 2.98993,-1.37902 4.13363,-1.45473 3.13339,-2.22073 3.83418,-2.85613 1.54987,-2.75833 1.98264,-1.8214 2.76623,-0.0668 3.51291,0.59882 4.03397,2.30566 2.75832,1.54986 1.66428,1.63407 1.1805,2.90193 1.04418,1.79602 2.10615,0.62969 1.80928,-2.3923 0.44687,-2.62152 0.10364,-2.19584 0.83891,-1.7457 0.62073,-2.05355 1.10849,-1.75687 1.4595,-1.91057 1.88519,-1.56735 1.46848,-1.96319 0.62072,-2.05355 -0.39191,-2.7645 0.10913,-3.81593 1.01776,-2.79488 1.50434,-2.17362 2.47005,-3.41046 3.3923,-1.85178 2.33882,-0.73514 2.5032,-0.11164 3.86561,0.1176 1.58024,-1.34866 1.8184,-4.33356 1.74197,-5.15562 1.93795,-3.44703 1.63954,-3.28437 0.13401,-0.78616 0.55101,-4.82029 0.31834,-3.45546 1.24993,-4.15679 1.23854,-4.10762 1.37943,-3.32871 2.25116,-3.39666 2.29897,-2.08926 2.72738,-1.42679 3.29486,-1.59771 4.18195,-0.15029 2.63221,0.71936 3.34747,-1.58874 1.71476,-2.13775 2.69651,-2.83352 2.95661,-2.78919 1.23595,-2.48703 0.66265,-2.31708 1.55765,-2.48632 -5.0327,-6.25629 -5.58265,0.12805 -13.87447,-2.85227 -2.01699,-1.15283 -1.33454,-5.13871 -1.73401,-4.40077 -4.95693,-3.54268 -8.81425,-3.39118 -8.59836,-4.97542 -5.79035,-3.41707 -2.982,-0.23764 -3.12997,2.2183 -4.04738,0.93109 -2.71348,-1.81289 -2.75831,-1.54987 -1.75396,-1.10799 -2.81592,0.0583 -1.44124,-1.05469 -6.29939,-7.064698 -4.28859,-3.970081 -5.09044,-2.759433 2.65167,-2.5705 0.97001,-2.532349 0.57589,-1.790537 1.75945,-0.512092 1.24478,-0.650961 0.44188,-1.004357 -1.32,-0.49568 -1.27274,-0.755292 -1.92731,-1.678884 -1.31222,-0.223684 -1.01263,-0.710953 1.01762,-0.906214 1.66992,-1.874717 0.27749,-1.62786 -0.60232,-2.800372 0.62072,-2.05355 2.33603,-2.624304 1.39542,-8.186076 2.86091,-2.210022 1.94675,-1.610981 3.11601,-0.548519 1.10746,-3.320947 1.2896,-0.913991 3.15537,0.808541 1.54075,-0.817041 1.62559,-1.61459 0.44687,-2.621539 0.67453,-2.369189 2.11663,-2.607563 1.07658,-4.727683 0.92859,-2.271757 -0.6377,-2.592872 1.80101,-2.661366 0.88376,-2.008728 2.13402,-4.27976 -0.17385,-0.567974 -2.4168,-2.300677 -2.2766,-1.200085 -0.2939,-1.451587 0.71039,-2.579606 -1.08839,-3.4245849 3.29185,-7.91391291 -0.2574,-3.55360149 1.50092,-2.1711777 1.58971,-1.4041763 3.34198,0.031341 1.79879,0.8449646 0.52057,1.7097573 0.38912,0.8753404 2.19584,0.1036355 1.75895,-0.5091745 1.98056,-0.203731 1.58011,0.5400186 1.04919,0.1788475 1.58011,0.5400186 0.17385,0.5679738 0.65165,0.9230945 0.12903,0.83100156 0.53383,0.36166845 1.7988,0.84496467 0.43346,0.61524552 -0.13401,0.7861653 0.0752,1.1466409 1.49385,1.0636535 3.82147,0.058937 1.24131,-2.2184344 1.75957,-2.4007754 0.54002,-1.580106 1.15164,-1.6923789 -0.35498,-1.4108615 -0.91519,-0.9650129 -1.27222,-0.7582225 -1.26739,-0.4867115 -2.01698,-1.1528286 -1.4461,-1.3261839 -0.66284,-1.1926693 -1.07166,-3.205186 0.31286,-1.835373 1.05498,-1.441249 2.56749,-3.664529 2.1706,-4.811881 1.2863,-4.37014 -0.54854,-3.116013 -0.18161,-0.839967 1.33096,-2.744492 -0.20956,-2.246221 -0.68602,-3.897336 -0.61508,-1.455198 -2.63271,-0.716445 -2.151,-0.366664 -0.60734,-1.183207 0.13452,-0.789098 0.49519,-1.317061 1.36255,-1.659443 1.89297,-1.29534 -0.0751,-3.035307 -0.6915,-2.277233 -2.27951,-1.200598 -4.43651,0.05577 -1.7933,-2.465065 -3.20796,-0.817507 -3.94152,-0.942549 -0.91506,-2.853679 -1.27515,-0.758722 -2.7219,-0.193293 -2.62929,-0.718881 -1.36483,-0.232652 -0.46782,-3.589455 -0.17871,-0.839472 -1.92795,0.212699 -1.5801,-0.540019 -3.47649,0.757742 -3.50756,-0.330237 -1.36191,-0.232155 -2.89574,-0.761281 -1.96924,-1.415359 0.006,-1.620085 -2.35509,-4.232986 -2.19034,-1.723706 -1.49385,-1.063653 -2.2771,-1.197168 -1.88797,-0.321827 -1.76256,0.830352 -1.1073,1.432269 -0.7049,0.959521 -2.32985,0.682529 -1.75396,-1.107992 0.3577,-2.098371 1.10729,-1.432284 1.41586,-1.97215 0.79408,-1.482659 -0.47331,-1.969369 -3.39878,-6.031919 -1.53028,-2.420213 -1.40418,-1.589708 -2.23226,-1.46019 -5.58278,2.01671 -6.86158,1.314533 -2.15891,1.250006 -1.58558,1.080084 -1.27289,1.133371 -1.90485,1.347454 -1.4019,0.302371 -1.27224,-0.75821 -0.29325,-3.343182 1.02261,-2.523377 3.31446,-6.77626 1.98263,-1.82139 0.5709,-0.17336 0.84774,0.0903 1.53592,-1.08854 1.10679,-1.42935 1.05469,-1.44125 -0.0813,-1.09353 -0.0332,-3.29883 -2.57447,-4.21625 -4.03347,-2.30857 -9.15771,6.86288 -5.16037,4.30224 -2.90575,2.47305 -5.77317,4.73912 -0.7575,0.95055 -0.62128,0.48658 -25.69593,21.207368 -0.92068,0.655087 -0.96451,0.912264 -0.97329,0.646104 -0.66006,0.696493 -3.43784,2.436488 -16.36243,14.918827 -0.61523,0.433465 -0.26852,1.575249 0.52106,1.706854 0.70476,0.929145 0.82551,1.491068 0.16439,0.623503 0.0369,1.353642 -0.31335,1.838276 -0.0365,0.532117 -1.28614,2.481477 -1.67889,1.927314 -0.30445,0.215771 -0.36047,0.209223 -4.17362,1.989273 -1.2867,0.914471 -0.3522,0.478302 -0.74974,1.222563 0.30237,1.401893 0.17385,0.567974 -0.48671,1.267385 -0.30737,0.215274 -0.56797,0.173852 -1.09403,0.08418 -0.31564,-0.0538 -0.57986,0.225967 -1.53249,1.086116 -0.9762,0.645607 -4.74887,1.888212 -7.9556,1.398713 -3.42338,0.763792 -3.79831,2.645712 -2.36969,-0.67161 -0.56248,-1.446232 -0.25684,-1.98661 -0.16545,-2.187562 -1.530263,-2.420228 -2.408533,-2.031584 -2.195834,-0.103636 -1.709123,-1.37102 -0.335321,-1.190979 -1.27516,-0.758708 -1.624942,-0.276991 -2.473323,1.524225 -1.709259,0.517645 -2.329846,0.68253 -1.88797,-0.321827 -3.909951,0.142511 -20.643316,-34.721426 -5.107757,-9.291601 -8.19384,-15.270198 -2.13154,-3.65655 -0.652154,-0.92017 -2.363559,-4.18328 -2.042365,-4.17968 -1.049056,-2.06751 -4.269135,-7.25995 -12.916097,-23.36528 -0.659914,-1.19217 -4.050956,-6.9521 z" />
    </clipPath>
  </defs>
  <sodipodi:namedview
     inkscape:current-layer="layer3"
     inkscape:window-y="-8"
     inkscape:window-x="1912"
     inkscape:cy="481.10527"
     inkscape:cx="251.55206"
     inkscape:zoom="0.52275461"
     inkscape:window-height="1017"
     inkscape:window-width="1920"
     inkscape:pageshadow="2"
     inkscape:pageopacity="0.0"
     borderopacity="1.0"
     bordercolor="#666666"
     pagecolor="#ffffff"
     id="base"
     inkscape:pagecheckerboard="0"
     showgrid="false"
     fit-margin-top="0"
     fit-margin-left="0"
     fit-margin-right="0"
     fit-margin-bottom="0"
     inkscape:window-maximized="1" />
  <clipPath
     id="state_clip_path">
    <g
       id="state_outline">
      <path
         d="m -520,-13966 387,242 370,229 576,347 1059,656 226,150 130,87 280,186 72,46 66,35 708,397 71,40 105,56 502,271 1086,634 203,123 138,76 663,379 35,19 67,12 -22,174 -23,92 -56,227 -33,135 -58,222 -34,131 -50,135 -54,155 -14,41 -106,279 -115,268 -13,29 -50,117 -57,110 -66,116 -15,26 -44,79 -71,128 -43,82 -37,50 -25,49 -10,55 -15,76 -3,16 -28,130 -35,216 -22,127 -1,6 -64,-12 -16,31 -10,20 -46,40 -20,15 -26,41 -31,50 -30,5 h -57 l -25,11 -16,35 -10,60 -56,41 h -51 l -41,20 26,40 41,20 61,25 26,51 -26,20 -31,-10 -30,-10 -31,-10 -82,-30 -41,-10 -26,45 16,30 41,31 15,35 -36,20 -30,-5 h -36 l -46,-5 h -72 l -41,25 -56,6 -16,-15 v -21 l 10,-40 16,-60 20,-51 20,-60 46,-76 41,-20 46,-71 46,-70 21,-61 v -35 l -11,-96 h -51 l -51,16 -26,5 -46,30 -41,40 -15,46 -15,40 -31,60 -56,46 -46,45 -21,51 -5,45 -15,50 -46,61 -41,61 -25,45 -57,40 -51,-5 -77,16 -56,40 -46,35 -36,46 -31,70 -15,66 -10,80 -10,81 5,65 5,91 v 15 l -20,66 -25,70 -16,101 -20,86 -25,30 -72,10 -46,10 -41,21 -57,45 -35,71 -21,45 -10,55 10,71 16,50 -5,40 -21,41 -30,35 -21,40 -15,36 -5,40 -10,35 5,41 v 50 l -26,50 -41,-5 -25,-30 -31,-50 -36,-25 -56,-20 -82,-30 h -67 l -51,10 -31,40 -20,56 -62,65 -51,51 -72,40 -51,35 -61,51 46,20 67,15 128,-15 36,-41 30,-80 51,-106 87,-31 98,30 143,111 6,65 56,116 72,35 97,50 113,61 67,20 56,15 67,50 15,45 -10,36 -20,20 61,-5 108,-66 56,-111 46,-55 41,30 72,60 92,15 h 77 l 46,-56 15,-5 h 47 l 66,40 62,46 46,35 82,15 118,45 97,60 57,50 77,45 41,36 77,20 66,10 52,30 82,15 184,24 72,30 36,51 31,50 41,45 5,51 6,65 10,55 -5,41 h -31 l -15,-20 -26,-25 -21,-15 -20,-31 -62,-10 -41,-20 -46,21 -20,25 -36,30 -41,35 -26,5 -35,16 -26,25 -15,30 -52,15 -46,16 -46,40 -82,50 -20,36 10,50 36,20 41,-20 31,-40 41,-31 51,-40 h 26 l 61,-5 26,-10 25,-56 36,-25 51,-10 46,-31 67,5 46,15 46,20 52,20 10,31 -5,70 -21,56 -51,45 -66,30 -41,36 20,30 -15,35 -66,25 -47,-15 h -36 l 6,31 25,35 16,45 -21,40 v 36 l 16,20 h 31 l 15,-15 15,-31 26,-35 36,10 10,25 41,10 20,-35 6,-15 20,-30 -10,-46 30,-20 36,5 h 36 l 36,-76 20,-70 10,-66 16,-90 -11,-71 -5,-101 v -45 l -10,-45 -6,-35 v -26 l -10,-70 v -50 l -26,-66 -57,-126 -46,-115 v -35 l 20,-41 v -40 l -36,-35 -25,5 h -36 l -56,-10 -6,-61 v -50 l -5,-35 -20,-50 -42,-26 v -30 l 26,-20 41,-15 26,20 46,30 25,15 57,76 26,45 25,70 31,91 16,60 25,35 1,61 10,96 21,85 5,76 5,75 21,55 5,16 10,25 -5,75 v 86 l -10,91 -15,120 v 126 l 21,106 -10,60 -5,21 -20,95 -41,71 -21,75 -5,111 6,61 5,90 -20,126 -26,91 -15,75 -41,111 -36,71 -20,45 -26,71 1,75 v 111 l -26,76 -41,95 -20,86 -36,20 -41,5 -56,-25 -21,-20 -25,-35 h -41 l -11,25 -20,36 -46,5 -26,-20 -41,-36 -46,-10 -21,41 6,30 25,25 57,55 77,30 72,10 56,-20 56,-30 26,5 20,30 -5,60 -10,56 -30,116 -16,80 -30,116 -10,126 v 106 l -5,105 -51,56 -67,-5 -36,-15 -25,-10 -21,15 -56,30 -72,36 -51,10 -31,-25 -25,-30 -47,-30 -36,-71 -20,-55 -11,-35 -20,15 -15,30 20,136 16,70 61,66 52,5 82,30 66,-21 72,-50 92,-15 72,14 36,21 5,5 16,25 v 55 l 5,71 -5,65 -20,101 -21,75 -20,66 -36,85 -20,51 -21,75 -20,56 -20,111 5,55 5,101 -41,161 -15,201 -25,116 -20,91 -21,75 -15,106 -25,136 -21,96 -5,136 -25,171 5,100 6,91 -11,86 -25,90 -15,91 -10,60 v 81 l -15,91 -16,45 -15,55 -10,81 v 191 l -10,61 -15,50 -10,40 -21,30 -5,26 -10,5 -31,5 -26,-35 -20,-16 -36,-4 h -26 l 5,-31 5,-20 21,-15 36,15 31,5 25,-40 v -46 l -15,-40 -16,-50 5,-50 v -31 l 15,-35 31,-75 26,-71 v -40 l -1,-101 -5,-96 5,-85 15,-86 16,-100 4,-81 -5,-50 v -81 l 5,-45 10,-71 10,-75 11,-86 15,-85 15,-31 15,-35 26,-45 15,-56 10,-60 -5,-50 -20,-46 -31,-30 -16,-25 -5,-40 21,-20 36,-31 25,-75 15,-71 16,-70 5,-76 25,-80 10,-46 31,-70 15,-46 15,-45 11,-80 -6,-41 V 761 l -5,-65 v -55 l 20,-56 16,-55 15,-30 5,-26 -10,-5 -67,-15 -31,21 -41,30 -30,20 -52,35 -41,16 -51,20 -61,-20 -67,-10 -92,-15 -47,-50 -56,25 -5,45 31,30 51,5 26,31 31,25 51,-11 h 51 l 21,31 56,-21 56,-25 72,-15 57,10 5,45 -5,20 -10,61 -21,35 -72,55 11,56 -26,75 -56,5 -36,6 -21,-31 -10,-45 -31,-25 -46,15 -36,-10 -31,-15 -41,-30 -36,-50 -30,-30 h -41 l -31,30 5,20 21,15 46,40 20,25 -51,66 11,30 25,5 h 103 l 61,20 31,25 21,30 -16,41 -30,10 -26,-10 -21,-15 -30,30 -16,20 h -46 l -46,-15 -46,-10 -10,20 -21,20 -20,56 15,40 31,20 62,20 46,-15 20,-25 26,-15 31,20 15,10 v 25 l -5,20 -26,20 -5,25 16,16 20,25 31,20 10,20 v 15 l -20,40 -15,56 -21,20 5,20 11,30 5,15 -11,20 -5,36 -15,45 -25,30 -36,-5 -26,5 -15,21 -31,30 -31,5 -41,-10 -61,-10 -52,-10 -56,-50 -21,-20 -41,-31 -36,11 -36,10 h -35 l -82,5 5,20 v 56 l 20,15 h 16 l 46,-6 h 36 l 56,15 31,15 41,41 46,30 36,25 31,10 61,-15 62,5 67,-1 h 56 l 46,-5 31,10 15,20 v 36 l -20,20 -31,15 -25,15 -46,40 -31,41 -31,60 -51,91 -25,81 -21,60 5,65 6,36 -21,40 -31,5 h -66 l -36,5 -21,5 -10,41 11,15 20,5 36,10 h 41 l 36,-11 51,5 31,10 31,41 -26,25 -41,15 -41,10 -20,15 -16,41 -5,45 -25,75 -31,51 -51,25 -57,15 -41,26 1,35 25,10 41,-5 41,10 11,45 -52,15 -77,36 -25,75 5,55 -20,81 -46,40 -31,31 -36,40 21,50 15,30 26,36 v 25 l -15,20 -21,30 -10,25 -21,21 -10,40 v 20 l -5,30 v 51 l -5,45 11,55 36,10 41,10 76,10 62,10 5,15 v 25 l -15,66 10,25 21,25 -5,30 -36,5 h -21 l -30,-5 -41,1 v 20 l 15,20 10,20 26,10 26,5 h 51 l 56,15 -5,20 -15,20 -26,15 -10,15 -10,41 -36,5 -46,-20 -26,5 -15,45 v 60 l -21,11 -61,30 -21,40 -15,25 -15,41 10,10 31,5 36,10 5,20 -26,20 -36,20 -61,41 -61,10 -26,30 -15,25 -21,15 5,41 -5,30 -46,35 -10,50 -5,11 -26,40 -20,5 -26,-15 -36,-5 -25,25 -62,20 -36,-10 -10,-10 -21,10 -15,26 10,80 21,40 -5,10 -36,6 -36,-11 v 56 l -15,30 -36,35 -5,15 -5,31 20,35 16,35 -21,20 -30,10 -52,6 -30,-36 -21,-20 -62,20 -10,26 11,45 -5,45 h -26 l -26,-45 -20,-25 -16,5 -30,20 -52,30 -20,51 -10,70 -5,56 -41,5 -46,20 -6,25 -10,30 -20,41 -36,-10 -21,-36 h -30 l -11,31 -5,65 11,45 31,31 35,25 6,30 10,45 41,10 20,20 21,40 41,26 67,25 56,50 -15,35 5,45 21,41 -67,70 -25,35 v 61 l -57,-15 h -61 l -57,40 -10,-15 -10,-10 10,-40 5,-35 -5,-41 15,-15 41,-10 -10,-25 -36,-35 10,-30 16,-31 -57,-35 -67,-55 -71,40 -82,-15 -6,-50 -56,-25 -31,30 16,71 -77,-15 -93,-10 -61,5 -46,5 -16,-45 -5,-76 -51,-35 -72,-45 -36,15 21,71 10,70 36,96 -41,15 v 35 l -5,116 87,95 -5,91 42,70 133,126 26,70 -31,41 -61,-15 -21,-51 -87,-10 -46,56 15,35 57,5 51,90 -15,41 h -52 l -20,40 15,60 36,51 47,95 -72,46 -41,30 -51,-40 -26,-40 -36,-56 -26,-75 10,-41 v -10 l -25,-5 -82,-9 -11,-41 -46,-5 -20,25 10,71 -25,50 -67,-5 -36,61 -5,171 -36,70 -128,41 -30,35 25,126 1,116 51,-46 82,-25 87,-10 97,30 47,30 v 30 l -11,30 6,21 h 10 l 20,-1 52,10 20,16 11,35 -11,25 -5,20 11,10 56,10 31,5 20,20 11,40 10,36 5,20 5,25 v 10 l 5,15 -56,45 -108,66 -107,71 -92,55 -77,30 -103,41 -87,30 -72,51 -76,70 -72,51 -46,30 -36,40 -41,46 -36,15 -36,-5 h -20 l -16,-10 5,-20 21,-51 25,-25 31,-35 15,-35 16,-46 v -50 l 10,-30 5,-36 36,-15 46,-25 26,-15 30,-25 21,-20 25,-26 6,-5 10,-40 h -26 l -26,-30 57,-30 56,-66 v -15 l 5,-25 -5,-66 -10,-25 -57,-30 -97,-5 -31,5 -87,41 -10,75 -21,126 -35,25 -41,56 -5,100 -52,6 -36,-21 -61,-40 -31,15 -20,41 -52,111 36,70 16,65 -41,51 -56,60 -72,5 -72,-40 -154,-10 -77,46 -72,5 -51,-30 -31,-36 -25,-4 -36,35 -26,35 -36,-10 -46,-30 -56,-30 -57,55 47,35 41,66 -41,55 -31,35 77,26 97,-11 88,30 56,20 10,46 -15,25 -36,116 -20,75 10,30 16,5 35,-40 52,-35 25,-15 36,-26 26,-30 5,-30 v -30 l -11,-25 -15,-20 -5,-10 5,-21 15,-30 16,-5 15,-5 46,35 52,20 56,-35 46,-30 56,-41 31,-30 57,-20 46,-5 25,25 31,60 -35,136 -52,30 -97,36 -92,25 -98,81 -82,90 -46,71 -25,75 -46,111 -36,61 -41,40 -51,40 -57,16 -35,-5 -42,-5 -41,20 1,40 -6,25 -20,35 -21,5 -30,1 -21,15 16,20 36,10 41,15 15,15 -5,55 -56,61 -36,55 -41,66 -36,40 -20,35 -21,61 -31,65 -15,50 -31,46 -35,60 -41,30 -47,26 -10,30 -20,50 -10,30 -16,41 -20,15 -31,20 -20,5 -16,-10 -10,-20 v -56 l 15,-45 10,-35 5,-35 5,-25 -10,-16 -41,11 -10,5 -26,30 v 35 l -10,45 v 41 l -20,40 -128,15 -36,40 15,10 36,16 51,-1 h 36 l -15,46 -10,55 v 10 l 10,10 41,-10 41,-25 87,-25 21,5 10,5 21,60 v 50 l -46,66 -57,60 -41,66 -41,70 -51,96 -41,91 -36,60 -46,75 -56,51 -41,35 -46,56 -26,35 -15,10 -10,10 -36,25 -21,-100 5,-36 5,-55 26,-45 10,-31 21,-55 66,-20 41,-25 26,-26 10,-25 -15,-35 -26,-35 -15,-20 -21,-61 5,-40 20,-45 11,-45 -11,-66 -5,-25 v -15 l -5,-35 -26,-35 h -20 l -36,15 -57,10 -51,10 -66,15 -11,50 -10,61 67,105 61,-55 16,-5 21,106 15,65 10,5 16,10 10,40 -5,46 -10,20 -21,20 -20,15 -46,45 -21,41 -25,60 -21,76 -15,60 -36,25 -56,5 -16,15 10,31 11,20 20,30 11,30 v 25 l 31,45 30,26 11,35 v 35 l -41,75 -72,81 -102,81 -72,55 -72,66 -51,60 -51,45 -52,31 -61,40 -51,35 -21,31 -10,15 -15,10 -31,-30 15,-71 v -45 l -15,-40 -16,-36 5,-45 21,-15 10,-10 h 41 l 26,30 30,-5 47,-25 25,-20 10,-26 6,-20 20,-40 -5,-5 -21,-20 -15,-20 -36,-10 -62,30 -41,15 h -41 l -30,-35 -16,-5 -25,15 -11,5 v 25 l 21,25 15,31 6,25 -11,35 -41,20 -41,-25 -41,-15 -26,20 11,50 5,11 26,10 36,5 30,15 11,30 v 50 l -5,5 -57,20 -46,10 h -31 l -97,1 -31,35 -5,25 36,25 61,-5 36,-15 11,-5 35,-5 26,-10 31,-10 46,10 10,40 -41,45 -46,30 -36,16 -20,5 -108,35 -56,10 -92,20 -77,21 -62,15 -87,25 -72,5 h -61 l -47,-15 h -41 l -25,-15 10,-25 20,-45 5,-10 -35,-56 -16,-35 5,-45 57,-30 15,-46 10,-55 5,-45 -5,-26 -10,-20 -11,-45 11,-30 v -25 l 5,-51 10,-35 10,-25 41,-71 15,-40 41,-101 26,-80 15,-76 10,-50 16,-55 51,-56 46,-60 51,-56 46,-45 31,-91 20,-75 16,-80 20,-66 20,-40 62,-86 36,-85 15,-51 5,-25 36,-60 25,-61 11,-70 -11,-96 -15,-55 -11,-61 5,-55 -5,-50 -20,-35 -52,-51 -25,-55 -36,-65 -41,-36 -83,1 -61,-26 -57,-25 -82,-60 -82,-35 -82,-30 -77,-5 -174,35 -108,-30 -118,5 -67,11 -41,-36 5,-40 52,-40 -36,-86 -26,-25 10,-35 -15,-25 -52,-20 -71,10 -21,35 -10,30 -185,26 -123,-10 -113,-15 -35,20 -21,25 -56,5 -41,15 -11,40 -15,56 -5,60 -25,46 -57,25 -82,25 -20,-15 -36,-35 -47,-66 -51,-70 -77,-45 h -46 l -5,-25 5,-36 46,-10 26,-10 5,-40 -31,-30 -31,-15 v -41 l 26,-40 20,-45 -5,-71 -72,-115 -67,-35 -41,-5 -26,25 -35,20 -26,-5 -15,-55 -6,-86 -25,-20 -57,-25 -72,-25 -71,-25 -83,-61 -56,-35 -41,-55 36,-15 41,-46 v -55 l -36,-20 -52,-15 -41,-5 5,-66 -20,-20 h -72 l -118,1 -31,20 -15,35 -20,45 -36,35 -46,-25 -47,-60 -138,-85 -16,-26 -10,-30 15,-40 v -40 l -36,-91 -41,-40 -15,-30 -11,-56 -5,-60 -25,-60 -67,-26 -92,-15 -16,11 -15,5 -10,50 -21,35 h -56 l -21,-30 -72,-75 -46,-51 -41,-35 -46,-20 -16,-30 -10,-141 -36,-50 v -51 l -51,-35 -11,-50 16,-41 -31,11 -72,25 -56,20 -62,-35 -41,-71 -51,-45 -41,-25 -62,-55 -36,-91 -51,-101 -108,-110 -92,-96 -72,-30 -31,-20 -67,-65 -56,-46 -62,-5 -41,16 h -67 l -72,45 -77,-85 -27,-34 -70,-104 -45,-102 v -40 l 8,-31 18,-64 11,-25 16,-35 h 66 l 93,-4 94,-5 16,-8 14,-8 16,-9 -20,-60 -5,-10 -5,-25 5,-31 5,-15 10,-25 5,-25 -5,-15 v -45 l 10,-41 5,-55 v -40 l -5,-10 -13,-9 -18,-12 -10,-20 -5,-15 5,-30 15,-20 36,-30 31,-31 20,-25 15,-23 16,-27 16,-30 10,-36 25,-55 5,-40 -5,-35 -15,-36 -21,-25 -30,-25 -72,-20 -21,-15 -15,-15 -11,-20 -15,-20 v -16 l -5,-15 -16,-15 -20,-5 -21,-5 -20,-15 -41,-25 -31,-30 -15,-25 -5,-17 -6,-19 -15,-71 -16,-69 -5,-51 8,-21 18,-54 15,-31 21,-25 25,-20 16,-15 15,-20 20,-20 26,-20 36,-16 31,-20 5,-10 10,-10 16,-20 10,-25 15,-20 16,-25 20,-21 20,-20 21,-25 20,-25 21,-30 15,-31 5,-30 5,-45 6,-25 5,-45 5,-41 5,-40 10,-30 15,-25 22,-17 34,-33 11,-16 23,-46 23,-45 5,-20 10,-20 16,-5 10,5 26,5 h 25 l 10,-15 6,-15 5,-20 v -30 l 10,-46 5,-30 5,-35 10,-30 21,-41 15,-35 21,-40 20,-45 15,-46 11,-30 15,-30 10,-30 16,-21 20,-20 21,-10 20,-30 31,-30 61,-66 62,-55 26,-25 11,-11 45,-25 6,-4 45,-26 82,-35 41,-20 -77,-69 247,-184 147,-120 57,-60 66,-51 51,-31 41,-24 42,-19 15,-6 36,-11 41,-11 51,-4 h 51 l 62,6 83,16 81,13 58,-4 51,-6 50,-10 56,-15 62,-18 61,-12 60,-14 104,-37 94,-41 63,-39 11,-7 57,-48 63,-58 15,-23 7,-5 17,-12 9,-5 18,-14 29,-11 9,-1 18,-3 36,-2 60,7 66,2 59,-2 44,-10 27,-7 5,-2 32,-23 35,-34 6,-7 25,-33 25,-40 16,-36 10,-45 3,-16 5,-34 1,-45 -5,-30 -9,-31 -14,-40 -9,-31 -9,-45 -9,-46 -3,-46 -4,-40 -4,-44 7,-40 4,-27 13,-34 12,-25 25,-30 33,-32 9,-10 16,-11 47,-34 69,-44 62,-23 36,-12 66,-21 67,-20 57,-28 40,-32 37,-32 31,-36 30,-33 15,-30 16,-30 15,-31 10,-35 22,-34 12,-24 27,-28 20,-22 31,-19 37,-19 41,-14 42,-14 55,-18 53,-26 20,-12 28,-20 37,-27 4,-3 37,-28 32,-29 9,-11 23,-29 43,-49 21,-24 31,-24 35,-30 23,-19 13,-11 52,-31 64,-32 105,-69 82,-55 40,-23 41,-9 h 12 l 29,1 57,-4 31,-3 31,-9 31,-10 36,-9 31,-9 27,-12 41,-15 46,-15 38,-14 31,-16 32,-13 29,-13 31,-14 16,-15 20,-21 14,-21 14,-22 18,-22 21,-19 25,-18 36,-18 31,-20 26,-21 19,-25 10,-35 6,-45 17,-40 10,-38 20,-33 19,-26 21,-20 26,-10 31,-10 h 35 l 36,10 47,19 4,2 47,24 29,8 26,5 6,2 h 26 l 24,-4 21,-10 21,-16 5,-3 21,-20 26,-19 25,-23 31,-21 33,-14 6,-2 25,-9 41,-5 39,-1 h 28 l 26,-8 37,-24 36,-29 42,-34 40,-41 21,-45 4,-8 15,-38 -2,-62 -17,-48 -26,-44 -34,-44 -30,-25 -6,-6 -22,-21 -17,-21 -9,-5 -36,-15 -20,-10 -21,-15 -25,-21 -21,-19 -15,-26 -7,-18 -11,-31 -3,-26 -10,-25 -21,-30 -18,-35 -15,-36 -14,-30 -20,-36 -20,-29 -10,-11 -19,-17 -34,-33 -26,-14 -50,-42 -46,-29 -5,-3 -41,-27 -36,-21 -46,-22 -42,-18 -36,-18 -61,-41 -61,-36 -19,-8 -17,-17 -3,-4 -13,-16 -16,-30 -25,-41 -21,-34 -11,-39 -19,-37 -16,-43 -15,-53 -22,-59 -20,-46 -40,-71 -14,-17 -22,-28 -32,-42 -44,-53 -41,-53 -23,-15 -21,-15 -25,-21 -19,-7 -31,-15 -21,-5 -25,-6 -31,-6 -35,-11 -31,-19 -5,-2 -23,-23 -34,-29 -62,-70 -20,-25 -21,-26 -28,-34 -34,-36 -21,-35 -9,-35 -13,-71 -9,-78 -20,-93 -29,-95 -22,-51 -22,-49 -18,-38 -17,-34 -17,-27 -14,-28 -21,-23 -4,-4 -26,-18 -28,-17 -17,-9 -37,-20 -20,-10 -21,-10 -33,-21 -34,-10 -22,-4 h -7 l -24,3 -25,5 -24,7 -56,25 -45,14 -26,9 -41,9 -26,-1 -30,-11 -35,-17 -31,-25 -20,-15 -23,-23 -27,-19 -30,-16 -20,-6 -25,-21 -22,-15 -8,-21 -9,-31 -8,-47 -10,-50 v -15 l -2,-6 -9,-30 -12,-34 -14,-31 -10,-39 -5,-36 -3,-20 1,-16 6,-30 1,-30 10,-35 11,-31 8,-36 18,-78 5,-25 11,-46 2,-35 -4,-60 v -91 l -4,-91 -2,-25 -4,-21 -5,-36 v -69 l 5,-41 v -46 l 5,-50 -6,-35 -8,-42 -17,-34 -36,-35 -26,-30 -36,-35 -49,-54 -48,-53 -31,-34 -15,-17 -24,-22 -35,-26 -49,-21 -67,-22 -5,-2 -67,-11 -71,-7 -41,3 -16,4 -30,15 -22,15 -26,19 -29,22 -26,20 -40,19 -42,6 -46,-7 -36,-13 -34,-9 -41,-28 -44,-47 -23,-54 v -16 l 1,-25 7,-33 11,-47 v -18 l 1,-22 -11,-48 -11,-51 -15,-50 -20,-30 -4,-14 -5,-23 -7,-19 v -25 l 5,-20 16,-10 25,-10 16,-3 6,-7 10,-12 11,-30 1,-20 -3,-54 -5,-40 -5,-26 -10,-35 -18,-27 -10,-11 -14,-21 -15,-11 -5,-20 1,-25 4,-26 7,-19 15,-34 18,-20 26,-30 27,-24 26,-25 21,-21 24,-23 10,-31 5,-30 -11,-36 -18,-15 -31,-5 -42,-6 -39,-7 -35,-18 -23,-19 -11,-25 -10,-45 1,-11 9,-44 15,-66 20,-60 30,-62 21,-34 21,-25 16,-16 2,-6 9,-20 4,-19 4,-16 9,-21 16,-24 6,-25 -9,-30 -15,-26 -12,-18 -18,-18 -10,-11 -40,-40 -14,-22 -9,-33 4,-18 12,-19 32,-28 47,-30 30,-11 28,-18 20,-30 15,-30 10,-26 5,-30 6,-20 10,-18 15,-19 21,-15 26,-3 5,-1 25,1 36,5 36,7 36,11 31,10 5,2 35,10 25,6 22,-3 h 4 l 11,-6 4,-5 11,-14 17,-22 16,-28 14,-28 20,-21 15,-20 25,-19 32,-7 31,-17 15,-14 36,-39 25,-40 15,-36 5,-20 12,-29 11,-24 4,-5 17,-15 14,-13 12,-12 17,-13 22,-24 9,-22 11,-35 1,-7 v -23 l 1,-15 -9,-45 -20,-26 -20,-24 -20,-21 -16,-25 -10,-25 -1,-26 11,-29 15,-21 16,-6 31,-9 30,-5 h 31 l 26,10 12,3 8,5 26,7 20,-1 21,-4 17,-17 9,-18 9,-25 15,-31 15,-18 22,-24 10,-21 11,-29 -1,-38 -14,-47 -22,-49 -39,-50 -24,-43 -25,-35 -3,-4 -17,-26 -21,-35 -9,-29 -10,-30 -2,-33 -10,-36 -9,-37 -9,-31 -13,-25 -21,-29 -20,-21 -19,-9 -22,-14 -20,-22 -18,-23 -30,-51 -48,-88 -37,-79 -26,-36 -10,-20 -31,-60 -10,-25 -5,-26 v -20 l -5,-30 -10,-20 -15,-16 -20,-5 -37,-14 -16,-11 -18,-8 -19,-18 -4,-4 -15,-35 10,-29 17,-24 14,-22 2,-12 v -17 l 1,-13 v -12 l 2,-28 15,-17 26,-17 36,-26 45,-36 14,-14 36,-33 42,-34 62,-24 51,-20 42,-24 35,-18 22,-13 12,-6 52,-13 63,-27 67,-35 12,-9 51,-39 14,-9 17,-10 33,-19 21,-15 30,-25 26,-19 21,-24 21,-15 16,-14 14,-10 3,-24 v -16 l 6,-20 6,-25 15,-15 16,-20 16,-19 11,-26 19,-56 9,-18 11,-25 10,-17 16,-19 15,-5 19,-8 13,-16 19,-18 26,-20 30,-15 32,-13 25,-14 35,-9 32,-9 5,-5 21,-19 42,-35 32,-39 16,-25 12,-29 v -16 l -5,-15 -10,-5 -22,6 -20,10 -20,17 -15,17 -27,17 -25,19 -21,5 -22,4 -15,-3 -10,-15 -4,-16 v -12 l 5,-10 17,-30 3,-8 16,-36 25,-60 26,-30 27,-29 4,-5 10,-7 26,-17 h 9 l 16,-3 25,-1 13,-5 23,-14 26,-25 25,-13 7,-7 29,-21 22,-16 9,-14 12,-16 5,-21 19,-18 10,-10 21,-11 20,-5 30,-17 37,-23 51,-40 38,-29 39,-47 36,-47 20,-29 29,-47 27,-64 15,-35 12,-18 11,-25 13,-17 18,-18 17,-14 27,-19 25,-35 17,-25 3,-8 13,-27 8,-19 5,-22 10,-26 11,-30 25,-50 26,-50 21,-45 14,-26 36,-60 7,-10 7,-14 12,-35 5,-25 -5,-20 -5,-7 -6,-10 -20,-26 -18,-25 -4,-30 1,-15 27,-38 9,-23 5,-30 10,-25 6,-22 19,-26 17,-25 26,-19 19,-9 30,-31 16,-39 v -11 l 10,-60 11,-35 13,-22 9,-22 2,-25 11,-30 16,-22 17,-28 15,-30 17,-29 16,-25 22,-25 26,-23 4,-3 21,-14 25,-20 31,-25 41,-31 51,-40 47,-28 13,-16 7,-7 4,-9 6,-11 v -20 l -5,-15 -11,-15 -5,-15 1,-24 10,-13 10,-10 21,-10 25,-4 20,-4 37,1 32,-8 9,-3 19,-6 28,-12 23,-15 16,-19 15,-34 12,-34 14,-32 17,-23 8,-12 29,-23 26,-14 37,-9 36,-9 19,-1 27,-3 35,7 37,1 26,-6 30,-13 42,-19 40,-18 43,-15 8,-4 28,-15 z"
         id="1757" />
      <path
         d="m 4684,1215 5,-35 11,-20 h 15 l 10,30 11,30 v 30 l -16,25 -31,-15 -10,-25 z"
         id="1778" />
      <path
         d="m 4690,1683 16,5 20,45 -5,31 v 30 l -15,15 -10,-5 -21,-5 -10,-35 15,-35 v -31 z"
         id="1779" />
      <path
         d="m 4380,3370 -10,-10 -5,-15 10,-25 26,5 46,30 31,20 20,50 11,36 -5,25 -31,5 -21,-15 -31,-20 -15,-31 -15,-30 z"
         id="1781" />
      <path
         d="m 4253,3743 -21,-5 -5,-15 5,-10 -5,-20 5,-5 31,-11 h 31 l 36,5 20,10 v 20 l -20,16 -46,15 z"
         id="1782" />
      <path
         d="m 4545,3742 21,35 -5,66 -6,55 -25,71 -26,45 -35,51 -11,35 -35,55 -31,56 -20,65 -31,91 -26,60 -30,71 -21,75 -46,106 -35,91 -57,85 -51,86 -30,56 -57,95 -41,61 -5,40 -40,71 -47,70 -51,66 -30,45 -26,65 -46,101 -51,81 -36,75 -25,36 -31,60 -51,50 -57,96 -46,61 -35,60 -31,61 -31,45 -15,20 -31,66 -30,50 -26,60 -36,41 -31,20 -15,-10 -10,-20 v -40 l 46,-46 15,-35 5,-45 v -56 l 5,-35 10,-10 46,-10 31,-20 26,-41 20,-80 5,-36 v -25 l 26,-15 46,-45 20,-41 16,-45 15,-35 26,-50 25,-26 36,-20 36,-15 15,-30 5,-30 10,-41 31,-40 31,-50 46,-91 41,-61 41,-80 30,-46 21,-45 10,-50 5,-35 10,-51 21,-45 35,-46 26,-35 15,-50 21,-30 20,-21 31,-25 41,-30 20,-35 21,-56 31,-55 30,-20 5,-31 v -50 l 31,-50 26,-31 25,-30 21,-45 15,-50 5,-41 -16,-40 -5,-20 -10,-30 v -20 l 15,-21 26,-5 36,-5 61,-45 31,-96 15,-91 31,-75 30,-50 z"
         id="1783" />
      <path
         d="m 4146,4352 5,-15 21,-10 25,15 6,15 v 35 l -16,20 -20,6 -16,-11 -10,-10 -5,-15 v -25 z"
         id="1785" />
      <path
         d="m 3762,4901 16,-10 h 20 l 16,10 5,15 v 31 l -31,20 -20,20 -5,20 -5,15 -26,15 -36,-5 -10,-15 -5,-30 5,-30 25,-20 21,-15 20,-10 z"
         id="1786" />
      <path
         d="m 3609,5209 -10,15 -21,5 h -10 l -10,-5 -10,-30 10,-20 10,-5 15,-21 16,-10 h 36 l 10,10 -5,20 -21,21 z"
         id="1787" />
      <path
         d="m 3543,5516 v 25 l -21,20 -35,-5 -16,-10 h -10 v -30 l 15,-15 31,-5 h 20 z"
         id="1788" />
      <path
         d="m 3236,5768 -21,-20 -5,-20 10,-10 5,-20 16,-11 30,-5 21,10 10,21 -10,40 -15,20 z"
         id="1789" />
      <path
         d="m 3057,6040 10,-10 5,-10 26,-15 10,10 20,10 6,15 v 10 l -11,20 -15,35 -31,-5 -15,-15 -10,-25 z"
         id="1790" />
      <path
         d="m 2805,6056 16,5 15,10 10,15 21,20 15,10 -5,30 -20,15 -62,-10 -15,-15 -5,-15 v -55 l 5,-15 z"
         id="1791" />
      <path
         d="m 3011,6599 h -25 l -16,-20 5,-15 6,-5 15,-15 15,-6 21,5 5,21 v 15 l -15,15 z"
         id="1792" />
      <path
         d="m 2366,6857 128,9 61,-5 47,-10 46,5 30,5 11,50 10,31 16,30 20,25 15,5 42,-10 15,-35 41,4 -5,56 -15,60 v 41 l -5,45 -31,30 -41,20 h -57 l -35,-15 h -31 l -26,16 v 60 l 5,25 26,20 10,61 -15,45 -25,65 -57,96 -71,91 -57,50 -87,51 -107,65 -72,61 -123,75 -31,16 -25,20 -21,10 -10,-45 -16,-31 -30,-10 -47,-35 -15,-20 -10,-30 -6,-45 v -10 l 16,-31 v -15 l 30,-15 11,5 30,20 11,20 20,25 36,5 41,-30 51,-96 16,-10 31,-20 46,-15 25,-10 21,-15 -16,-25 -25,-15 -36,-10 -16,-5 11,-31 25,-40 26,-45 36,-20 41,-16 30,-25 5,-15 21,-40 10,-51 v -70 l -5,-60 -16,-46 -25,-45 -21,-40 -10,-35 5,-31 -5,-20 10,-10 31,20 h 41 l 15,-15 -21,-30 11,-20 z"
         id="1793" />
      <path
         d="m 1613,7517 -16,-15 -5,-25 16,-15 30,-26 21,-20 25,-10 16,-10 h 10 l 21,30 -5,56 -11,55 v 20 l 31,15 21,20 5,36 -10,35 -46,25 -46,15 -21,15 -36,26 h -36 l -20,-21 -5,-35 10,-30 25,-50 16,-26 10,-25 z"
         id="1796" />
      <path
         d="m 1900,7592 -5,25 v 20 l -15,21 -36,-10 -10,-26 -6,-30 -10,-40 5,-35 26,-5 25,10 11,10 15,25 z"
         id="1797" />
      <path
         d="m 784,8832 h -26 l -10,-10 -15,-20 v -46 l 15,-30 26,-35 20,-20 15,-20 36,-26 5,5 16,21 -15,70 -21,40 -20,41 z"
         id="1798" />
    </g>
  </clipPath>
  <g
     inkscape:groupmode="layer"
     id="layer3"
     inkscape:label="redcounty"
     style="display:inline">
    <g
       id="g7925"
       style="display:inline">
      <path
         d="m 2205,-7084 103,35 92,60 139,111 30,15 52,-10 36,15 56,20 56,25 72,-30 51,-51 56,-5 118,45 175,65 174,35 103,50 46,76 41,91 41,15 266,9 103,-20 113,100 -21,51 -5,45 -15,50 -46,61 -41,61 -25,45 -57,40 -51,-5 -77,16 -56,40 -46,35 -36,46 -31,70 -15,66 -10,80 -10,81 5,65 5,91 -10,-5 -15,-30 -16,-25 -15,-5 -36,10 -46,10 -102,-10 -41,10 -31,5 -103,-20 -5,16 -20,45 -46,10 -82,20 -123,21 -21,5 -10,-5 -20,-20 -42,-56 -20,-35 v -65 l -10,-10 -123,10 -682,77 -497,46 -56,10 -31,-40 92,-46 57,-35 163,-142 138,-156 57,-131 25,-121 5,-101 -10,-25 -113,76 -77,-20 -205,96 -20,-66 -26,-95 -31,-50 15,-41 h 16 l 25,5 11,-5 20,-50 v -10 l -10,-20 v -16 l 10,-25 51,-25 123,-61 5,-15 72,-96 h 5 l 72,-75 h 5 l 71,-61 5,-10 103,-101 10,-5 z"
         id="Union"
         style="fill:#ff0000;stroke:#000000;stroke-width:85.572;stroke-miterlimit:4;stroke-dasharray:none"
         transform="matrix(0.35058201,0,0,0.35058201,-5220.022,-9069.7721)" />
      <path
         d="m 1393,-5526 31,40 56,-10 497,-46 682,-77 123,-10 10,10 v 65 l 20,35 42,56 20,20 10,5 21,-5 123,-21 82,-20 46,-10 20,-45 5,-16 103,20 31,-5 41,-10 102,10 46,-10 36,-10 15,5 16,25 15,30 10,5 v 15 l -20,66 -25,70 -16,101 -20,86 -25,30 -72,10 -46,10 -41,21 -57,45 -35,71 -21,45 -10,55 10,71 16,50 -5,40 -21,41 -30,35 -21,40 -15,36 -5,40 -10,35 5,41 v 50 l -26,50 -41,-5 -25,-30 -31,-50 -36,-25 -56,-20 -82,-30 h -67 l -51,10 -31,40 -20,56 -62,65 -51,51 -72,40 -51,35 -61,51 46,20 67,15 128,-15 36,-41 30,-80 51,-106 87,-31 98,30 143,111 6,65 56,116 72,35 97,50 113,61 67,20 -15,60 -62,20 -41,6 -77,95 1,10 v 76 l -5,161 v 66 h -5 l -5,10 -41,40 -154,161 -235,243 -788,867 v 10 l -5,10 -5,5 v 30 l -21,51 -5,5 h -5 l -31,15 -276,156 -210,132 -21,-5 -15,-10 -26,-5 h -66 l -10,-5 -82,-15 30,-187 -5,-35 -31,-20 -62,-25 -20,-15 -41,-10 -51,-5 -36,-5 -52,-45 -56,-30 -20,-36 -36,-15 -31,10 -36,16 -15,5 -16,-5 -66,-10 -52,-5 -41,-20 -36,-51 -164,-100 -36,-50 -15,-21 -41,-10 -62,-10 -56,-80 -36,-30 h -46 l -62,5 -10,-40 -5,-61 -26,-70 5,-50 21,-66 50,-252 36,-10 16,-10 15,-10 61,-35 11,-6 112,-186 46,-232 10,-10 56,-35 11,-5 87,-25 51,-11 195,-141 20,-10 82,-86 15,-15 62,-65 138,-132 20,-15 21,-20 31,-35 35,-56 11,-15 15,-20 10,-15 36,-25 10,-5 103,-46 61,-30 10,-35 -26,-76 -20,-80 -164,-35 -31,-15 -67,-146 -61,-71 -93,-80 -46,-56 -62,-125 -5,-26 -15,-55 35,-111 77,-75 123,-61 113,-46 71,-60 z"
         id="Middlesex"
         style="fill:#ff0000;stroke:#000000;stroke-width:85.572;stroke-miterlimit:4;stroke-dasharray:none"
         transform="matrix(0.35058201,0,0,0.35058201,-5220.022,-9069.7721)" />
      <path
         d="m -797,-6903 917,-253 138,-51 46,-5 52,-15 286,-91 16,20 15,50 16,45 25,86 -10,50 10,41 67,20 46,20 31,15 -10,35 5,25 -10,20 5,16 20,15 31,40 11,55 46,56 36,55 -21,116 -51,10 -36,35 v 71 l 16,40 -10,45 -41,41 5,20 20,20 11,25 10,50 10,56 41,25 52,5 41,-15 25,-30 16,-36 10,-25 15,-15 46,-15 16,-10 20,-10 41,-21 36,-5 41,-10 51,-15 92,-40 31,50 26,95 20,66 205,-96 77,20 113,-76 10,25 -5,101 -25,121 -57,131 -138,156 -163,142 -57,35 -92,46 -72,30 -71,60 -113,46 -123,61 -77,75 -35,111 15,55 5,26 62,125 46,56 93,80 61,71 67,146 31,15 164,35 20,80 26,76 -10,35 -61,30 -103,46 -10,5 -36,25 -10,15 -15,20 -11,15 -35,56 -31,35 -21,20 -20,15 -138,132 -62,65 -15,15 -82,86 -20,10 -195,141 -51,11 -87,25 -11,5 -56,35 -10,10 -46,232 -112,186 -11,6 -61,35 -15,10 -16,10 -36,10 v -40 l -5,-35 -10,-26 -16,-50 -220,-50 -62,5 -527,192 -26,-30 -41,-101 -31,-70 -41,-111 -15,-35 -72,-181 -16,-30 -5,-26 -7,-9 -13,-36 -11,-20 -5,-10 -62,-146 -20,-45 -21,-56 -25,-60 -11,-30 -25,-56 -11,-25 -15,-45 -10,-20 v -10 l -11,-20 -10,-21 -10,-25 -5,-20 -11,-20 -5,-10 -15,-35 -21,-61 -15,-40 -5,-20 -67,-151 h 10 l 5,5 h 5 l 10,5 16,10 h 10 l 5,5 113,96 21,5 66,-142 21,-40 10,-20 66,-126 51,-111 21,-40 30,-61 6,-5 122,-65 52,-96 102,-166 -113,-61 41,-111 -10,-5 -16,-10 5,-20 51,-91 16,-25 15,10 h 21 l 51,-95 -5,-16 -21,-15 -36,-40 -26,-65 -41,-5 -66,-25 -11,-36 52,-50 -16,-45 31,-51 -16,-60 -41,-40 -15,-41 v -15 l 61,-86 10,-70 21,-45 5,-36 -31,-15 -20,-25 10,-45 46,-61 5,-60 -21,-30 -25,-66 -21,-45 z"
         id="Somerset"
         style="fill:#ff0000;stroke:#000000;stroke-width:85.572;stroke-miterlimit:4;stroke-dasharray:none"
         transform="matrix(0.35058201,0,0,0.35058201,-5220.022,-9069.7721)" />
      <path
         d="m -2125,-7652 67,80 41,40 41,36 108,110 36,31 51,55 36,35 46,45 41,36 51,50 h 52 l 143,10 415,130 62,20 87,71 h 51 l 36,45 21,45 25,66 21,30 -5,60 -46,61 -10,45 20,25 31,15 -5,36 -21,45 -10,70 -61,86 v 15 l 15,41 41,40 16,60 -31,51 16,45 -52,50 11,36 66,25 41,5 26,65 36,40 21,15 5,16 -51,95 h -21 l -15,-10 -16,25 -51,91 -5,20 16,10 10,5 -41,111 113,61 -102,166 -52,96 -122,65 -6,5 -30,61 -21,40 -51,111 -66,126 -10,20 -21,40 -66,142 -21,-5 -113,-96 -5,-5 h -10 l -16,-10 -10,-5 h -5 l -5,-5 h -10 l 67,151 5,20 15,40 21,61 15,35 5,10 11,20 5,20 10,25 10,21 11,20 v 10 l 10,20 15,45 11,25 25,56 11,30 25,60 21,56 20,45 62,146 5,10 11,20 13,36 7,9 5,26 -517,86 51,332 -563,107 98,352 -674,67 -34,-36 -21,-35 -9,-35 -13,-71 -9,-78 -20,-93 -29,-95 -22,-51 -22,-49 -18,-38 -17,-34 -17,-27 -14,-28 -21,-23 -4,-4 -26,-18 -28,-17 -17,-9 -37,-20 -20,-10 -21,-10 -33,-21 -34,-10 -22,-4 h -7 l -24,3 -25,5 -24,7 -56,25 -45,14 -26,9 -41,9 -26,-1 -30,-11 -35,-17 -31,-25 -20,-15 -23,-23 -27,-19 -30,-16 -20,-6 -25,-21 -22,-15 -8,-21 -9,-31 -8,-47 -10,-50 v -15 l -2,-6 -9,-30 -12,-34 -14,-31 -10,-39 -5,-36 -3,-20 1,-16 6,-30 1,-30 10,-35 11,-31 8,-36 18,-78 5,-25 11,-46 2,-35 -4,-60 v -91 l -4,-91 -2,-25 -4,-21 -5,-36 v -69 l 5,-41 v -46 l 5,-50 -6,-35 -8,-42 -17,-34 -36,-35 -26,-30 -36,-35 -49,-54 -48,-53 -31,-34 -15,-17 -24,-22 -35,-26 -49,-21 -67,-22 -5,-2 -67,-11 -71,-7 -41,3 -16,4 -30,15 -22,15 -26,19 -29,22 -26,20 -40,19 -42,6 -46,-7 -36,-13 -34,-9 -41,-28 -44,-47 -23,-54 v -16 l 1,-25 7,-33 11,-47 v -18 l 108,-91 102,-95 5,-10 31,-91 30,-30 77,-41 10,-5 26,-50 10,-5 52,-25 35,-16 57,-40 153,-65 77,-76 77,-61 153,-121 62,-35 56,-71 15,-20 42,-15 25,-20 31,-15 31,-10 35,-20 36,-16 5,-5 21,-20 20,-15 11,-10 15,-15 51,-20 46,-10 62,-6 25,-5 72,-60 72,-46 30,-15 21,-20 5,-20 51,-15 41,-5 31,-36 61,-115 72,-91 36,-46 61,-90 102,-106 98,-86 30,-45 46,-31 21,-45 15,-60 20,-31 31,-20 46,-25 z"
         id="Hunterdon"
         style="fill:#ff0000;stroke:#000000;stroke-width:85.572;stroke-linecap:butt;stroke-linejoin:round;stroke-miterlimit:4;stroke-dasharray:none;paint-order:normal"
         transform="matrix(0.35058201,0,0,0.35058201,-5220.022,-9069.7721)" />
      <path
         d="m -1138,-9009 72,-15 h 36 l 41,-20 30,-15 41,-36 h 31 l 26,10 10,21 36,20 41,-5 51,30 36,40 10,40 11,36 15,25 46,5 62,-61 61,-25 143,-51 82,-50 16,-15 25,-25 10,-6 h 6 l 20,-5 10,-5 5,-5 5,-25 -5,-10 -10,-25 10,-25 5,-10 21,-21 71,-50 6,-5 5,-5 25,-41 16,-50 -1,-10 v -35 l -5,-25 -5,-11 -20,-25 -16,-15 -15,-30 v -30 l 10,-10 256,-328 56,-56 10,-15 16,-15 15,-20 15,-15 409,-474 10,-11 11,-20 92,-106 46,-55 82,-96 148,-156 82,30 61,70 11,61 5,20 -15,30 -16,30 -25,25 -16,1 -10,5 -31,40 -40,136 -11,50 16,61 26,10 25,-10 31,-31 20,-25 26,-25 36,-30 123,-46 97,-55 46,20 31,25 36,40 82,101 15,35 -10,30 -20,41 -16,30 v 40 l 36,15 41,-20 10,-20 16,-30 30,-21 h 36 l 46,15 31,15 46,25 57,71 5,30 41,20 56,5 h 26 l 66,-5 62,-25 31,5 35,-10 6,15 20,65 h 26 l 51,5 51,-5 26,10 26,50 76,5 62,5 41,40 82,-15 46,15 20,40 11,56 -31,30 -20,35 -5,26 v 15 l 15,20 h 41 l 51,5 16,25 25,70 11,41 -16,55 6,15 20,56 -10,85 -25,96 -36,76 -15,30 v 35 l 30,56 16,20 31,20 41,15 25,5 26,10 20,15 11,25 -16,35 -5,31 -25,50 -16,45 -71,11 -31,-15 -5,-21 v -15 l -10,-10 -36,-10 -11,-5 -5,-15 -15,-15 -5,-10 -31,-5 h -20 l -31,-5 -36,10 -31,15 -41,5 -10,-15 -15,-30 -36,-10 -62,10 -25,31 -21,45 16,65 -36,157 31,60 -5,50 10,26 46,15 52,35 5,10 -26,86 -10,40 -25,55 20,46 -10,45 -5,91 -31,55 -5,46 v 50 l -25,35 -26,20 -61,-5 -21,21 -10,65 -56,20 -31,36 -46,50 v 156 l -35,56 -5,40 20,50 v 31 l -25,40 -16,20 21,10 h 25 l 41,25 26,10 26,5 -5,20 -21,16 -31,15 -5,35 -10,50 -41,56 -148,131 -10,5 -103,101 -5,10 -71,61 h -5 l -72,75 h -5 l -72,96 -5,15 -123,61 -51,25 -10,25 v 16 l 10,20 v 10 l -20,50 -11,5 -25,-5 h -16 l -15,41 -92,40 -51,15 -41,10 -36,5 -41,21 -20,10 -16,10 -46,15 -15,15 -10,25 -16,36 -25,30 -41,15 -52,-5 -41,-25 -10,-56 -10,-50 -11,-25 -20,-20 -5,-20 41,-41 10,-45 -16,-40 v -71 l 36,-35 51,-10 21,-116 -36,-55 -46,-56 -11,-55 -31,-40 -20,-15 -5,-16 10,-20 -5,-25 10,-35 -31,-15 -46,-20 -67,-20 -10,-41 10,-50 -25,-86 -16,-45 -15,-50 -16,-20 -286,91 -52,15 -46,5 -138,51 -917,253 h -51 l -87,-71 -62,-20 -415,-130 -143,-10 h -52 l -51,-50 -41,-36 -46,-45 -36,-35 -51,-55 -36,-31 -108,-110 -41,-36 -41,-40 -67,-80 82,-36 72,-35 25,-61 h 6 l 81,-20 46,-40 41,-46 16,-45 46,-45 30,-56 52,-95 35,-16 31,-30 -5,-70 -16,-41 6,-25 25,-10 67,-35 -5,-51 10,-35 41,-15 v -71 l -16,-50 -10,-50 5,-81 56,-40 56,-21 31,-10 21,-75 56,-51 71,-55 z"
         id="Morris"
         style="fill:#ff0000;stroke:#000000;stroke-width:85.572;stroke-miterlimit:4;stroke-dasharray:none"
         transform="matrix(0.35058201,0,0,0.35058201,-5220.022,-9069.7721)" />
      <path
         d="m -2794,-11042 112,141 97,116 16,20 313,392 102,121 26,35 51,71 57,70 15,15 51,61 200,257 124,156 492,578 -31,46 -71,55 -56,51 -21,75 -31,10 -56,21 -56,40 -5,81 10,50 16,50 v 71 l -41,15 -10,35 5,51 -67,35 -25,10 -6,25 16,41 5,70 -31,30 -35,16 -52,95 -30,56 -46,45 -16,45 -41,46 -46,40 -81,20 h -6 l -25,61 -72,35 -82,36 -41,20 -46,25 -31,20 -20,31 -15,60 -21,45 -46,31 -30,45 -98,86 -102,106 -61,90 -36,46 -72,91 -61,115 -31,36 -41,5 -51,15 -5,20 -21,20 -30,15 -72,46 -72,60 -25,5 -62,6 -46,10 -51,20 -15,15 -11,10 -20,15 -21,20 -5,5 -36,16 -35,20 -31,10 -31,15 -25,20 -42,15 -15,20 -56,71 -62,35 -153,121 -77,61 -77,76 -153,65 -57,40 -35,16 -52,25 -10,5 -26,50 -10,5 -77,41 -30,30 -31,91 -5,10 -102,95 -108,91 1,-22 -11,-48 -11,-51 -15,-50 -20,-30 -4,-14 -5,-23 -7,-19 v -25 l 5,-20 16,-10 25,-10 16,-3 6,-7 10,-12 11,-30 1,-20 -3,-54 -5,-40 -5,-26 -10,-35 -18,-27 -10,-11 -14,-21 -15,-11 -5,-20 1,-25 4,-26 7,-19 15,-34 18,-20 26,-30 27,-24 26,-25 21,-21 24,-23 10,-31 5,-30 -11,-36 -18,-15 -31,-5 -42,-6 -39,-7 -35,-18 -23,-19 -11,-25 -10,-45 1,-11 9,-44 15,-66 20,-60 30,-62 21,-34 21,-25 16,-16 2,-6 9,-20 4,-19 4,-16 9,-21 16,-24 6,-25 -9,-30 -15,-26 -12,-18 -18,-18 -10,-11 -40,-40 -14,-22 -9,-33 4,-18 12,-19 32,-28 47,-30 30,-11 28,-18 20,-30 15,-30 10,-26 5,-30 6,-20 10,-18 15,-19 21,-15 26,-3 5,-1 25,1 36,5 36,7 36,11 31,10 5,2 35,10 25,6 22,-3 h 4 l 11,-6 4,-5 11,-14 17,-22 16,-28 14,-28 20,-21 15,-20 25,-19 32,-7 31,-17 15,-14 36,-39 25,-40 15,-36 5,-20 12,-29 11,-24 4,-5 17,-15 14,-13 12,-12 17,-13 22,-24 9,-22 11,-35 1,-7 v -23 l 1,-15 -9,-45 -20,-26 -20,-24 -20,-21 -16,-25 -10,-25 -1,-26 11,-29 15,-21 16,-6 31,-9 30,-5 h 31 l 26,10 12,3 8,5 26,7 20,-1 21,-4 17,-17 9,-18 9,-25 15,-31 15,-18 22,-24 10,-21 11,-29 -1,-38 -14,-47 -22,-49 -39,-50 -24,-43 -25,-35 -3,-4 -17,-26 -21,-35 -9,-29 -10,-30 -2,-33 -10,-36 -9,-37 -9,-31 -13,-25 -21,-29 -20,-21 -19,-9 -22,-14 -20,-22 -18,-23 -30,-51 -48,-88 -37,-79 -26,-36 -10,-20 -31,-60 -10,-25 -5,-26 v -20 l -5,-30 -10,-20 -15,-16 -20,-5 -37,-14 -16,-11 -18,-8 -19,-18 -4,-4 -15,-35 10,-29 17,-24 14,-22 2,-12 v -17 l 1,-13 v -12 l 2,-28 15,-17 26,-17 36,-26 45,-36 14,-14 36,-33 42,-34 62,-24 51,-20 42,-24 35,-18 22,-13 12,-6 52,-13 63,-27 67,-35 12,-9 51,-39 14,-9 17,-10 33,-19 21,-15 30,-25 26,-19 21,-24 21,-15 16,-14 14,-10 3,-24 v -16 l 6,-20 6,-25 15,-15 16,-20 16,-19 11,-26 19,-56 9,-18 11,-25 10,-17 16,-19 15,-5 19,-8 13,-16 19,-18 26,-20 30,-15 32,-13 25,-14 35,-9 32,-9 5,-5 21,-19 42,-35 32,-39 16,-25 z"
         id="Warren"
         style="fill:#ff0000;stroke:#000000;stroke-width:85.572;stroke-linecap:butt;stroke-linejoin:round;stroke-miterlimit:4;stroke-dasharray:none;paint-order:normal"
         transform="matrix(0.35058201,0,0,0.35058201,-5220.022,-9069.7721)" />
    </g>
  </g>
  <g
     inkscape:groupmode="layer"
     id="layer2"
     inkscape:label="logo"
     style="display:inline">
    <g
       id="g6392"
       inkscape:export-filename="C:\Users\jmsla\Desktop\RedEyeLogo V4 PNG.png"
       inkscape:export-xdpi="329.56567"
       inkscape:export-ydpi="329.56567"
       transform="matrix(6.4942406,-1.107021,1.107021,6.4942406,-6077.7892,-11869.61)"
       style="opacity:0.13"
       clip-path="url(#clipPath13373)">
      <path
         style="font-size:25.2996px;line-height:0;font-family:Airstrike;-inkscape-font-specification:Airstrike;letter-spacing:0.0175614px;word-spacing:0.026342px;writing-mode:vertical-lr;fill:#ffffff;stroke:#000000;stroke-width:5.93387;stroke-linecap:butt;stroke-linejoin:miter"
         d="m -134.07348,-95.272675 55.206019,66.999364 -38.263049,15.288692 -0.17386,232.608459 92.52542,115.90684 V 168.21062 l 81.55675,59.86127 260.84858,-0.92708 37.52878,-88.42456 H 164.61851 L 141.9319,109.67677 H 246.06651 L 289.51169,19.863358 H 127.23052 c 3.27396,-7.440443 5.26309,-15.8435677 6.05557,-24.7959009 h 161.31824 l 42.38695,-90.3407791 z"
         sodipodi:nodetypes="cccccccccccccccccc"
         id="path3994" />
      <path
         style="font-size:25.2996px;line-height:0;font-family:Airstrike;-inkscape-font-specification:Airstrike;letter-spacing:0.0175614px;word-spacing:0.026342px;writing-mode:vertical-lr;fill:#ff0000;stroke-width:1.87718"
         d="m -64.20711,-18.832798 -40.29224,13.0889775 8.881716,11.3533523 13.823532,-4.5106873 0.981876,0.2806727 -1.713729,20.9665988 9.900478,12.655058 2.8276,-20.883787 c 1.352002,1.484506 2.879348,2.990847 4.582784,4.518374 1.773724,1.536128 3.606516,2.740643 5.497195,3.613753 1.960989,0.881743 3.97815,1.307079 6.051054,1.275632 2.072908,-0.03145 4.114216,-0.833768 6.126217,-2.405591 0.90737,-0.708857 1.816919,-1.57719 2.727852,-2.606449 0.941823,-0.989858 1.681271,-2.076109 2.218523,-3.258077 0.537284,-1.181937 0.763335,-2.437455 0.676612,-3.767084 -0.05577,-1.2902 -0.608312,-2.6060348 -1.656972,-3.9464655 z m -1.314823,14.6513056 9.299048,11.8869237 c 0.370098,0.4731082 0.483256,0.8605316 0.339033,1.1637209 -0.10474,0.2723637 -0.314943,0.5322967 -0.63056,0.778848 l -0.652043,0.5074958 c -0.394516,0.308204 -0.974727,0.540545 -1.742923,0.696072 -0.697915,0.164076 -1.27875,-0.04956 -1.741353,-0.640887 l -7.401191,-9.46139997 -9.338926,-1.09011082 z M -32.116885,22.189638 -72.407621,35.278582 -49.1393,65.024303 c 0.03087,0.03917 0.413851,0.12135 1.147608,0.246851 0.764576,0.16466 1.654657,0.327579 2.669588,0.487556 1.054354,0.129054 2.12803,0.242101 3.22188,0.340366 1.124673,0.137651 2.062846,0.199081 2.813808,0.183948 0.07032,0.0089 0.28601,-3.55e-4 0.645931,-0.0267 0.360065,-0.02668 0.738885,-0.0709 1.138381,-0.128779 0.399528,-0.05784 0.779918,-0.09999 1.139955,-0.127287 0.399526,-0.05815 0.654299,-0.09909 0.764044,-0.121041 l -17.718934,-22.648493 4.568951,-1.47341 9.205447,11.768872 14.604458,2.215497 -10.686001,-13.660884 -9.83909,-1.364551 11.927186,-3.888195 14.248515,18.214473 c 0.246553,0.315384 0.947907,0.561908 2.103437,0.739003 1.186358,0.216585 2.4908,0.340989 3.913859,0.372587 1.453916,0.0709 2.862376,0.08246 4.2237549,0.0353 1.4316935,-0.03857 2.5304355,-0.135574 3.2986349,-0.291352 z m 28.9465197,37.002361 -40.2922787,13.088947 11.519117,14.724912 c 2.405559,3.075114 4.789342,5.595438 7.152621,7.560217 2.394168,2.004229 4.915584,3.560353 7.562296,4.668613 2.716967,1.116842 5.625332,1.828962 8.7267272,2.137302 3.1717702,0.31597 6.7034885,0.32035 10.5939659,0.012 v 9.6e-4 c 2.612978,-0.0724 5.0730094,-0.5025 7.3812244,-1.28943 2.3476445,-0.81777 4.2915475,-1.827616 5.8301395,-3.029623 2.011968,-1.571811 3.252885,-3.398134 3.722048,-5.479663 0.469191,-2.081529 -0.222522,-4.305531 -2.072759,-6.670992 z m -1.2810908,14.81535 7.494767,9.579439 c 0.5859981,0.749084 0.7500107,1.445507 0.4925115,2.09131 -0.1875104,0.654417 -0.6165878,1.243852 -1.287263,1.76779 -0.5128348,0.40065 -1.157845,0.71408 -1.93467719,0.939843 -0.77677221,0.22578 -1.57256351,0.46709 -2.38879671,0.723688 -0.6670546,0.204417 -1.3225988,0.302276 -1.9638409,0.294314 -0.6103882,0.03243 -1.1654998,0.05457 -1.6661704,0.06435 -1.3305212,0.08648 -2.8453476,-0.06435 -4.5459632,-0.450772 -1.630361,-0.377793 -3.259829,-0.914738 -4.886568,-1.612911 -1.626739,-0.698224 -3.149636,-1.509116 -4.570501,-2.431662 -1.381432,-0.953381 -2.488929,-1.962101 -3.321628,-3.026536 l -1.202853,-1.537824 z"
         inkscape:export-filename="C:\Users\jmsla\Desktop\RedEyeLogo.jpg"
         inkscape:export-xdpi="329.56567"
         inkscape:export-ydpi="329.56567"
         id="path2959" />
      <path
         style="font-size:25.2996px;line-height:0;font-family:Airstrike;-inkscape-font-specification:Airstrike;letter-spacing:0.0175614px;word-spacing:0.026342px;writing-mode:vertical-lr;stroke-width:1.87718"
         d="m 27.301217,98.143044 -40.292276,13.088976 23.269829,29.74569 c 0.03083,0.0395 0.413946,0.12149 1.14761,0.24685 0.764637,0.16508 1.653145,0.32774 2.668072,0.48755 1.054358,0.12903 2.129604,0.24359 3.223452,0.34192 1.124647,0.13761 2.061248,0.19758 2.812267,0.18246 0.07032,0.009 0.286014,-3.5e-4 0.645902,-0.0266 0.360068,-0.0266 0.740428,-0.0693 1.139924,-0.12732 0.399498,-0.0582 0.778346,-0.10176 1.138412,-0.1287 0.399528,-0.0578 0.654299,-0.0973 0.764074,-0.11959 l -17.7174213,-22.65002 4.5674143,-1.47192 9.207014,11.76739 14.604429,2.21546 -10.687513,-13.66087 -9.83909,-1.36456 11.928727,-3.88663 14.248486,18.21293 c 0.24685,0.3154 0.947935,0.5619 2.103436,0.73899 1.186356,0.2166 2.490829,0.341 3.913859,0.37256 1.453887,0.0711 2.860864,0.0825 4.222212,0.0351 1.431693,-0.0386 2.53198,-0.13555 3.300148,-0.29136 z m 28.483174,36.410546 -11.224498,19.53458 -19.167303,6.20947 8.881749,11.35338 19.168788,-6.20947 31.022374,5.77557 -9.898958,-12.65507 -13.966183,-2.61872 5.082949,-8.73467 z m 30.841314,39.42484 -40.290726,13.08897 23.268301,29.7457 c 0.03083,0.0395 0.413915,0.12286 1.147609,0.24833 0.764608,0.16507 1.654658,0.32623 2.669587,0.48602 1.054359,0.1292 2.128091,0.24357 3.22194,0.3419 1.124643,0.13763 2.062813,0.19911 2.813788,0.18395 0.07035,0.009 0.284208,-9.7e-4 0.644345,-0.0266 0.360102,-0.0266 0.740435,-0.0693 1.13997,-0.12733 0.399534,-0.0578 0.779833,-0.1014 1.139919,-0.12869 0.399534,-0.0578 0.654314,-0.0973 0.76408,-0.11959 l -17.718976,-22.65005 4.568986,-1.47187 9.205455,11.76735 14.604454,2.21548 -10.686018,-13.66085 -9.839082,-1.36458 11.927184,-3.88664 14.248487,18.21445 c 0.246852,0.31543 0.947962,0.56039 2.103452,0.73749 1.18637,0.21659 2.49078,0.34097 3.91382,0.37255 1.45391,0.0711 2.86246,0.0823 4.22384,0.0355 1.43164,-0.0386 2.53039,-0.13556 3.29862,-0.29137 z"
         inkscape:export-filename="C:\Users\jmsla\Desktop\RedEyeLogo.jpg"
         inkscape:export-xdpi="329.56567"
         inkscape:export-ydpi="329.56567"
         id="path2961" />
      <path
         style="fill:#ff0000;stroke:none;stroke-width:1.63716px;stroke-linecap:butt;stroke-linejoin:miter;stroke-opacity:1"
         d="M -103.79795,6.9657473 V 214.94141 l 65.508304,83.0879 V 140.97729 l 97.598144,74.18563 z"
         sodipodi:nodetypes="cccccc"
         inkscape:export-filename="C:\Users\jmsla\Desktop\RedEyeLogo.jpg"
         inkscape:export-xdpi="329.56567"
         inkscape:export-ydpi="329.56567"
         id="path2963" />
      <path
         style="font-size:192px;line-height:1.25;font-family:'Franklin Gothic Medium';-inkscape-font-specification:'Franklin Gothic Medium, ';white-space:pre;fill:#000000;stroke:none;stroke-width:0.695454;stroke-miterlimit:4;stroke-dasharray:none"
         d="m 18.725062,-81.782995 -122.749912,0.01788 65.647236,82.8314016 -0.285125,-28.1726556 61.9108,-0.838662 C 93.061275,-28.889985 51.814694,16.441509 2.490008,54.581182 L 128.49185,214.99119 c 59.86397,0 119.72793,0 179.59191,0 l 26.4754,-62.76173 H 158.02746 L 81.359569,54.065998 c 0,0 39.142741,-27.66542 39.142741,-65.289981 0,-25.199255 -10.02155,-40.091772 -20.14635,-48.944472 C 83.067543,-75.284794 53.913948,-81.788044 18.725122,-81.783592 Z"
         inkscape:export-filename="C:\Users\jmsla\Desktop\RedEyeLogo.jpg"
         inkscape:export-xdpi="329.56567"
         inkscape:export-ydpi="329.56567"
         sodipodi:nodetypes="cccccccccccsscc"
         id="path2965" />
      <path
         style="fill:#000000;stroke:none;stroke-width:1.73824px;stroke-linecap:butt;stroke-linejoin:miter;stroke-opacity:1"
         d="m 86.363066,-81.765406 c 7.970392,3.44405 15.151674,7.777431 21.347454,13.194781 10.98278,9.602891 21.83005,25.981838 23.66565,50.132724 h 154.02557 l 30.12334,-63.327505 z M 116.98193,33.372157 c -6.67285,9.770902 -14.33873,17.356576 -20.126194,22.389384 l 31.560884,40.410664 h 108.1088 l 29.68142,-62.800048 z"
         inkscape:export-filename="C:\Users\jmsla\Desktop\RedEyeLogo.jpg"
         inkscape:export-xdpi="329.56567"
         inkscape:export-ydpi="329.56567"
         id="path2967" />
      <path
         style="font-size:15.5222px;line-height:1.25;font-family:Airstrike;-inkscape-font-specification:Airstrike;letter-spacing:-0.269952px;fill:#ff0000;stroke:#000000;stroke-width:8.90083;stroke-linecap:square;stroke-linejoin:miter;stroke-miterlimit:3;stroke-dasharray:none;paint-order:stroke fill markers"
         d="m -1.3570687,248.07545 c -0.4301463,0.42977 -0.8907039,0.90557 -1.3823232,1.42742 -0.4916809,0.49118 -0.9996184,1.01285 -1.5219765,1.5654 -0.4916517,0.55254 -0.967457,1.12017 -1.4283697,1.70339 -0.4302065,0.55252 -0.7989076,1.07425 -1.1061633,1.56542 H 11.548969 c 0.276813,0 0.414272,0.18364 0.414272,0.55194 0,0.52182 -0.152802,0.93644 -0.460288,1.24342 l -0.185436,0.23144 c 0,0.0305 -0.09168,0.10708 -0.276221,0.22991 -0.184246,0.0923 -0.337369,0.16851 -0.460288,0.22996 -0.2154,0.12285 -0.507318,0.27592 -0.8760482,0.45997 -0.3688194,0.1534 -0.5692346,0.22993 -0.5998829,0.22993 H 0.34761032 c -0.7989041,0 -1.71992832,0.24625 -2.76470462,0.73749 -1.0447455,0.46043 -2.0744199,1.05863 -3.0884281,1.79537 -1.014039,0.70604 -1.9671955,1.47409 -2.8582838,2.30289 -0.8911175,0.8288 -1.5811089,1.57999 -2.0727568,2.25533 -0.553127,0.79809 -0.984577,1.62733 -1.291833,2.48687 -0.307287,0.85948 -0.460261,1.67339 -0.460261,2.44084 0,0.82882 0.198786,1.53413 0.598341,2.11736 0.430205,0.55254 1.09112,0.82947 1.9822665,0.82947 H 11.364989 c 0.491651,-0.46047 1.028695,-1.04335 1.612497,-1.74938 0.614572,-0.70605 1.183719,-1.38231 1.706106,-2.02689 0.553066,-0.64466 1.013623,-1.19696 1.382323,-1.65741 l 0.552354,-0.73749 H -2.0488686 c -0.337993,0 -0.5063057,-0.10707 -0.5063057,-0.32196 l 0.8745023,-1.5194 c 0.1842467,-0.24567 0.4001213,-0.45982 0.64593,-0.64393 0.24566112,-0.21484 0.49215618,-0.32198 0.73799413,-0.32198 H 8.9209775 c 0.8911199,0 1.8748325,-0.23112 2.9503485,-0.69146 1.106191,-0.46048 2.181704,-1.04338 3.226478,-1.7494 1.075514,-0.73674 2.05923,-1.52006 2.950349,-2.34886 0.921855,-0.85956 1.659315,-1.67345 2.212382,-2.4409 0.49168,-0.70602 0.86035,-1.45721 1.106191,-2.25531 0.276814,-0.82885 0.414243,-1.64274 0.414243,-2.44088 0,-0.98228 -0.231125,-1.81152 -0.691949,-2.48687 -0.430175,-0.67535 -1.121708,-1.01191 -2.074301,-1.01191 z m 26.4380957,0 -5.715082,15.65556 h 15.718304 l 4.746973,-4.78974 -4.932613,13.5382 h 8.85104 l 8.895516,-24.40402 h -8.849468 l -3.458197,9.4384 h -9.955691 l 3.456654,-9.4384 z m 48.13066,0 c -0.430202,0.27623 -0.951909,0.73678 -1.56648,1.38143 -0.583832,0.61392 -1.168259,1.25801 -1.752092,1.93338 -0.553095,0.6753 -1.044242,1.28882 -1.474387,1.84136 -0.399467,0.55254 -0.615194,0.89064 -0.645932,1.01344 v 0.046 h 12.398173 l -17.514885,18.1884 h 9.311331 l 24.336137,-24.40405 z m 36.468903,0 -8.89552,24.40402 h 8.8495 l 3.22652,-8.84049 h 12.95205 c 1.04477,0 2.13564,-0.2157 3.27253,-0.64542 1.13695,-0.4298 2.18191,-1.02798 3.13447,-1.7954 0.95259,-0.79813 1.73591,-1.73447 2.35047,-2.80886 0.61457,-1.07437 0.92206,-2.25705 0.92206,-3.54629 0,-0.61395 -0.0765,-1.30396 -0.23024,-2.07135 -0.12286,-0.79814 -0.36924,-1.53558 -0.73799,-2.21086 -0.33796,-0.70605 -0.81377,-1.28896 -1.42837,-1.74942 -0.58383,-0.49117 -1.33813,-0.73593 -2.25994,-0.73593 z m 30.31048,0 -8.89554,24.40402 h 20.23357 c 0.43022,-0.33769 0.96877,-0.84407 1.61404,-1.51942 0.64531,-0.706 1.26035,-1.39754 1.84417,-2.07286 0.58382,-0.70607 1.05963,-1.31953 1.42835,-1.84138 0.39945,-0.52187 0.58302,-0.78348 0.55234,-0.78348 h -14.6106 l 6.63716,-18.18688 z m 25.00968,0 -3.64075,10.22188 c -0.2768,1.0437 -0.55348,1.96474 -0.83003,2.76283 -0.27681,0.76744 -0.49234,1.54919 -0.64592,2.34732 -0.0614,0.42978 -0.10742,0.81381 -0.13813,1.15146 -0.0309,0.33764 -0.046,0.67575 -0.046,1.01343 0,1.22793 0.18513,2.28662 0.55387,3.17681 0.36877,0.85954 0.98377,1.56634 1.84415,2.1189 0.86039,0.55257 2.01241,0.96717 3.45666,1.2434 1.44422,0.24567 3.25719,0.36799 5.4389,0.36799 h 5.39283 c 1.84369,0 3.42563,-0.27682 4.74696,-0.82945 1.3213,-0.58325 2.48866,-1.42777 3.50265,-2.53287 1.01407,-1.10506 1.92129,-2.45446 2.72024,-4.05074 0.79892,-1.62691 1.58223,-3.49955 2.35044,-5.61763 l 4.1486,-11.37333 h -8.75748 l -4.97858,13.67465 c -0.21541,0.42976 -0.50734,0.90555 -0.87606,1.42742 -0.36875,0.52186 -0.79864,1.01294 -1.2903,1.47342 -0.49166,0.46047 -1.05927,0.84447 -1.70452,1.15142 -0.61456,0.30696 -1.29082,0.45997 -2.02829,0.45997 h -2.25837 c -0.70677,0 -1.36769,-0.29077 -1.98225,-0.87396 -0.58384,-0.61389 -0.87607,-1.45844 -0.87607,-2.53283 0,-0.36837 0.0765,-0.85945 0.23024,-1.47341 0,-0.092 0.0305,-0.24505 0.092,-0.45995 0.0613,-0.24567 0.23112,-0.79786 0.50783,-1.6574 0.27682,-0.85952 0.70646,-2.14924 1.2903,-3.86828 0.58386,-1.74972 1.41306,-4.18994 2.48854,-7.32105 z m 30.63417,0 -8.89706,24.40402 h 8.85106 l 4.97707,-13.72217 2.53458,13.72217 h 3.18049 l 12.5378,-13.72217 -4.9786,13.72217 h 8.84949 l 8.89707,-24.40402 h -11.15544 l -11.29203,12.24723 -2.35047,-12.24723 z m 37.73166,0 -8.89708,24.40402 h 21.15717 c 1.62863,0 2.97955,-0.10707 4.055,-0.32197 1.10621,-0.24564 2.04404,-0.59898 2.81226,-1.05946 0.76822,-0.49115 1.39854,-1.11993 1.89017,-1.88734 0.52241,-0.76746 1.01349,-1.68846 1.47443,-2.76284 l 0.18395,-0.50751 c 0.15341,-0.39904 0.30815,-0.81364 0.46184,-1.24344 0.1534,-0.42972 0.23022,-0.85965 0.23022,-1.28943 -0.0305,-0.61395 -0.18513,-1.16625 -0.46179,-1.65738 -0.27682,-0.52187 -0.58253,-0.92118 -0.92055,-1.19742 0.36875,-0.18426 0.76805,-0.45952 1.19824,-0.82795 0.46092,-0.39902 0.87556,-0.84427 1.24427,-1.33543 0.39948,-0.52184 0.7223,-1.07413 0.96812,-1.65739 0.27681,-0.58322 0.41421,-1.18143 0.41421,-1.79537 v -0.092 c 0,-0.85955 -0.0765,-1.70406 -0.23021,-2.53288 -0.12286,-0.8288 -0.36923,-1.55091 -0.73802,-2.16485 -0.33795,-0.61396 -0.81377,-1.10504 -1.42833,-1.47341 -0.58384,-0.39909 -1.33657,-0.59796 -2.25842,-0.59796 z m 31.04688,0 -8.89554,24.40402 h 8.84953 l 8.89552,-24.40402 z m 10.72129,0 -8.89554,24.40402 h 8.84953 l 4.97858,-13.72217 2.58059,13.72217 h 11.15396 l 8.89708,-24.40402 h -8.75747 l -5.02464,13.72067 -2.62663,-13.72067 h -5.0245 z m 37.0412,0 c -1.62863,0 -3.16621,0.4146 -4.61041,1.24344 -1.44421,0.7981 -2.71862,1.84152 -3.82489,3.13081 -1.10621,1.28927 -1.98287,2.71664 -2.62812,4.28221 -0.64532,1.56555 -0.96658,3.08479 -0.96658,4.55822 0,2.21019 0.42989,4.0369 1.2903,5.47969 0.89112,1.44273 2.05846,2.59325 3.50268,3.45277 1.4442,0.82884 3.07204,1.41173 4.88503,1.7494 1.81291,0.33765 3.67335,0.50748 5.57848,0.50748 h 6.86724 l 5.76111,-15.19558 H 316.9689 c -0.4302,0.33765 -0.92131,0.82875 -1.47442,1.47341 -0.52237,0.61393 -1.03029,1.24431 -1.52195,1.88889 -0.49162,0.61396 -0.92156,1.18155 -1.2903,1.70341 -0.33808,0.49108 -0.52163,0.78175 -0.55233,0.8739 v 0.046 h 5.20721 l -1.06013,2.9928 h -2.71868 c -0.55315,0 -1.12227,-0.18366 -1.7061,-0.55196 -0.55307,-0.36837 -1.07479,-0.82883 -1.56645,-1.38139 -0.46094,-0.55257 -0.84496,-1.15077 -1.15223,-1.79539 -0.27654,-0.67534 -0.41578,-1.3041 -0.41578,-1.88738 0,-0.46044 0.12372,-1.09081 0.36975,-1.88891 0.18425,-0.52185 0.42918,-1.04355 0.73647,-1.56541 0.30727,-0.55254 0.64539,-1.04366 1.01412,-1.47339 0.39945,-0.42977 0.83092,-0.76789 1.29182,-1.01346 0.46095,-0.27621 0.93676,-0.41397 1.4284,-0.41397 h 11.98395 c 1.07548,-0.92091 2.05927,-1.88783 2.95035,-2.90081 0.92186,-1.04372 1.82757,-2.14829 2.71866,-3.31479 z m -195.95027,6.26163 h 9.44942 c 0.0614,0 0.19877,0.13778 0.4142,0.41394 0.24594,0.24565 0.4157,0.44598 0.50784,0.59949 v 0.092 c 0.0306,0.0613 0.0599,0.10707 0.0905,0.13795 l -0.0905,0.22994 c -0.0305,0.0923 -0.10844,0.22995 -0.23172,0.41397 -0.0923,0.15339 -0.19907,0.32329 -0.32216,0.50747 -0.12285,0.18426 -0.24537,0.35243 -0.36819,0.50596 -0.0923,0.12286 -0.15341,0.18393 -0.18397,0.18393 h -7.37507 l -4.42476,3.91428 z m 123.68595,0 h 9.44788 c 0.0613,0 0.20054,0.13778 0.41573,0.41394 0.24596,0.24565 0.41416,0.44598 0.50631,0.59949 v 0.092 c 0.0305,0.0613 0.0616,0.10707 0.092,0.13795 l -0.092,0.22994 c -0.0305,0.0923 -0.10708,0.22995 -0.22992,0.41397 -0.0923,0.15339 -0.19937,0.32329 -0.32222,0.50747 -0.12285,0.18426 -0.24656,0.35243 -0.36973,0.50596 -0.0923,0.12286 -0.1534,0.18393 -0.18396,0.18393 h -7.3751 l -4.42478,3.91428 z m -184.980415,2.94681 -6.591127,6.21713 H 58.98774 l 6.5911,-6.21713 z m 181.845935,5.84764 h 10.60011 c 0,0.21482 -0.0138,0.43058 -0.0458,0.64546 0,0.2148 -0.0305,0.36787 -0.092,0.45997 l -0.092,0.22994 c -0.0305,0.0305 -0.10707,0.16833 -0.23023,0.41392 l -0.18395,0.32353 c -0.0923,0.0923 -0.23023,0.19938 -0.41424,0.32198 -0.18455,0.0923 -0.36941,0.19936 -0.55387,0.32196 -0.18425,0.0923 -0.35257,0.18395 -0.50631,0.27594 l -0.23025,0.092 h -9.44937 z"
         inkscape:export-filename="C:\Users\jmsla\Desktop\RedEyeLogo.jpg"
         inkscape:export-xdpi="329.56567"
         inkscape:export-ydpi="329.56567"
         sodipodi:nodetypes="cccccsscccccssccscsscscccccscccsscccccsccccccccccccccccccccccccccccccsscsscccscccccccsccccccccscscsscscccccsscsscsccccccccccccccccccccccsccccccccccccsscccsccccccccccccccccccscsssccssccccccccccscccsccccscccscsccccccccsccccsccccccscsccccccccccccccccccccc"
         id="path2969" />
    </g>
  </g>
  <g
     inkscape:groupmode="layer"
     id="layer4"
     inkscape:label="nonred"
     style="display:inline">
    <path
       d="m 3354,-11591 71,40 105,56 -56,147 -82,211 -15,36 -41,106 -36,100 -10,16 -25,75 -11,20 -20,46 -10,25 -5,15 -5,20 -26,71 -10,15 -56,151 -61,156 -11,26 -20,55 15,10 36,35 21,21 46,100 11,25 20,36 36,50 15,25 108,96 98,45 143,10 82,10 210,29 41,-55 31,-5 25,20 108,85 36,20 46,41 -15,35 -5,35 -26,41 -15,75 -10,10 -16,15 -5,21 21,20 h 15 l 10,5 11,5 10,25 21,40 5,10 v 10 l -5,15 -6,5 -10,16 -5,15 v 15 l 16,25 35,15 21,5 10,5 11,25 v 25 l -11,71 -5,106 1,25 v 10 l 5,15 5,10 15,101 6,15 5,10 10,10 10,5 5,5 11,5 5,5 h 5 l 36,51 5,5 36,55 46,181 -30,36 -36,-61 -11,-10 -5,5 -30,10 -5,41 5,35 v 35 l -15,101 25,60 5,10 v 36 l -5,20 v 10 l -5,10 -10,30 -5,10 -15,15 -16,5 -41,16 -174,-126 -585,-442 -77,-60 -31,-61 -30,-60 -21,-56 -31,10 -15,66 -87,56 -20,-16 -16,-10 -21,-45 -5,-5 -5,-10 v -45 l -5,-10 v -10 l -5,-6 -57,-15 16,-45 25,-50 5,-31 16,-35 -11,-25 -20,-15 -26,-10 -25,-5 -41,-15 -31,-20 -16,-20 -30,-56 v -35 l 15,-30 36,-76 25,-96 10,-85 -20,-56 -6,-15 16,-55 -11,-41 -25,-70 -16,-25 -51,-5 h -41 l -15,-20 v -15 l 5,-26 20,-35 31,-30 -11,-56 -20,-40 -46,-15 -82,15 -41,-40 -62,-5 -76,-5 -26,-50 -26,-10 -51,5 -51,-5 h -26 l -20,-65 -6,-15 -35,10 -31,-5 -62,25 -66,5 h -26 l -56,-5 -41,-20 -5,-30 -57,-71 -46,-25 -31,-15 -46,-15 h -36 l -30,21 -16,30 -10,20 -41,20 -36,-15 v -40 l 16,-30 20,-41 10,-30 -15,-35 -82,-101 -36,-40 -31,-25 -46,-20 -97,55 -123,46 -36,30 -26,25 -20,25 -31,31 -25,10 -26,-10 -16,-61 11,-50 40,-136 31,-40 10,-5 16,-1 25,-25 16,-30 15,-30 -5,-20 -11,-61 -61,-70 -82,-30 25,-36 92,-111 1013,-1162 280,186 72,46 66,35 z"
       id="Passaic"
       style="fill:#4d4d4d;stroke:#000000;stroke-width:28.524;stroke-miterlimit:4;stroke-dasharray:none"
       transform="matrix(0.35058201,0,0,0.35058201,-5220.022,-9069.7721)" />
    <path
       d="m -977,-3599 16,30 72,181 15,35 41,111 31,70 41,101 26,30 527,-192 62,-5 220,50 16,50 10,26 5,35 v 40 l -50,252 -21,66 -5,50 26,70 5,61 10,40 62,-5 h 46 l 36,30 56,80 62,10 41,10 15,21 36,50 164,100 36,51 41,20 52,5 66,10 16,5 15,-5 36,-16 31,-10 36,15 20,36 56,30 52,45 36,5 51,5 41,10 20,15 62,25 31,20 5,35 -30,187 h -6 l -10,5 -5,10 v 20 l 5,10 10,10 6,5 20,20 10,20 6,21 -6,5 -15,10 -25,15 -16,10 -20,10 -5,5 -31,15 -26,15 -15,10 -10,5 -82,51 -77,45 h -5 l -113,61 -72,35 -10,10 -15,11 -5,10 -11,15 -5,25 -10,35 -10,10 -15,10 -6,10 -25,36 -10,15 -6,10 -25,50 -31,46 -36,40 -61,5 h -5 l -16,5 -5,5 -20,5 -16,10 -41,10 -30,16 -11,20 -15,10 -46,-10 -21,-71 -61,31 -46,30 185,463 -10,5 -72,10 -179,-40 -16,-15 v -45 l -20,-36 -103,-25 -72,-55 -108,-50 -71,-50 h -62 l -26,-15 21,-36 v -35 l -5,-10 -5,-20 -31,-20 h -26 l -41,5 -41,-5 -20,-10 -26,-25 -31,-20 h -41 l -15,5 -16,15 -20,25 v 25 l 5,21 10,20 11,25 -5,25 15,20 26,25 -51,91 -16,30 -51,35 -41,-10 4,-8 15,-38 -2,-62 -17,-48 -26,-44 -34,-44 -30,-25 -6,-6 -22,-21 -17,-21 -9,-5 -36,-15 -20,-10 -21,-15 -25,-21 -21,-19 -15,-26 -7,-18 -11,-31 -3,-26 -10,-25 -21,-30 -18,-35 -15,-36 -14,-30 -20,-36 -20,-29 -10,-11 -19,-17 -34,-33 -26,-14 -50,-42 -46,-29 -5,-3 -41,-27 -36,-21 -46,-22 -42,-18 -36,-18 -61,-41 -61,-36 -19,-8 -17,-17 -3,-4 -13,-16 -16,-30 -25,-41 -21,-34 -11,-39 -19,-37 -16,-43 -15,-53 -22,-59 -20,-46 -40,-71 -14,-17 -22,-28 -32,-42 -44,-53 -41,-53 -23,-15 -21,-15 -25,-21 -19,-7 -31,-15 -21,-5 -25,-6 -31,-6 -35,-11 -31,-19 -5,-2 -23,-23 -34,-29 -62,-70 -20,-25 -21,-26 -28,-34 674,-67 -98,-352 563,-107 -51,-332 z"
       id="Mercer"
       style="fill:#4d4d4d;stroke:#000000;stroke-width:28.524;stroke-miterlimit:4;stroke-dasharray:none"
       transform="matrix(0.35058201,0,0,0.35058201,-5220.022,-9069.7721)" />
    <path
       d="m -879,4083 139,116 379,311 52,66 36,40 5,30 5,45 21,41 36,70 5,50 -21,56 -10,50 16,86 -16,60 11,70 25,20 21,46 36,15 31,25 h 20 l 26,10 20,-10 16,-20 h 15 l 10,15 6,20 -6,30 16,15 20,-15 52,-55 30,15 113,50 134,100 123,136 103,15 51,15 41,15 31,15 36,60 154,111 20,25 11,60 20,5 26,-30 20,-5 31,20 20,15 21,15 15,-5 36,10 21,36 41,25 26,55 15,10 46,-20 21,5 20,25 46,30 41,-10 31,-20 36,-5 15,25 6,30 10,30 20,10 h 6 l 20,-10 5,-45 5,-56 16,-15 30,5 21,20 v 10 l -21,66 16,60 51,41 52,-6 10,-50 -47,-70 -10,-31 57,-15 46,35 46,-40 31,-25 15,40 21,71 10,70 36,96 -41,15 v 35 l -5,116 87,95 -5,91 42,70 133,126 26,70 -31,41 -61,-15 -21,-51 -87,-10 -46,56 15,35 57,5 51,90 -15,41 h -52 l -20,40 15,60 36,51 47,95 -72,46 -41,30 -51,-40 -26,-40 -36,-56 -26,-75 10,-41 v -10 l -25,-5 -82,-9 -11,-41 -46,-5 -20,25 10,71 -25,50 -67,-5 -36,61 -5,171 -36,70 -128,41 -30,35 25,126 1,116 51,-46 82,-25 87,-10 97,30 47,30 v 30 l -11,30 6,21 h 10 l 20,-1 52,10 20,16 11,35 -11,25 -5,20 11,10 56,10 31,5 20,20 11,40 10,36 5,20 5,25 v 10 l 5,15 -56,45 -108,66 -107,71 -92,55 -77,30 -103,41 -87,30 -72,51 -76,70 -72,51 -46,30 -36,40 -41,46 -36,15 -36,-5 h -20 l -16,-10 5,-20 21,-51 25,-25 31,-35 15,-35 16,-46 v -50 l 10,-30 5,-36 36,-15 46,-25 26,-15 30,-25 21,-20 25,-26 6,-5 10,-40 h -26 l -26,-30 57,-30 56,-66 v -15 l 5,-25 -5,-66 -10,-25 -57,-30 -97,-5 -31,5 -87,41 -10,75 -21,126 -35,25 -41,56 -5,100 -52,6 -36,-21 -61,-40 -31,15 -20,41 -52,111 36,70 16,65 -41,51 -56,60 -72,5 -72,-40 -154,-10 -77,46 -72,5 -51,-30 -31,-36 -25,-4 -36,35 -26,35 -36,-10 -46,-30 -56,-30 -57,55 47,35 41,66 -41,55 -5,-25 v -30 l -26,-35 -31,5 -20,5 -26,15 -15,20 -6,15 -25,30 h -5 l -5,-20 v -15 l -16,-35 h -5 l -10,5 -26,20 -26,5 -25,10 -26,10 -15,11 -31,10 h -31 l -15,-15 -10,-15 -26,-11 -15,11 h -11 l -10,-10 h -15 l -10,15 -26,15 -26,-5 -15,-25 -21,-25 h -31 l -20,-10 -41,-11 -31,6 -36,10 -61,10 -41,20 -26,-25 -10,-30 -16,-20 -20,20 -26,20 -31,-20 -56,-15 -31,10 -10,-10 v -25 l 5,-25 -56,-15 -31,-11 -26,11 -15,15 -21,-5 -15,-20 -31,-5 -15,-5 h -5 l -36,30 -87,-15 -67,10 -41,-15 -26,-20 -36,-61 -36,-5 -82,-25 -51,-10 -36,-25 -26,-75 v -106 l 15,-166 31,-111 30,-80 16,-46 5,-50 v -40 l -5,-30 -11,-41 -15,-35 -16,-35 -10,-30 5,-40 11,-21 15,-35 5,-20 10,-30 v -40 l -15,-36 -5,-30 -6,-75 -1098,-1006 931,-1032 425,-479 574,-635 z"
       id="3050"
       style="fill:#4d4d4d;stroke:#000000;stroke-width:28.524;stroke-miterlimit:4;stroke-dasharray:none"
       transform="matrix(0.35058201,0,0,0.35058201,-5220.022,-9069.7721)" />
    <path
       d="m 6224,-9981 -22,174 -23,92 -56,227 -33,135 -58,222 -34,131 -50,135 -54,155 -14,41 -106,279 -115,268 -13,29 -50,117 -57,110 -66,116 -15,26 -36,-21 10,-35 -108,-116 -51,-20 -57,-75 -20,-5 -46,50 -62,16 -36,45 -71,40 -87,11 h -16 l -102,45 -87,81 -87,101 -25,96 25,70 -10,66 -46,25 -41,-10 -20,-30 5,-111 -6,-25 -97,20 -82,66 -36,-10 -30,-66 -31,-30 -41,-55 -62,-15 26,-71 51,-91 -5,-50 -1,-50 31,-81 15,-35 41,-16 16,-5 15,-15 5,-10 10,-30 5,-10 v -10 l 5,-20 v -36 l -5,-10 -25,-60 15,-101 v -35 l -5,-35 5,-41 30,-10 5,-5 11,10 36,61 30,-36 -46,-181 -36,-55 -5,-5 -36,-51 h -5 l -5,-5 -11,-5 -5,-5 -10,-5 -10,-10 -5,-10 -6,-15 -15,-101 -5,-10 -5,-15 v -10 l -1,-25 5,-106 11,-71 v -25 l -11,-25 -10,-5 -21,-5 -35,-15 -16,-25 v -15 l 5,-15 10,-16 6,-5 5,-15 v -10 l -5,-10 -21,-40 -10,-25 -11,-5 -10,-5 h -15 l -21,-20 5,-21 16,-15 10,-10 15,-75 26,-41 5,-35 15,-35 -46,-41 -36,-20 -108,-85 -25,-20 -31,5 -41,55 -210,-29 -82,-10 -143,-10 -98,-45 -108,-96 -15,-25 -36,-50 -20,-36 -11,-25 -46,-100 -21,-21 -36,-35 -15,-10 20,-55 11,-26 61,-156 56,-151 10,-15 26,-71 5,-20 5,-15 10,-25 20,-46 11,-20 25,-75 10,-16 36,-100 41,-106 15,-36 82,-211 56,-147 502,271 1086,634 203,123 138,76 663,379 35,19 z"
       id="Bergen"
       style="fill:#4d4d4d;stroke:#000000;stroke-width:28.524;stroke-miterlimit:4;stroke-dasharray:none"
       transform="matrix(0.35058201,0,0,0.35058201,-5220.022,-9069.7721)" />
    <path
       d="m -783,-579 41,10 51,-35 16,-30 51,-91 -26,-25 -15,-20 5,-25 -11,-25 -10,-20 -5,-21 v -25 l 20,-25 16,-15 15,-5 h 41 l 31,20 26,25 20,10 41,5 41,-5 h 26 l 31,20 5,20 5,10 v 35 l -21,36 26,15 h 62 l 71,50 108,50 72,55 103,25 20,36 v 45 l 16,15 179,40 72,-10 10,-5 216,443 93,176 25,55 10,20 16,40 10,21 41,95 6,10 41,106 67,141 20,40 77,241 72,161 26,56 5,15 v 10 l 11,15 5,20 25,56 6,20 10,25 20,45 11,25 10,25 10,31 52,125 20,66 11,25 15,30 5,15 41,96 11,35 25,65 11,15 10,21 5,20 10,30 47,111 128,291 11,20 72,177 56,140 103,257 16,35 5,10 15,40 31,71 5,15 247,568 -39,1395 -10,236 1,51 v 95 l -5,81 -5,20 -5,10 -11,20 -5,10 -5,20 -5,5 -5,26 -15,45 v 30 l -6,20 -5,25 -15,21 -5,25 -10,15 -41,5 -26,-5 h -15 l -21,5 -10,10 h -16 l 6,25 15,30 v 46 l -25,15 -31,25 -46,40 -46,-35 -57,15 10,31 47,70 -10,50 -52,6 -51,-41 -16,-60 21,-66 v -10 l -21,-20 -30,-5 -16,15 -5,56 -5,45 -20,10 h -6 l -20,-10 -10,-30 -6,-30 -15,-25 -36,5 -31,20 -41,10 -46,-30 -20,-25 -21,-5 -46,20 -15,-10 -26,-55 -41,-25 -21,-36 -36,-10 -15,5 -21,-15 -20,-15 -31,-20 -20,5 -26,30 -20,-5 -11,-60 -20,-25 -154,-111 -36,-60 -31,-15 -41,-15 -51,-15 -103,-15 -123,-136 -134,-100 -113,-50 -30,-15 -52,55 -20,15 -16,-15 6,-30 -6,-20 -10,-15 h -15 l -16,20 -20,10 -26,-10 h -20 l -31,-25 -36,-15 -21,-46 -25,-20 -11,-70 16,-60 -16,-86 10,-50 21,-56 -5,-50 -36,-70 -21,-41 -5,-45 -5,-30 -36,-40 -52,-66 -379,-311 -139,-116 -113,-90 -51,-31 -57,-20 -51,-45 -41,-30 -10,-25 -11,-30 -15,-5 -31,-20 -15,-21 -47,-110 -61,-25 -67,-91 -51,-35 -77,-35 -67,-15 -102,-5 -67,5 -51,5 -57,25 -77,26 -61,10 -36,5 h -46 l -56,-10 -42,-25 -25,-25 -26,-25 -88,-368 -139,-579 -15,-80 -41,-45 -31,-36 -41,-35 -5,-25 -26,-35 -46,-50 -10,-66 -16,-30 -46,-70 -41,-41 -77,-10 -57,-30 -30,-40 5,-30 31,-15 -1,-21 26,-10 15,-10 v -25 l -30,-15 -62,10 -36,-5 h -20 l -36,-5 -10,-5 -26,-20 -26,-5 -25,-15 -21,-15 -26,-10 -30,-10 -16,-20 5,-20 16,-21 10,-10 13,-22 -3,-18 -20,-25 -26,-60 -10,-31 20,-30 15,-25 6,-20 5,-20 10,-20 20,-16 11,-10 -21,-25 -26,-30 -10,-25 -31,-25 -20,-30 -26,-10 -31,5 -36,-5 -20,-16 -21,-15 -20,5 -31,6 -25,5 -36,35 -77,-30 5,-10 16,-30 15,-31 10,-35 22,-34 12,-24 27,-28 20,-22 31,-19 37,-19 41,-14 42,-14 55,-18 53,-26 20,-12 28,-20 37,-27 4,-3 37,-28 32,-29 9,-11 23,-29 43,-49 21,-24 31,-24 35,-30 23,-19 13,-11 52,-31 64,-32 105,-69 82,-55 40,-23 41,-9 h 12 l 29,1 57,-4 31,-3 31,-9 31,-10 36,-9 31,-9 27,-12 41,-15 46,-15 38,-14 31,-16 32,-13 29,-13 31,-14 16,-15 20,-21 14,-21 14,-22 18,-22 21,-19 25,-18 36,-18 31,-20 26,-21 19,-25 10,-35 6,-45 17,-40 10,-38 20,-33 19,-26 21,-20 26,-10 31,-10 h 35 l 36,10 47,19 4,2 47,24 29,8 26,5 6,2 h 26 l 24,-4 21,-10 21,-16 5,-3 21,-20 26,-19 25,-23 31,-21 33,-14 6,-2 25,-9 41,-5 39,-1 h 28 l 26,-8 37,-24 36,-29 42,-34 40,-41 z"
       id="Burlington"
       style="fill:#4d4d4d;stroke:#000000;stroke-width:28.524;stroke-miterlimit:4;stroke-dasharray:none"
       transform="matrix(0.35058201,0,0,0.35058201,-5220.022,-9069.7721)" />
    <path
       d="m -3646,1172 77,30 36,-35 25,-5 31,-6 20,-5 21,15 20,16 36,5 31,-5 26,10 20,30 31,25 10,25 26,30 21,25 -11,10 -20,16 -10,20 -5,20 -6,20 -15,25 -20,30 10,31 26,60 20,25 3,18 -13,22 -10,10 -16,21 -5,20 16,20 30,10 26,10 21,15 25,15 26,5 26,20 10,5 36,5 h 20 l 36,5 62,-10 30,15 v 25 l -15,10 -26,10 1,21 -31,15 -5,30 30,40 57,30 77,10 41,41 46,70 16,30 10,66 46,50 26,35 5,25 41,35 31,36 41,45 15,80 139,579 88,368 26,25 25,25 42,25 56,10 h 46 l 36,-5 61,-10 77,-26 57,-25 51,-5 67,-5 102,5 67,15 77,35 51,35 67,91 61,25 47,110 15,21 31,20 15,5 11,30 10,25 41,30 51,45 57,20 51,31 113,90 -220,247 -574,635 -425,479 -56,-41 -67,-70 v -20 l -5,-20 -5,-56 -36,-20 -31,-15 -20,-50 -21,-96 -26,-186 -15,-80 -83,-136 -56,-45 -16,-56 -56,-50 -251,-70 -123,-50 -118,-71 -26,-70 -113,-96 -72,-20 -41,-35 5,-106 v -75 l -21,-40 -66,-81 -47,-60 -36,-46 -10,-45 -20,-40 -36,-40 -31,-15 -51,-41 -47,-45 -25,-55 -11,-10 -25,-15 -16,-41 v -75 l -77,-65 -41,-36 v -85 l 31,-61 v -90 l -6,-20 11,-61 -21,-35 -56,-55 -88,-51 -46,-50 -61,-40 -31,-66 -26,-45 -46,-30 -31,-20 10,-35 -25,-51 -67,-40 6,-7 25,-33 25,-40 16,-36 10,-45 3,-16 5,-34 1,-45 -5,-30 -9,-31 -14,-40 -9,-31 -9,-45 -9,-46 -3,-46 -4,-40 -4,-44 7,-40 4,-27 13,-34 12,-25 25,-30 33,-32 9,-10 16,-11 47,-34 69,-44 62,-23 36,-12 66,-21 67,-20 57,-28 40,-32 37,-32 31,-36 30,-33 z"
       id="Camden"
       style="fill:#4d4d4d;stroke:#000000;stroke-width:28.524;stroke-miterlimit:4;stroke-dasharray:none"
       transform="matrix(0.35058201,0,0,0.35058201,-5220.022,-9069.7721)" />
    <path
       d="m -1991,8579 26,75 36,25 51,10 82,25 36,5 36,61 26,20 41,15 67,-10 87,15 36,-30 h 5 l 15,5 31,5 15,20 21,5 15,-15 26,-11 31,11 56,15 -5,25 v 25 l 10,10 31,-10 56,15 31,20 26,-20 20,-20 16,20 10,30 26,25 41,-20 61,-10 36,-10 31,-6 41,11 20,10 h 31 l 21,25 15,25 26,5 26,-15 10,-15 h 15 l 10,10 h 11 l 15,-11 26,11 10,15 15,15 h 31 l 31,-10 15,-11 26,-10 25,-10 26,-5 26,-20 10,-5 h 5 l 16,35 v 15 l 5,20 h 5 l 25,-30 6,-15 15,-20 26,-15 20,-5 31,-5 26,35 v 30 l 5,25 -31,35 77,26 97,-11 88,30 56,20 10,46 -15,25 -36,116 -20,75 10,30 16,5 35,-40 52,-35 25,-15 36,-26 26,-30 5,-30 v -30 l -11,-25 -15,-20 -5,-10 5,-21 15,-30 16,-5 15,-5 46,35 52,20 56,-35 46,-30 56,-41 31,-30 57,-20 46,-5 25,25 31,60 -35,136 -52,30 -97,36 -92,25 -98,81 -82,90 -46,71 -25,75 -46,111 -36,61 -41,40 -51,40 -57,16 -35,-5 -42,-5 -41,20 1,40 -6,25 -20,35 -21,5 -30,1 -21,15 16,20 36,10 41,15 15,15 -5,55 -56,61 -36,55 -41,66 -36,40 -20,35 -21,61 -31,65 -15,50 -31,46 -35,60 -41,30 -47,26 -10,30 -20,50 -10,30 -16,41 -20,15 -31,20 -20,5 -16,-10 -10,-20 v -56 l 15,-45 10,-35 5,-35 5,-25 -10,-16 -41,11 -10,5 -26,30 v 35 l -10,45 v 41 l -20,40 -128,15 -36,40 15,10 36,16 51,-1 h 36 l -15,46 -10,55 v 10 l 10,10 41,-10 41,-25 87,-25 21,5 10,5 21,60 v 50 l -46,66 -57,60 -41,66 -41,70 -51,96 -41,91 -36,60 -46,75 -56,51 -41,35 -46,56 -26,35 -15,10 -10,10 -36,25 -21,-100 5,-36 5,-55 26,-45 10,-31 21,-55 66,-20 41,-25 26,-26 10,-25 -15,-35 -26,-35 -15,-20 -21,-61 5,-40 20,-45 11,-45 -11,-66 -5,-25 v -15 l -5,-35 -26,-35 h -20 l -36,15 -57,10 -51,10 -66,15 -11,50 -10,61 67,105 61,-55 16,-5 21,106 15,65 10,5 16,10 10,40 -5,46 -10,20 -21,20 -20,15 -46,45 -21,41 -25,60 -21,76 -15,60 -36,25 -56,5 -16,15 10,31 11,20 20,30 11,30 v 25 l 31,45 30,26 11,35 v 35 l -41,75 -72,81 -102,81 -72,55 -72,66 -51,60 -51,45 -52,31 -61,40 -51,35 -21,31 -10,15 -15,10 -31,-30 15,-71 v -45 l -15,-40 -16,-36 5,-45 21,-15 10,-10 h 41 l 26,30 30,-5 47,-25 25,-20 10,-26 6,-20 20,-40 -5,-5 -21,-20 -15,-20 -36,-10 -62,30 -41,15 h -41 l -30,-35 -16,-5 -25,15 -11,5 v 25 l 21,25 15,31 6,25 -11,35 -41,20 -41,-25 -41,-15 -26,20 11,50 5,11 26,10 36,5 30,15 11,30 v 50 l -5,5 -57,20 -46,10 h -31 l -97,1 -31,35 -5,25 36,25 61,-5 36,-15 11,-5 35,-5 26,-10 31,-10 46,10 10,40 -41,45 -46,30 -36,16 -20,5 -108,35 -56,10 -92,20 -77,21 -62,15 -87,25 -72,5 h -61 l -47,-15 h -41 l -25,-15 10,-25 20,-45 5,-10 -35,-56 -16,-35 5,-45 57,-30 15,-46 10,-55 5,-45 -5,-26 -10,-20 -11,-45 11,-30 v -25 l 5,-51 10,-35 10,-25 41,-71 15,-40 41,-101 26,-80 15,-76 10,-50 16,-55 51,-56 46,-60 51,-56 46,-45 31,-91 20,-75 16,-80 20,-66 20,-40 62,-86 36,-85 15,-51 5,-25 36,-60 25,-61 11,-70 -11,-96 -15,-55 -11,-61 5,-55 -5,-50 -20,-35 -52,-51 -25,-55 -36,-65 -41,-36 10,-140 -21,-16 -5,-25 5,-20 -46,-25 -26,10 v -25 l 16,-20 10,-15 -5,-5 h -26 l -21,-20 v -20 l -10,-26 15,-30 6,-30 -6,-35 -5,-30 v -36 l -5,-30 5,-45 46,-40 57,-11 46,-5 30,-15 36,-40 57,-50 91,-755 31,-46 30,-15 62,-60 36,-86 z"
       id="Cape_May"
       style="fill:#4d4d4d;stroke:#000000;stroke-width:28.524;stroke-miterlimit:4;stroke-dasharray:none"
       transform="matrix(0.35058201,0,0,0.35058201,-5220.022,-9069.7721)" />
    <path
       d="m -3029,6476 1098,1006 6,75 5,30 15,36 v 40 l -10,30 -5,20 -15,35 -11,21 -5,40 10,30 16,35 15,35 11,41 5,30 v 40 l -5,50 -16,46 -30,80 -31,111 -15,166 v 106 l -20,30 -36,86 -62,60 -30,15 -31,46 -91,755 -57,50 -36,40 -30,15 -46,5 -57,11 -46,40 -5,45 5,30 v 36 l 5,30 6,35 -6,30 -15,30 10,26 v 20 l 21,20 h 26 l 5,5 -10,15 -16,20 v 25 l 26,-10 46,25 -5,20 5,25 21,16 -10,140 -83,1 -61,-26 -57,-25 -82,-60 -82,-35 -82,-30 -77,-5 -174,35 -108,-30 -118,5 -67,11 -41,-36 5,-40 52,-40 -36,-86 -26,-25 10,-35 -15,-25 -52,-20 -71,10 -21,35 -10,30 -185,26 -123,-10 -113,-15 -35,20 -21,25 -56,5 -41,15 -11,40 -15,56 -5,60 -25,46 -57,25 -82,25 -20,-15 -36,-35 -47,-66 -51,-70 -77,-45 h -46 l -5,-25 5,-36 46,-10 26,-10 5,-40 -31,-30 -31,-15 v -41 l 26,-40 20,-45 -5,-71 -72,-115 -67,-35 -41,-5 -26,25 -35,20 -26,-5 -15,-55 -6,-86 -25,-20 -57,-25 -72,-25 -71,-25 -83,-61 -56,-35 -41,-55 36,-15 41,-46 v -55 l -36,-20 -52,-15 -41,-5 5,-66 -20,-20 h -72 l -118,1 -31,20 -15,35 -20,45 -36,35 -46,-25 -47,-60 -138,-85 -16,-26 -10,-30 15,-40 v -40 l -36,-91 -41,-40 -15,-30 -11,-56 -5,-60 -25,-60 -67,-26 -92,-15 -16,11 -15,5 -10,50 -21,35 h -56 l -21,-30 -72,-75 -46,-51 -41,-35 -46,-20 -16,-30 -10,-141 -36,-50 v -51 l -51,-35 -11,-50 16,-41 -31,11 -72,25 v -20 l 5,-20 v -46 l 10,-5 41,-5 v -60 l 11,-25 -26,-15 -10,-56 -6,-25 -20,-40 v -15 l 5,-15 5,-36 41,-60 v -20 l -41,-15 -31,-20 5,-31 11,-15 10,-10 10,-30 v -20 l 15,-20 11,-10 5,-46 v -40 l 15,-35 46,-71 26,-5 189,40 52,10 46,-5 26,-50 25,-60 87,-66 46,-80 26,-71 31,-25 66,10 87,-15 62,-25 82,-106 584,-630 1334,1126 16,-45 v -80 l 56,-131 v -26 l -5,-55 -1,-35 6,-15 -47,-56 5,-25 31,-55 v -66 l 5,-75 41,-111 -15,-166 -6,-55 5,-41 31,-15 15,-10 6,-5 v -15 l -11,-20 31,-76 26,-50 z"
       id="Cumberland"
       style="fill:#4d4d4d;stroke:#000000;stroke-width:28.524;stroke-miterlimit:4;stroke-dasharray:none"
       transform="matrix(0.35058201,0,0,0.35058201,-5220.022,-9069.7721)" />
    <path
       d="m 3037,-8839 57,15 5,6 v 10 l 5,10 v 45 l 5,10 5,5 21,45 16,10 20,16 87,-56 15,-66 31,-10 21,56 30,60 31,61 77,60 585,442 174,126 -15,35 -31,81 1,50 5,50 -51,91 -26,71 -25,90 -16,16 -10,15 -5,5 -15,30 -10,30 -6,20 -15,21 -10,15 -5,10 -26,70 -10,66 -5,20 v 35 l 10,30 11,31 15,30 5,15 11,15 15,5 h 41 l 46,-5 10,-5 5,-5 11,-10 5,-10 10,-16 10,-15 5,-5 36,-20 26,-5 h 71 l 26,5 15,5 11,5 15,15 5,10 v 30 l -20,96 -10,50 -10,111 56,76 -46,30 -41,40 -15,46 -15,40 -31,60 -56,46 -46,45 -113,-100 -103,20 -266,-9 -41,-15 -41,-91 -46,-76 -103,-50 -174,-35 -175,-65 -118,-45 -56,5 -51,51 -72,30 -56,-25 -56,-20 -36,-15 -52,10 -30,-15 -139,-111 -92,-60 -103,-35 41,-56 10,-50 5,-35 31,-15 21,-16 5,-20 -26,-5 -26,-10 -41,-25 h -25 l -21,-10 16,-20 25,-40 v -31 l -20,-50 5,-40 35,-56 v -156 l 46,-50 31,-36 56,-20 10,-65 21,-21 61,5 26,-20 25,-35 v -50 l 5,-46 31,-55 5,-91 10,-45 -20,-46 25,-55 10,-40 26,-86 -5,-10 -52,-35 -46,-15 -10,-26 5,-50 -31,-60 36,-157 -16,-65 21,-45 25,-31 62,-10 36,10 15,30 10,15 41,-5 31,-15 36,-10 31,5 h 20 l 31,5 5,10 15,15 5,15 11,5 36,10 10,10 v 15 l 5,21 31,15 z"
       id="Essex"
       style="fill:#4d4d4d;stroke:#000000;stroke-width:28.524;stroke-miterlimit:4;stroke-dasharray:none"
       transform="matrix(0.35058201,0,0,0.35058201,-5220.022,-9069.7721)" />
    <path
       d="m 2228,-12255 -1013,1162 -92,111 -25,36 -148,156 -82,96 -46,55 -92,106 -11,20 -10,11 -409,474 -15,15 -15,20 -16,15 -10,15 -56,56 -256,328 -10,10 v 30 l 15,30 16,15 20,25 5,11 5,25 v 35 l 1,10 -16,50 -25,41 -5,5 -6,5 -71,50 -21,21 -5,10 -10,25 10,25 5,10 -5,25 -5,5 -10,5 -20,5 h -6 l -10,6 -25,25 -16,15 -82,50 -143,51 -61,25 -62,61 -46,-5 -15,-25 -11,-36 -10,-40 -36,-40 -51,-30 -41,5 -36,-20 -10,-21 -26,-10 h -31 l -41,36 -30,15 -41,20 h -36 l -72,15 -492,-578 -124,-156 -200,-257 -51,-61 -15,-15 -57,-70 -51,-71 -26,-35 -102,-121 -313,-392 -16,-20 -97,-116 -112,-141 v -16 l -5,-15 -10,-5 -22,6 -20,10 -20,17 -15,17 -27,17 -25,19 -21,5 -22,4 -15,-3 -10,-15 -4,-16 v -12 l 5,-10 17,-30 3,-8 16,-36 25,-60 26,-30 27,-29 4,-5 10,-7 26,-17 h 9 l 16,-3 25,-1 13,-5 23,-14 26,-25 25,-13 7,-7 29,-21 22,-16 9,-14 12,-16 5,-21 19,-18 10,-10 21,-11 20,-5 30,-17 37,-23 51,-40 38,-29 39,-47 36,-47 20,-29 29,-47 27,-64 15,-35 12,-18 11,-25 13,-17 18,-18 17,-14 27,-19 25,-35 17,-25 3,-8 13,-27 8,-19 5,-22 10,-26 11,-30 25,-50 26,-50 21,-45 14,-26 36,-60 7,-10 7,-14 12,-35 5,-25 -5,-20 -5,-7 -6,-10 -20,-26 -18,-25 -4,-30 1,-15 27,-38 9,-23 5,-30 10,-25 6,-22 19,-26 17,-25 26,-19 19,-9 30,-31 16,-39 v -11 l 10,-60 11,-35 13,-22 9,-22 2,-25 11,-30 16,-22 17,-28 15,-30 17,-29 16,-25 22,-25 26,-23 4,-3 21,-14 25,-20 31,-25 41,-31 51,-40 47,-28 13,-16 7,-7 4,-9 6,-11 v -20 l -5,-15 -11,-15 -5,-15 1,-24 10,-13 10,-10 21,-10 25,-4 20,-4 37,1 32,-8 9,-3 19,-6 28,-12 23,-15 16,-19 15,-34 12,-34 14,-32 17,-23 8,-12 29,-23 26,-14 37,-9 36,-9 19,-1 27,-3 35,7 37,1 26,-6 30,-13 42,-19 40,-18 43,-15 8,-4 28,-15 54,-30 387,242 370,229 576,347 1059,656 226,150 z"
       id="Sussex"
       style="fill:#4d4d4d;stroke:#000000;stroke-width:28.524;stroke-miterlimit:4;stroke-dasharray:none"
       transform="matrix(0.35058201,0,0,0.35058201,-5220.022,-9069.7721)" />
    <path
       d="m -4342,2325 67,40 25,51 -10,35 31,20 46,30 26,45 31,66 61,40 46,50 88,51 56,55 21,35 -11,61 6,20 v 90 l -31,61 v 85 l 41,36 77,65 v 75 l 16,41 25,15 11,10 25,55 47,45 51,41 31,15 36,40 20,40 10,45 36,46 47,60 66,81 21,40 v 75 l -5,106 41,35 72,20 113,96 26,70 118,71 123,50 251,70 56,50 16,56 56,45 83,136 15,80 26,186 21,96 20,50 31,15 36,20 5,56 5,20 v 20 l 67,70 56,41 -931,1032 -652,-598 -247,-231 -590,-533 -231,-211 -118,-111 -46,-5 -47,5 -46,40 -56,-10 h -15 l -67,16 -46,-15 -62,-21 -20,-45 -26,-45 -5,-35 -11,-30 -20,-21 -51,-20 -62,-15 -87,20 -41,11 -56,-36 -47,-40 -36,-15 h -56 l -46,15 -36,-45 -10,-10 -46,15 h -26 l -5,-20 -11,-30 -25,-25 -41,-56 -21,-35 h -20 l -36,-5 -36,-30 -16,-20 -20,-15 -51,-5 -36,-15 -26,-36 -5,-35 -16,-25 -35,-20 -16,-20 -10,-35 5,-26 5,-35 v -20 l -5,-10 -31,-81 -15,-25 -36,-5 -21,-70 -41,-15 -46,-30 -15,-31 -21,-25 -5,-10 -26,-5 -5,-30 26,-35 20,-25 -5,-86 -31,-35 -10,-46 h -26 l -41,16 -56,5 -82,15 -20,-15 11,-11 45,-25 6,-4 45,-26 82,-35 41,-20 -77,-69 247,-184 147,-120 57,-60 66,-51 51,-31 41,-24 42,-19 15,-6 36,-11 41,-11 51,-4 h 51 l 62,6 83,16 81,13 58,-4 51,-6 50,-10 56,-15 62,-18 61,-12 60,-14 104,-37 94,-41 63,-39 11,-7 57,-48 63,-58 15,-23 7,-5 17,-12 9,-5 18,-14 29,-11 9,-1 18,-3 36,-2 60,7 66,2 59,-2 44,-10 27,-7 5,-2 32,-23 z"
       id="Gloucester"
       style="fill:#4d4d4d;stroke:#000000;stroke-width:28.524;stroke-miterlimit:4;stroke-dasharray:none"
       transform="matrix(0.35058201,0,0,0.35058201,-5220.022,-9069.7721)" />
    <path
       d="m 4105,-7616 62,15 41,55 31,30 30,66 36,10 82,-66 97,-20 6,25 -5,111 20,30 41,10 46,-25 10,-66 -25,-70 25,-96 87,-101 87,-81 102,-45 h 16 l 87,-11 71,-40 36,-45 62,-16 46,-50 20,5 57,75 51,20 108,116 -10,35 36,21 -44,79 -71,128 -43,82 -37,50 -25,49 -10,55 -15,76 -3,16 -28,130 -35,216 -22,127 -1,6 -64,-12 -16,31 -10,20 -46,40 -20,15 -26,41 -31,50 -30,5 h -57 l -25,11 -16,35 -10,60 -56,41 h -51 l -41,20 26,40 41,20 61,25 26,51 -26,20 -31,-10 -30,-10 -31,-10 -82,-30 -41,-10 -26,45 16,30 41,31 15,35 -36,20 -30,-5 h -36 l -46,-5 h -72 l -41,25 -56,6 -16,-15 v -21 l 10,-40 16,-60 20,-51 20,-60 46,-76 41,-20 46,-71 46,-70 21,-61 v -35 l -11,-96 h -51 l -51,16 -26,5 -56,-76 10,-111 10,-50 20,-96 v -30 l -5,-10 -15,-15 -11,-5 -15,-5 -26,-5 h -71 l -26,5 -36,20 -5,5 -10,15 -10,16 -5,10 -11,10 -5,5 -10,5 -46,5 h -41 l -15,-5 -11,-15 -5,-15 -15,-30 -11,-31 -10,-30 v -35 l 5,-20 10,-66 26,-70 5,-10 10,-15 15,-21 6,-20 10,-30 15,-30 5,-5 10,-15 16,-16 z"
       id="Hudson"
       style="fill:#4d4d4d;stroke:#000000;stroke-width:28.524;stroke-miterlimit:4;stroke-dasharray:none"
       transform="matrix(0.35058201,0,0,0.35058201,-5220.022,-9069.7721)" />
    <path
       d="m 3466,-3903 56,15 67,50 15,45 -10,36 -20,20 61,-5 108,-66 56,-111 46,-55 41,30 72,60 92,15 h 77 l 46,-56 15,-5 h 47 l 66,40 62,46 46,35 82,15 118,45 97,60 57,50 77,45 41,36 77,20 66,10 52,30 82,15 184,24 72,30 36,51 31,50 41,45 5,51 6,65 10,55 -5,41 h -31 l -15,-20 -26,-25 -21,-15 -20,-31 -62,-10 -41,-20 -46,21 -20,25 -36,30 -41,35 -26,5 -35,16 -26,25 -15,30 -52,15 -46,16 -46,40 -82,50 -20,36 10,50 36,20 41,-20 31,-40 41,-31 51,-40 h 26 l 61,-5 26,-10 25,-56 36,-25 51,-10 46,-31 67,5 46,15 46,20 52,20 10,31 -5,70 -21,56 -51,45 -66,30 -41,36 20,30 -15,35 -66,25 -47,-15 h -36 l 6,31 25,35 16,45 -21,40 v 36 l 16,20 h 31 l 15,-15 15,-31 26,-35 36,10 10,25 41,10 20,-35 6,-15 20,-30 -10,-46 30,-20 36,5 h 36 l 36,-76 20,-70 10,-66 16,-90 -11,-71 -5,-101 v -45 l -10,-45 -6,-35 v -26 l -10,-70 v -50 l -26,-66 -57,-126 -46,-115 v -35 l 20,-41 v -40 l -36,-35 -25,5 h -36 l -56,-10 -6,-61 v -50 l -5,-35 -20,-50 -42,-26 v -30 l 26,-20 41,-15 26,20 46,30 25,15 57,76 26,45 25,70 31,91 16,60 25,35 1,61 10,96 21,85 5,76 5,75 21,55 5,16 10,25 -5,75 v 86 l -10,91 -15,120 v 126 l 21,106 -10,60 -5,21 -20,95 -41,71 -21,75 -5,111 6,61 5,90 -20,126 -26,91 -15,75 -41,111 -36,71 -20,45 -26,71 1,75 v 111 l -26,76 -41,95 -20,86 -36,20 -41,5 -56,-25 -21,-20 -25,-35 h -41 l -11,25 -20,36 -46,5 -26,-20 -41,-36 -46,-10 -21,41 6,30 25,25 57,55 77,30 72,10 56,-20 56,-30 26,5 20,30 -5,60 -10,56 -30,116 -16,80 -30,116 -10,126 v 106 l -5,105 -51,56 -67,-5 -36,-15 -25,-10 -21,15 -56,30 -72,36 -51,10 -31,-25 -25,-30 -47,-30 -36,-71 -20,-55 20,-71 -103,-85 -20,-5 -46,-20 -21,-30 -15,-41 -31,31 -5,15 -194,262 -139,151 -10,-15 -31,-25 -10,-70 -21,-36 -51,-5 -25,-10 -42,-20 -41,-5 -56,-5 h -46 l -41,-5 -31,-9 -20,5 -62,30 -66,10 h -36 l -72,-10 -82,-25 -31,-40 -10,-30 10,-71 10,-40 -26,-65 -36,-101 -46,-55 -31,-26 -10,-100 -5,-35 -21,-46 -20,5 -252,-9 -251,-15 -707,-14 -353,308 L 910,104 684,235 659,180 566,4 350,-439 165,-902 l 46,-30 61,-31 21,71 46,10 15,-10 11,-20 30,-16 41,-10 16,-10 20,-5 5,-5 16,-5 h 5 l 61,-5 36,-40 31,-46 25,-50 6,-10 10,-15 25,-36 6,-10 15,-10 10,-10 10,-35 5,-25 11,-15 5,-10 15,-11 10,-10 72,-35 113,-61 h 5 l 77,-45 82,-51 10,-5 15,-10 26,-15 31,-15 5,-5 20,-10 16,-10 25,-15 15,-10 6,-5 -6,-21 -10,-20 -20,-20 -6,-5 -10,-10 -5,-10 v -20 l 5,-10 10,-5 h 6 l 82,15 10,5 h 66 l 26,5 15,10 21,5 210,-132 276,-156 31,-15 h 5 l 5,-5 21,-51 v -30 l 5,-5 5,-10 v -10 l 788,-867 235,-243 154,-161 41,-40 5,-10 h 5 v -66 l 5,-161 v -76 l -1,-10 77,-95 41,-6 62,-20 z"
       id="Monmouth"
       style="fill:#4d4d4d;stroke:#000000;stroke-width:28.524;stroke-miterlimit:4;stroke-dasharray:none"
       transform="matrix(0.35058201,0,0,0.35058201,-5220.022,-9069.7721)" />
    <path
       d="m 684,235 226,-131 650,-590 353,-308 707,14 251,15 252,9 20,-5 21,46 5,35 10,100 31,26 46,55 36,101 26,65 -10,40 -10,71 10,30 31,40 82,25 72,10 h 36 l 66,-10 62,-30 20,-5 31,9 41,5 h 46 l 56,5 41,5 42,20 25,10 51,5 21,36 10,70 31,25 10,15 139,-151 194,-262 5,-15 31,-31 15,41 21,30 46,20 20,5 103,85 -20,71 -11,-35 -20,15 -15,30 20,136 16,70 61,66 52,5 82,30 66,-21 72,-50 92,-15 72,14 36,21 5,5 16,25 v 55 l 5,71 -5,65 -20,101 -21,75 -20,66 -36,85 -20,51 -21,75 -20,56 -20,111 5,55 5,101 -41,161 -15,201 -25,116 -20,91 -21,75 -15,106 -25,136 -21,96 -5,136 -25,171 5,100 6,91 -11,86 -25,90 -15,91 -10,60 v 81 l -15,91 -16,45 -15,55 -10,81 v 191 l -10,61 -15,50 -10,40 -21,30 -5,26 -10,5 -31,5 -26,-35 -20,-16 -36,-4 h -26 l 5,-31 5,-20 21,-15 36,15 31,5 25,-40 v -46 l -15,-40 -16,-50 5,-50 v -31 l 15,-35 31,-75 26,-71 v -40 l -1,-101 -5,-96 5,-85 15,-86 16,-100 4,-81 -5,-50 v -81 l 5,-45 10,-71 10,-75 11,-86 15,-85 15,-31 15,-35 26,-45 15,-56 10,-60 -5,-50 -20,-46 -31,-30 -16,-25 -5,-40 21,-20 36,-31 25,-75 15,-71 16,-70 5,-76 25,-80 10,-46 31,-70 15,-46 15,-45 11,-80 -6,-41 V 761 l -5,-65 v -55 l 20,-56 16,-55 15,-30 5,-26 -10,-5 -67,-15 -31,21 -41,30 -30,20 -52,35 -41,16 -51,20 -61,-20 -67,-10 -92,-15 -47,-50 -56,25 -5,45 31,30 51,5 26,31 31,25 51,-11 h 51 l 21,31 56,-21 56,-25 72,-15 57,10 5,45 -5,20 -10,61 -21,35 -72,55 11,56 -26,75 -56,5 -36,6 -21,-31 -10,-45 -31,-25 -46,15 -36,-10 -31,-15 -41,-30 -36,-50 -30,-30 h -41 l -31,30 5,20 21,15 46,40 20,25 -51,66 11,30 25,5 h 103 l 61,20 31,25 21,30 -16,41 -30,10 -26,-10 -21,-15 -30,30 -16,20 h -46 l -46,-15 -46,-10 -10,20 -21,20 -20,56 15,40 31,20 62,20 46,-15 20,-25 26,-15 31,20 15,10 v 25 l -5,20 -26,20 -5,25 16,16 20,25 31,20 10,20 v 15 l -20,40 -15,56 -21,20 5,20 11,30 5,15 -11,20 -5,36 -15,45 -25,30 -36,-5 -26,5 -15,21 -31,30 -31,5 -41,-10 -61,-10 -52,-10 -56,-50 -21,-20 -41,-31 -36,11 -36,10 h -35 l -82,5 5,20 v 56 l 20,15 h 16 l 46,-6 h 36 l 56,15 31,15 41,41 46,30 36,25 31,10 61,-15 62,5 67,-1 h 56 l 46,-5 31,10 15,20 v 36 l -20,20 -31,15 -25,15 -46,40 -31,41 -31,60 -51,91 -25,81 -21,60 5,65 6,36 -21,40 -31,5 h -66 l -36,5 -21,5 -10,41 11,15 20,5 36,10 h 41 l 36,-11 51,5 31,10 31,41 -26,25 -41,15 -41,10 -20,15 -16,41 -5,45 -25,75 -31,51 -51,25 -57,15 -41,26 1,35 25,10 41,-5 41,10 11,45 -52,15 -77,36 -25,75 5,55 -20,81 -46,40 -31,31 -36,40 21,50 15,30 26,36 v 25 l -15,20 -21,30 -10,25 -21,21 -10,40 v 20 l -5,30 v 51 l -5,45 11,55 36,10 41,10 76,10 62,10 5,15 v 25 l -15,66 10,25 21,25 -5,30 -36,5 h -21 l -30,-5 -41,1 v 20 l 15,20 10,20 26,10 26,5 h 51 l 56,15 -5,20 -15,20 -26,15 -10,15 -10,41 -36,5 -46,-20 -26,5 -15,45 v 60 l -21,11 -61,30 -21,40 -15,25 -15,41 10,10 31,5 36,10 5,20 -26,20 -36,20 -61,41 -61,10 -26,30 -15,25 -21,15 5,41 -5,30 -46,35 -10,50 -5,11 -26,40 -20,5 -26,-15 -36,-5 -25,25 -62,20 -36,-10 -10,-10 -21,10 -15,26 10,80 21,40 -5,10 -36,6 -36,-11 v 56 l -15,30 -36,35 -5,15 -5,31 20,35 16,35 -21,20 -30,10 -52,6 -30,-36 -21,-20 -62,20 -10,26 11,45 -5,45 h -26 l -26,-45 -20,-25 -16,5 -30,20 -52,30 -20,51 -10,70 -5,56 -41,5 -46,20 -6,25 -10,30 -20,41 -36,-10 -21,-36 h -30 l -11,31 -5,65 11,45 31,31 35,25 6,30 10,45 41,10 20,20 21,40 41,26 67,25 56,50 -15,35 5,45 21,41 -67,70 -25,35 v 61 l -57,-15 h -61 l -57,40 -10,-15 -10,-10 10,-40 5,-35 -5,-41 15,-15 41,-10 -10,-25 -36,-35 10,-30 16,-31 -57,-35 -67,-55 -71,40 -82,-15 -6,-50 -56,-25 -31,30 16,71 -77,-15 -93,-10 -61,5 -46,5 -16,-45 -5,-76 -51,-35 -72,-45 -36,15 -15,-40 25,-15 v -46 l -15,-30 -6,-25 h 16 l 10,-10 21,-5 h 15 l 26,5 41,-5 10,-15 5,-25 15,-21 5,-25 6,-20 v -30 l 15,-45 5,-26 5,-5 5,-20 5,-10 11,-20 5,-10 5,-20 5,-81 v -95 l -1,-51 10,-236 39,-1395 -247,-568 -5,-15 -31,-71 -15,-40 -5,-10 -16,-35 -103,-257 -56,-140 -72,-177 -11,-20 -128,-291 -47,-111 -10,-30 -5,-20 -10,-21 -11,-15 -25,-65 -11,-35 -41,-96 -5,-15 -15,-30 -11,-25 -20,-66 -52,-125 -10,-31 -10,-25 -11,-25 -20,-45 -10,-25 -6,-20 -25,-56 -5,-20 -11,-15 v -10 l -5,-15 -26,-56 L 972,949 895,708 875,668 808,527 767,421 761,411 720,316 710,295 694,255 Z"
       id="2954"
       style="fill:#4d4d4d;stroke:#000000;stroke-width:28.524;stroke-miterlimit:4;stroke-dasharray:none"
       transform="matrix(0.35058201,0,0,0.35058201,-5220.022,-9069.7721)" />
    <path
       d="m -3681,5878 -26,50 -31,76 11,20 v 15 l -6,5 -15,10 -31,15 -5,41 6,55 15,166 -41,111 -5,75 v 66 l -31,55 -5,25 47,56 -6,15 1,35 5,55 v 26 l -56,131 v 80 l -16,45 -1334,-1126 -584,630 -82,106 -62,25 -87,15 -66,-10 -31,25 -26,71 -46,80 -87,66 -25,60 -26,50 -46,5 -52,-10 -189,-40 -26,5 -46,71 -15,35 v 40 l -5,46 -11,10 -15,20 v 20 l -10,30 -10,10 -11,15 -5,31 31,20 41,15 v 20 l -41,60 -5,36 -5,15 v 15 l 20,40 6,25 10,56 26,15 -11,25 v 60 l -41,5 -10,5 v 46 l -5,20 v 20 l -56,20 -62,-35 -41,-71 -51,-45 -41,-25 -62,-55 -36,-91 -51,-101 -108,-110 -92,-96 -72,-30 -31,-20 -67,-65 -56,-46 -62,-5 -41,16 h -67 l -72,45 -77,-85 -27,-34 -70,-104 -45,-102 v -40 l 8,-31 18,-64 11,-25 16,-35 h 66 l 93,-4 94,-5 16,-8 14,-8 16,-9 -20,-60 -5,-10 -5,-25 5,-31 5,-15 10,-25 5,-25 -5,-15 v -45 l 10,-41 5,-55 v -40 l -5,-10 -13,-9 -18,-12 -10,-20 -5,-15 5,-30 15,-20 36,-30 31,-31 20,-25 15,-23 16,-27 16,-30 10,-36 25,-55 5,-40 -5,-35 -15,-36 -21,-25 -30,-25 -72,-20 -21,-15 -15,-15 -11,-20 -15,-20 v -16 l -5,-15 -16,-15 -20,-5 -21,-5 -20,-15 -41,-25 -31,-30 -15,-25 -5,-17 -6,-19 -15,-71 -16,-69 -5,-51 8,-21 18,-54 15,-31 21,-25 25,-20 16,-15 15,-20 20,-20 26,-20 36,-16 31,-20 5,-10 10,-10 16,-20 10,-25 15,-20 16,-25 20,-21 20,-20 21,-25 20,-25 21,-30 15,-31 5,-30 5,-45 6,-25 5,-45 5,-41 5,-40 10,-30 15,-25 22,-17 34,-33 11,-16 23,-46 23,-45 5,-20 10,-20 16,-5 10,5 26,5 h 25 l 10,-15 6,-15 5,-20 v -30 l 10,-46 5,-30 5,-35 10,-30 21,-41 15,-35 21,-40 20,-45 15,-46 11,-30 15,-30 10,-30 16,-21 20,-20 21,-10 20,-30 31,-30 61,-66 62,-55 26,-25 20,15 82,-15 56,-5 41,-16 h 26 l 10,46 31,35 5,86 -20,25 -26,35 5,30 26,5 5,10 21,25 15,31 46,30 41,15 21,70 36,5 15,25 31,81 5,10 v 20 l -5,35 -5,26 10,35 16,20 35,20 16,25 5,35 26,36 36,15 51,5 20,15 16,20 36,30 36,5 h 20 l 21,35 41,56 25,25 11,30 5,20 h 26 l 46,-15 10,10 36,45 46,-15 h 56 l 36,15 47,40 56,36 41,-11 87,-20 62,15 51,20 20,21 11,30 5,35 26,45 20,45 62,21 46,15 67,-16 h 15 l 56,10 46,-40 47,-5 46,5 118,111 231,211 590,533 z"
       id="Salem"
       style="fill:#4d4d4d;stroke:#000000;stroke-width:28.524;stroke-miterlimit:4;stroke-dasharray:none"
       transform="matrix(0.35058201,0,0,0.35058201,-5220.022,-9069.7721)" />
  </g>
</svg>
