<?xml version="1.0" encoding="UTF-8" standalone="no"?>
<!-- Created with Inkscape (http://www.inkscape.org/) -->

<svg
   width="885.90875mm"
   height="635.90686mm"
   viewBox="0 0 885.90876 635.90682"
   version="1.1"
   id="svg986"
   inkscape:version="1.1 (c68e22c387, 2021-05-23)"
   sodipodi:docname="RedEyeLogo2.svg"
   xmlns:inkscape="http://www.inkscape.org/namespaces/inkscape"
   xmlns:sodipodi="http://sodipodi.sourceforge.net/DTD/sodipodi-0.dtd"
   xmlns="http://www.w3.org/2000/svg"
   xmlns:svg="http://www.w3.org/2000/svg">
  <sodipodi:namedview
     id="namedview988"
     pagecolor="#ffffff"
     bordercolor="#666666"
     borderopacity="1.0"
     inkscape:pageshadow="2"
     inkscape:pageopacity="0.0"
     inkscape:pagecheckerboard="0"
     inkscape:document-units="mm"
     showgrid="false"
     fit-margin-top="0"
     fit-margin-left="0"
     fit-margin-right="0"
     fit-margin-bottom="0"
     inkscape:zoom="0.125"
     inkscape:cx="-484"
     inkscape:cy="1724"
     inkscape:window-width="1920"
     inkscape:window-height="1017"
     inkscape:window-x="1912"
     inkscape:window-y="-8"
     inkscape:window-maximized="1"
     inkscape:current-layer="g6392"
     showguides="true"
     inkscape:guide-bbox="true" />
  <defs
     id="defs983" />
  <g
     inkscape:label="Layer 1"
     inkscape:groupmode="layer"
     id="layer1"
     transform="translate(241.67008,187.84543)">
    <g
       id="g6392"
       inkscape:export-filename="C:\Users\jmsla\Desktop\RedEyeLogo V4 PNG.png"
       inkscape:export-xdpi="329.56567"
       inkscape:export-ydpi="329.56567">
      <path
         style="font-size:25.2996px;line-height:0;font-family:Airstrike;-inkscape-font-specification:Airstrike;letter-spacing:0.0175614px;word-spacing:0.026342px;writing-mode:vertical-lr;fill:#ffffff;stroke:#000000;stroke-width:8.53239;stroke-linecap:butt;stroke-linejoin:miter"
         d="m -232.62696,-183.5783 79.38137,96.33917 -55.01888,21.983787 -0.25,334.470413 133.043384,166.66381 V 195.28742 L 41.800317,281.36263 416.87752,280.02958 470.8406,152.88287 H 196.86574 L 164.24438,111.12092 H 313.98077 L 376.45109,-18.022852 H 143.1051 c 4.70768,-10.698701 7.56786,-22.781652 8.70737,-35.654315 h 231.9614 l 60.94869,-129.902063 z"
         id="path3994"
         sodipodi:nodetypes="cccccccccccccccccc" />
      <path
         id="path2959"
         style="font-size:25.2996px;line-height:0;font-family:Airstrike;-inkscape-font-specification:Airstrike;letter-spacing:0.0175614px;word-spacing:0.026342px;writing-mode:vertical-lr;fill:#ff0000;stroke-width:2.69921"
         d="m -132.1653,-73.664508 -57.93669,18.820795 12.77113,16.325119 19.87702,-6.48597 1.41185,0.403582 -2.46419,30.148118 14.23601,18.1968558 4.06584,-30.0290408 c 1.94406,2.134587 4.14025,4.300573 6.58964,6.49702 2.55046,2.208816 5.18585,3.940804 7.90448,5.196257 2.81973,1.267869 5.72023,1.879467 8.70088,1.834248 2.98066,-0.04524 5.91588,-1.198885 8.80896,-3.459026 1.30472,-1.019276 2.61257,-2.267861 3.92241,-3.747844 1.35426,-1.423328 2.41752,-2.985264 3.19004,-4.684827 0.77257,-1.69952 1.097608,-3.504845 0.97291,-5.416736 -0.0802,-1.855193 -0.8747,-3.747247 -2.38258,-5.674668 z m -1.8906,21.067284 13.37121,17.092349 c 0.53217,0.680287 0.69488,1.237366 0.4875,1.673325 -0.1506,0.391637 -0.45286,0.765396 -0.90669,1.119917 l -0.93758,0.729733 c -0.56728,0.443169 -1.40157,0.777256 -2.50617,1.000889 -1.00354,0.235918 -1.83873,-0.07126 -2.50391,-0.921538 l -10.64226,-13.604658 -13.42855,-1.567482 z m 48.033509,37.919358 -57.934519,18.8207438 33.45779,42.7717232 c 0.0444,0.05632 0.59508,0.17449 1.65016,0.354948 1.09939,0.236766 2.37925,0.471029 3.83863,0.701062 1.51607,0.185572 3.05992,0.34812 4.63278,0.489417 1.617179,0.197941 2.966191,0.28626 4.046006,0.264501 0.101109,0.01282 0.411259,-5.11e-4 0.928792,-0.03838 0.517742,-0.03838 1.062451,-0.101947 1.636894,-0.185162 0.574483,-0.08317 1.121452,-0.143764 1.639153,-0.183026 0.574484,-0.08362 0.940824,-0.142498 1.098627,-0.174052 l -25.478262,-32.566534 6.56975,-2.118631 13.236618,16.922599 20.99992,3.185689 -15.365525,-19.643146 -14.147743,-1.962104 17.150242,-5.5908806 20.488106,26.1908036 c 0.35452,0.453494 1.363005,0.807974 3.024557,1.062621 1.705878,0.311431 3.581549,0.490312 5.627782,0.535747 2.090603,0.101947 4.115846,0.118582 6.073386,0.05076 2.05865,-0.05546 3.638545,-0.194957 4.743147,-0.41894 z m 41.622539,53.206127 -57.936738,18.820752 16.563473,21.173115 c 3.458982,4.421743 6.886651,8.04574 10.284839,10.87094 3.4426,2.881895 7.068175,5.119472 10.873912,6.713047 3.906759,1.605921 8.088732,2.629901 12.548263,3.073237 4.560725,0.454353 9.639024,0.460637 15.233188,0.01804 v 0.0016 c 3.757231,-0.104147 7.294538,-0.722539 10.613548,-1.854069 3.375705,-1.175895 6.170867,-2.62797 8.383227,-4.356334 2.89303,-2.260132 4.67736,-4.886234 5.351975,-7.879272 0.674655,-2.993063 -0.319966,-6.190987 -2.980444,-9.592302 z m -1.842095,21.303155 10.776814,13.774402 c 0.842613,1.0771 1.078449,2.0785 0.708188,3.007106 -0.269624,0.941 -0.886599,1.788558 -1.850972,2.541928 -0.737411,0.576105 -1.664877,1.02678 -2.781895,1.351408 -1.11693,0.324656 -2.261207,0.671655 -3.434879,1.040614 -0.959165,0.293927 -1.90178,0.43463 -2.823829,0.423188 -0.877683,0.04653 -1.675886,0.07843 -2.395806,0.09256 -1.913171,0.124457 -4.091359,-0.09256 -6.536694,-0.648173 -2.344313,-0.543242 -4.687345,-1.315306 -7.026453,-2.319226 -2.339106,-1.003997 -4.528898,-2.169987 -6.571975,-3.496506 -1.98638,-1.370898 -3.578862,-2.821328 -4.77621,-4.351906 l -1.729597,-2.211256 z"
         inkscape:export-filename="C:\Users\jmsla\Desktop\RedEyeLogo.jpg"
         inkscape:export-xdpi="329.56567"
         inkscape:export-ydpi="329.56567" />
      <path
         id="path2961"
         style="font-size:25.2996px;line-height:0;font-family:Airstrike;-inkscape-font-specification:Airstrike;letter-spacing:0.0175614px;word-spacing:0.026342px;writing-mode:vertical-lr;stroke-width:2.69921"
         d="M -0.58440678,94.536424 -58.521142,113.35722 -25.061183,156.1289 c 0.04435,0.0568 0.595219,0.1746 1.650161,0.35496 1.099482,0.23732 2.377077,0.47125 3.836453,0.70103 1.516075,0.18566 3.062183,0.35027 4.635041,0.49164 1.617141,0.19799 2.963893,0.28413 4.043789,0.26238 0.101108,0.0127 0.411263,-5.1e-4 0.9287502,-0.0383 0.5177465,-0.0383 1.06467,-0.0997 1.6391117,-0.18306 0.5744417,-0.0836 1.119192,-0.14625 1.6369369,-0.18514 0.5744844,-0.0831 0.9408222,-0.13992 1.0986713,-0.17203 l -25.4760881,-32.56873 6.567537,-2.11648 13.238875,16.92045 20.9998772,3.18563 -15.3677019,-19.64312 -14.1477403,-1.96209 17.1524575,-5.58866 20.4880635,26.18858 c 0.354948,0.45354 1.363046,0.80798 3.024556,1.06261 1.705876,0.31145 3.581591,0.49033 5.627783,0.53571 2.09056,0.10209 4.11367,0.11855 6.071168,0.0506 2.058648,-0.0555 3.640764,-0.1949 4.745322,-0.41895 z M 40.371883,146.89157 24.232045,174.98058 -3.3288453,183.90923 9.4423273,200.23441 37.00535,191.30573 81.61278,199.6105 67.378957,181.41363 47.29682,177.64815 54.605652,165.08844 Z m 44.347077,56.68943 -57.934498,18.82079 33.45776,42.77168 c 0.04435,0.0568 0.595176,0.17666 1.650162,0.35708 1.099439,0.23734 2.379252,0.46909 3.838629,0.69886 1.516076,0.18566 3.060009,0.35024 4.632867,0.49164 1.617138,0.19799 2.966142,0.28627 4.045968,0.26449 0.101061,0.0127 0.408685,-0.002 0.926524,-0.0383 0.517786,-0.0383 1.064679,-0.0997 1.639164,-0.18306 0.574509,-0.0831 1.121352,-0.14578 1.639113,-0.18514 0.574484,-0.0832 0.940846,-0.13992 1.098673,-0.17203 l -25.478317,-32.56878 6.569799,-2.1164 13.236625,16.9204 20.999913,3.18566 -15.365535,-19.6431 -14.147738,-1.96212 17.150241,-5.58866 20.48806,26.19076 c 0.35496,0.45356 1.36309,0.8058 3.0246,1.06046 1.70589,0.31142 3.5815,0.4903 5.62773,0.53568 2.09057,0.10209 4.11595,0.11855 6.07348,0.051 2.05858,-0.0556 3.63848,-0.19491 4.74312,-0.41895 z"
         inkscape:export-filename="C:\Users\jmsla\Desktop\RedEyeLogo.jpg"
         inkscape:export-xdpi="329.56567"
         inkscape:export-ydpi="329.56567" />
      <path
         style="fill:#ff0000;stroke:none;stroke-width:2.35409px;stroke-linecap:butt;stroke-linejoin:miter;stroke-opacity:1"
         d="M -189.09342,-36.568478 V 262.48215 l 94.195144,119.47308 V 156.12827 L 45.439237,262.80066 Z"
         id="path2963"
         sodipodi:nodetypes="cccccc"
         inkscape:export-filename="C:\Users\jmsla\Desktop\RedEyeLogo.jpg"
         inkscape:export-xdpi="329.56567"
         inkscape:export-ydpi="329.56567" />
      <path
         id="path2965"
         style="font-size:192px;line-height:1.25;font-family:'Franklin Gothic Medium';-inkscape-font-specification:'Franklin Gothic Medium, ';white-space:pre;fill:#000000;stroke:none;stroke-width:1;stroke-miterlimit:4;stroke-dasharray:none"
         d="m -12.91616,-164.18133 -176.50354,0.0257 94.394932,119.104239 -0.409982,-40.50979 89.0222636,-1.205923 C 93.972743,-88.125857 34.663808,-22.943174 -36.260735,31.898308 L 144.91878,262.55374 c 86.0791,0 172.1582,0 258.2373,0 L 441.22537,172.3079 H 187.3884 L 77.146734,31.157526 c 0,0 56.283806,-39.780433 56.283806,-93.881228 0,-36.234302 -14.41011,-57.648428 -28.96866,-70.377828 -24.859228,-21.73596 -66.779531,-31.08706 -117.377955,-31.08066 z"
         inkscape:export-filename="C:\Users\jmsla\Desktop\RedEyeLogo.jpg"
         inkscape:export-xdpi="329.56567"
         inkscape:export-ydpi="329.56567"
         sodipodi:nodetypes="cccccccccccsscc" />
      <path
         id="path2967"
         style="fill:#000000;stroke:none;stroke-width:2.49943px;stroke-linecap:butt;stroke-linejoin:miter;stroke-opacity:1"
         d="m 84.34131,-164.15604 c 11.460732,4.95224 21.78679,11.18326 30.69574,18.97293 15.79229,13.80811 31.3897,37.35959 34.02913,72.086432 h 221.47517 l 43.31469,-91.059362 z M 128.36854,1.401608 c -9.59496,14.049695 -20.61783,24.957225 -28.939683,32.193957 l 45.381763,58.10697 H 300.26151 L 342.94078,1.401608 Z"
         inkscape:export-filename="C:\Users\jmsla\Desktop\RedEyeLogo.jpg"
         inkscape:export-xdpi="329.56567"
         inkscape:export-ydpi="329.56567" />
      <path
         id="path2969"
         style="font-size:15.5222px;line-height:1.25;font-family:Airstrike;-inkscape-font-specification:Airstrike;letter-spacing:-0.269952px;fill:#ff0000;stroke:#000000;stroke-width:17.5502;stroke-linecap:square;stroke-linejoin:miter;stroke-miterlimit:3;stroke-dasharray:none;paint-order:stroke fill markers"
         d="m -29.248689,342.68333 c -0.848136,0.84737 -1.756242,1.78556 -2.725596,2.8145 -0.969466,0.96849 -1.970988,1.99709 -3.000957,3.08658 -0.969411,1.08947 -1.907577,2.20868 -2.816382,3.35868 -0.848249,1.08943 -1.57525,2.11815 -2.181081,3.0866 h 36.1714803 c 0.545808,0 0.816841,0.36212 0.816841,1.08827 0,1.02893 -0.301294,1.84644 -0.907575,2.45175 l -0.36563,0.45632 c 0,0.0603 -0.180775,0.21119 -0.544638,0.45336 -0.363289,0.18188 -0.665208,0.33214 -0.907573,0.45338 -0.424714,0.24221 -1.000299,0.54406 -1.727345,0.90695 -0.727218,0.30251 -1.122387,0.45339 -1.182819,0.45339 H -25.887491 c -1.575232,0 -3.391266,0.48551 -5.451296,1.45413 -2.059984,0.90784 -4.090243,2.08735 -6.089611,3.54004 -1.999435,1.39211 -3.878817,2.90649 -5.635815,4.54068 -1.757054,1.63422 -3.11754,3.11538 -4.086951,4.44696 -1.090637,1.57365 -1.941348,3.2087 -2.547177,4.90347 -0.605896,1.6947 -0.90752,3.29951 -0.90752,4.81274 0,1.63421 0.391962,3.02492 1.179773,4.17491 0.848258,1.08945 2.151422,1.6355 3.908532,1.6355 h 41.3535703 c 0.96941,-0.90794 2.028325,-2.05724 3.17943703,-3.44935 1.211777,-1.39214 2.33399197,-2.72556 3.36400997,-3.99652 1.090507,-1.27108 1.998607,-2.36008 2.725594,-3.26799 l 1.089099,-1.45414 H -30.612746 c -0.666435,0 -0.998304,-0.21117 -0.998304,-0.63483 l 1.724299,-2.99585 c 0.363291,-0.48442 0.78894,-0.90667 1.273608,-1.26972 0.484388,-0.42356 0.970408,-0.63483 1.455141,-0.63483 h 18.1750463 c 1.757059,0 3.696694,-0.45573 5.817336,-1.3634 2.18113103,-0.90796 4.30177,-2.05728 6.361804,-3.44937 2.120641,-1.45267 4.060277,-2.99717 5.817339,-4.63135 1.8176687,-1.69484 3.2717527,-3.29963 4.3622597,-4.81286 0.969468,-1.39206 1.696395,-2.87323 2.181131,-4.44691 0.545807,-1.63427 0.816784,-3.23905 0.816784,-4.81279 0,-1.93681 -0.455721,-3.57184 -1.364349,-4.90346 -0.848199,-1.33164 -2.211724,-1.99524 -4.089996,-1.99524 z m 52.129272,0 -11.268704,30.86882 h 30.992547 l 9.359843,-9.44414 -9.725878,26.69393 h 17.45204 L 77.230156,342.68333 H 59.781224 l -6.818699,18.61016 H 33.332393 l 6.815657,-18.61016 z m 94.901627,0 c -0.84827,0.54463 -1.87695,1.45274 -3.08873,2.72386 -1.15118,1.21048 -2.30353,2.48045 -3.4547,3.8121 -1.09057,1.33152 -2.05898,2.54123 -2.90712,3.63075 -0.78765,1.08942 -1.21301,1.75608 -1.27362,1.99822 v 0.0909 h 24.44619 l -34.535058,35.86288 h 18.359618 l 47.985,-48.11863 z m 71.90776,0 -17.53973,48.11861 h 17.449 l 6.36185,-17.43123 h 25.53823 c 2.06003,0 4.21089,-0.42528 6.45258,-1.27263 2.24179,-0.84747 4.30219,-2.02689 6.18042,-3.54006 1.87825,-1.57373 3.42274,-3.41993 4.63449,-5.53837 1.21182,-2.11838 1.81809,-4.45033 1.81809,-6.99237 0,-1.2106 -0.15084,-2.57108 -0.45397,-4.08419 -0.24224,-1.57375 -0.72804,-3.02778 -1.45511,-4.35929 -0.66641,-1.39213 -1.60457,-2.54149 -2.81643,-3.4494 -1.15113,-0.96848 -2.63843,-1.45107 -4.456,-1.45107 z m 59.76464,0 -17.53976,48.11861 h 39.89554 c 0.84823,-0.66585 1.91016,-1.66431 3.18248,-2.99594 1.27238,-1.39206 2.48508,-2.75559 3.63621,-4.08715 1.1512,-1.39217 2.08934,-2.60178 2.81636,-3.63074 0.78761,-1.029 1.14955,-1.54483 1.08908,-1.54483 h -28.80843 l 13.08679,-35.85995 z m 49.31281,0 -7.17862,20.15497 c -0.54578,2.05794 -1.09136,3.87397 -1.6366,5.44761 -0.54581,1.51322 -0.97079,3.05461 -1.27361,4.62836 -0.12095,0.84736 -0.21183,1.60461 -0.2722,2.27034 -0.0608,0.66577 -0.0909,1.33245 -0.0909,1.99826 0,2.42115 0.36504,4.50862 1.09209,6.26386 0.72713,1.69477 1.93974,3.08841 3.63623,4.17794 1.69645,1.08952 3.96797,1.90702 6.81567,2.45169 2.84761,0.4844 6.42235,0.72558 10.7241,0.72558 h 10.63333 c 3.63528,0 6.75446,-0.54581 9.3598,-1.63548 2.60524,-1.15003 4.907,-2.81518 6.90636,-4.99418 1.99948,-2.17893 3.7883,-4.83958 5.36363,-7.98703 1.57525,-3.20788 3.11976,-6.90024 4.63446,-11.07658 l 8.18003,-22.42534 H 338.3937 l -9.81653,26.96297 c -0.42475,0.84741 -1.00037,1.78554 -1.72737,2.81452 -0.72709,1.02899 -1.57472,1.99728 -2.54417,2.90521 -0.96944,0.90793 -2.0886,1.66509 -3.36086,2.27031 -1.21177,0.60526 -2.54517,0.90694 -3.9993,0.90694 h -4.45295 c -1.39357,0 -2.69673,-0.57332 -3.90848,-1.72319 -1.15119,-1.21049 -1.7274,-2.8757 -1.7274,-4.99412 0,-0.72633 0.15085,-1.69465 0.45396,-2.90521 0,-0.18122 0.0603,-0.48316 0.18124,-0.90689 0.12093,-0.48441 0.45572,-1.5732 1.0013,-3.26798 0.54586,-1.69477 1.39296,-4.23779 2.54416,-7.62729 1.15122,-3.45001 2.78621,-8.26152 4.90677,-14.43527 z m 60.40291,0 -17.54275,48.11861 h 17.45203 l 9.81353,-27.05669 4.99755,27.05669 h 6.27114 l 24.72141,-27.05669 -9.81655,27.05669 h 17.44896 l 17.5428,-48.11861 h -21.99576 l -22.26503,24.14847 -4.63453,-24.14847 z m 74.39736,0 -17.54283,48.11861 h 41.71663 c 3.21124,0 5.87494,-0.2112 7.99545,-0.63486 2.18114,-0.48435 4.03033,-1.18103 5.54506,-2.08898 1.51472,-0.96844 2.75757,-2.20822 3.72696,-3.72137 1.03005,-1.51321 1.99834,-3.32922 2.90719,-5.44762 l 0.36271,-1.00067 c 0.3025,-0.78681 0.60758,-1.60429 0.91062,-2.45178 0.3025,-0.84729 0.45396,-1.69503 0.45396,-2.54239 -0.0603,-1.21056 -0.36504,-2.29956 -0.91055,-3.26797 -0.54581,-1.02897 -1.1486,-1.81631 -1.8151,-2.36099 0.72712,-0.36334 1.51441,-0.90607 2.36265,-1.63252 0.90881,-0.78678 1.72639,-1.6647 2.45336,-2.63314 0.78769,-1.02894 1.42419,-2.11794 1.90892,-3.26794 0.54579,-1.14998 0.81669,-2.32949 0.81669,-3.54002 v -0.18122 c 0,-1.69481 -0.15084,-3.35999 -0.4539,-4.99419 -0.24225,-1.6342 -0.72802,-3.05805 -1.45518,-4.26857 -0.66636,-1.21056 -1.60456,-2.17883 -2.81631,-2.90517 -1.15119,-0.78693 -2.63538,-1.17906 -4.45306,-1.17906 z m 61.21667,0 -17.5398,48.11861 h 17.44905 l 17.53973,-48.11861 z m 21.13967,0 -17.53976,48.11861 h 17.44903 l 9.81652,-27.05669 5.08828,27.05669 h 21.99279 l 17.5428,-48.11861 h -17.2675 l -9.90736,27.0537 -5.17907,-27.0537 h -9.90705 z m 73.03592,0 c -3.21125,0 -6.24298,0.81747 -9.09055,2.45174 -2.84762,1.57367 -5.36046,3.63102 -7.54172,6.17318 -2.18116,2.54212 -3.90973,5.35655 -5.182,8.44346 -1.2724,3.08687 -1.90584,6.08242 -1.90584,8.98765 0,4.35793 0.84764,7.95975 2.54415,10.80458 1.75704,2.84471 4.05875,5.11324 6.90637,6.80802 2.8476,1.63419 6.05732,2.78355 9.63207,3.44935 3.57463,0.66577 7.24291,1.00063 10.99936,1.00063 h 13.54051 l 11.35944,-29.96189 h -21.81129 c -0.84822,0.6658 -1.81657,1.63411 -2.90716,2.9052 -1.03001,1.21055 -2.03147,2.45347 -3.00093,3.72443 -0.96935,1.21056 -1.81709,2.32973 -2.54414,3.35868 -0.66662,0.96831 -1.02854,1.54141 -1.08906,1.72313 v 0.0908 h 10.2673 l -2.0903,5.90106 h -5.36057 c -1.09066,0 -2.21282,-0.36211 -3.36398,-1.08832 -1.09051,-0.72634 -2.11922,-1.63428 -3.08866,-2.72377 -0.90882,-1.08953 -1.66603,-2.26904 -2.2719,-3.54007 -0.54526,-1.33158 -0.81979,-2.57135 -0.81979,-3.72142 0,-0.90789 0.244,-2.15079 0.72904,-3.72445 0.36331,-1.02897 0.84621,-2.05765 1.45213,-3.0866 0.60584,-1.0895 1.27255,-2.05783 1.99959,-2.90517 0.78762,-0.8474 1.63837,-1.51408 2.54714,-1.99827 0.90888,-0.54464 1.84707,-0.81626 2.81643,-0.81626 h 23.62934 c 2.12062,-1.8158 4.06037,-3.72233 5.81735,-5.71964 1.81769,-2.05799 3.60351,-4.23593 5.36053,-6.53597 z m -386.36472,12.34636 h 18.63188 c 0.12095,0 0.39194,0.27149 0.81672,0.81619 0.48494,0.48437 0.81964,0.87937 1.00134,1.18205 v 0.18123 c 0.0603,0.12096 0.11806,0.21119 0.1784,0.27222 l -0.1784,0.45334 c -0.0603,0.18188 -0.214,0.45342 -0.45689,0.81623 -0.18188,0.30252 -0.39253,0.63747 -0.63524,1.00066 -0.24225,0.3633 -0.48381,0.6949 -0.72599,0.99762 -0.18189,0.24223 -0.30252,0.36266 -0.36273,0.36266 h -14.54179 l -8.72452,7.71798 z m 243.87764,0 h 18.62883 c 0.12095,0 0.39543,0.27149 0.81974,0.81619 0.48496,0.48437 0.81661,0.87937 0.99831,1.18205 v 0.18123 c 0.0603,0.12096 0.12134,0.21119 0.18122,0.27222 l -0.18122,0.45334 c -0.0604,0.18188 -0.21119,0.45342 -0.45338,0.81623 -0.18186,0.30252 -0.39309,0.63747 -0.6353,1.00066 -0.24221,0.3633 -0.48615,0.6949 -0.72902,0.99762 -0.18188,0.24223 -0.30253,0.36266 -0.36272,0.36266 h -14.54186 l -8.72455,7.71798 z m -364.735199,5.81036 -12.996049,12.25864 h 20.994502 l 12.995986,-12.25864 z m 358.554789,11.53009 h 20.90076 c 0,0.42358 -0.0283,0.84899 -0.0905,1.27269 0,0.42352 -0.0603,0.72536 -0.18123,0.90694 l -0.18121,0.45337 c -0.0603,0.0604 -0.21119,0.33179 -0.45398,0.81617 l -0.36269,0.63791 c -0.18187,0.18189 -0.45396,0.39313 -0.81677,0.63487 -0.36388,0.18187 -0.72839,0.39309 -1.09209,0.63483 -0.36332,0.18188 -0.69518,0.36268 -0.99834,0.54406 l -0.45396,0.18123 h -18.63182 z"
         inkscape:export-filename="C:\Users\jmsla\Desktop\RedEyeLogo.jpg"
         inkscape:export-xdpi="329.56567"
         inkscape:export-ydpi="329.56567"
         sodipodi:nodetypes="cccccsscccccssccscsscscccccscccsscccccsccccccccccccccccccccccccccccccsscsscccscccccccsccccccccscscsscscccccsscsscsccccccccccccccccccccccsccccccccccccsscccsccccccccccccccccccscsssccssccccccccccscccsccccscccscsccccccccsccccsccccccscsccccccccccccccccccccc" />
    </g>
  </g>
</svg>
